font.ufo
<glyph name="exclam" format="1">
  <advance width="600"/>
  <unicode hex="0021"/>
  <outline>
    <contour>
      <point x="255" y="238" type="line"/>
      <point x="318" y="238" type="line"/>
      <point x="397" y="571" type="line"/>
      <point x="418" y="671" type="line"/>
      <point x="328" y="671" type="line"/>
      <point x="310" y="571" type="line"/>
    </contour>
    <contour>
      <point x="243" y="-12" type="curve" smooth="yes"/>
      <point x="293" y="-12"/>
      <point x="332" y="32"/>
      <point x="332" y="81" type="curve" smooth="yes"/>
      <point x="332" y="121"/>
      <point x="306" y="149"/>
      <point x="269" y="149" type="curve" smooth="yes"/>
      <point x="218" y="149"/>
      <point x="179" y="105"/>
      <point x="179" y="55" type="curve" smooth="yes"/>
      <point x="179" y="16"/>
      <point x="205" y="-12"/>
    </contour>
  </outline>
</glyph>
<glyph name="numbersign" format="1">
  <advance width="600"/>
  <unicode hex="0023"/>
  <outline>
    <contour>
      <point x="75" y="0" type="line"/>
      <point x="133" y="0" type="line"/>
      <point x="333" y="650" type="line"/>
      <point x="276" y="650" type="line"/>
    </contour>
    <contour>
      <point x="273" y="0" type="line"/>
      <point x="331" y="0" type="line"/>
      <point x="521" y="650" type="line"/>
      <point x="463" y="650" type="line"/>
    </contour>
    <contour>
      <point x="120" y="412" type="line"/>
      <point x="535" y="412" type="line"/>
      <point x="550" y="469" type="line"/>
      <point x="134" y="469" type="line"/>
    </contour>
    <contour>
      <point x="61" y="203" type="line"/>
      <point x="477" y="203" type="line"/>
      <point x="491" y="259" type="line"/>
      <point x="75" y="259" type="line"/>
    </contour>
  </outline>
</glyph>
<glyph name="dollar" format="1">
  <advance width="600"/>
  <unicode hex="0024"/>
  <outline>
    <contour>
      <point x="266" y="34" type="curve" smooth="yes"/>
      <point x="386" y="34"/>
      <point x="488" y="84"/>
      <point x="488" y="201" type="curve" smooth="yes"/>
      <point x="488" y="288"/>
      <point x="417" y="326"/>
      <point x="334" y="367" type="curve" smooth="yes"/>
      <point x="261" y="401"/>
      <point x="225" y="428"/>
      <point x="225" y="471" type="curve" smooth="yes"/>
      <point x="225" y="520"/>
      <point x="269" y="543"/>
      <point x="325" y="543" type="curve" smooth="yes"/>
      <point x="388" y="543"/>
      <point x="435" y="513"/>
      <point x="471" y="470" type="curve"/>
      <point x="527" y="521" type="line"/>
      <point x="496" y="562"/>
      <point x="427" y="618"/>
      <point x="335" y="618" type="curve" smooth="yes"/>
      <point x="224" y="618"/>
      <point x="135" y="569"/>
      <point x="135" y="464" type="curve" smooth="yes"/>
      <point x="135" y="378"/>
      <point x="195" y="336"/>
      <point x="279" y="296" type="curve" smooth="yes"/>
      <point x="350" y="261"/>
      <point x="397" y="238"/>
      <point x="397" y="190" type="curve" smooth="yes"/>
      <point x="397" y="137"/>
      <point x="349" y="110"/>
      <point x="272" y="110" type="curve" smooth="yes"/>
      <point x="195" y="110"/>
      <point x="146" y="152"/>
      <point x="110" y="193" type="curve"/>
      <point x="53" y="137" type="line"/>
      <point x="93" y="88"/>
      <point x="166" y="34"/>
    </contour>
    <contour>
      <point x="316" y="585" type="line"/>
      <point x="380" y="585" type="line"/>
      <point x="412" y="748" type="line"/>
      <point x="347" y="748" type="line"/>
    </contour>
    <contour>
      <point x="185" y="-110" type="line"/>
      <point x="249" y="-110" type="line"/>
      <point x="284" y="67" type="line"/>
      <point x="220" y="67" type="line"/>
    </contour>
  </outline>
</glyph>
<glyph name="ampersand" format="1">
  <advance width="600"/>
  <unicode hex="0026"/>
  <outline>
    <contour>
      <point x="183" y="-12" type="curve" smooth="yes"/>
      <point x="270" y="-12"/>
      <point x="349" y="26"/>
      <point x="412" y="91" type="curve" smooth="yes"/>
      <point x="482" y="164"/>
      <point x="536" y="251"/>
      <point x="581" y="351" type="curve"/>
      <point x="498" y="351" type="line"/>
      <point x="462" y="267"/>
      <point x="419" y="193"/>
      <point x="356" y="134" type="curve" smooth="yes"/>
      <point x="308" y="89"/>
      <point x="251" y="60"/>
      <point x="200" y="60" type="curve" smooth="yes"/>
      <point x="143" y="60"/>
      <point x="105" y="95"/>
      <point x="105" y="153" type="curve" smooth="yes"/>
      <point x="105" y="318"/>
      <point x="446" y="348"/>
      <point x="446" y="554" type="curve" smooth="yes"/>
      <point x="446" y="619"/>
      <point x="407" y="667"/>
      <point x="331" y="667" type="curve" smooth="yes"/>
      <point x="230" y="667"/>
      <point x="153" y="585"/>
      <point x="153" y="474" type="curve" smooth="yes"/>
      <point x="153" y="344"/>
      <point x="243" y="181"/>
      <point x="349" y="81" type="curve" smooth="yes"/>
      <point x="398" y="34"/>
      <point x="455" y="2"/>
      <point x="503" y="-12" type="curve"/>
      <point x="541" y="62" type="line"/>
      <point x="506" y="74"/>
      <point x="455" y="98"/>
      <point x="413" y="137" type="curve" smooth="yes"/>
      <point x="316" y="225"/>
      <point x="231" y="361"/>
      <point x="231" y="478" type="curve" smooth="yes"/>
      <point x="231" y="552"/>
      <point x="273" y="603"/>
      <point x="326" y="603" type="curve" smooth="yes"/>
      <point x="357" y="603"/>
      <point x="372" y="580"/>
      <point x="372" y="552" type="curve" smooth="yes"/>
      <point x="372" y="387"/>
      <point x="15" y="366"/>
      <point x="15" y="142" type="curve" smooth="yes"/>
      <point x="15" y="48"/>
      <point x="82" y="-12"/>
    </contour>
  </outline>
</glyph>
<glyph name="quotesingle" format="1">
	<unicode hex="0027"/>
	<advance width="600"/>
	<outline>
		<contour>
			<point x="281" y="346" type="line"/>
			<point x="341" y="346" type="line"/>
			<point x="413" y="572" type="line"/>
			<point x="439" y="686" type="line"/>
			<point x="321" y="686" type="line"/>
			<point x="300" y="572" type="line"/>
		</contour>
	</outline>
</glyph>
<glyph name="parenright" format="1">
  <advance width="600"/>
  <unicode hex="0029"/>
  <outline>
    <contour>
      <point x="81" y="-186" type="line"/>
      <point x="281" y="-63"/>
      <point x="401" y="126"/>
      <point x="401" y="365" type="curve" smooth="yes"/>
      <point x="401" y="513"/>
      <point x="346" y="641"/>
      <point x="256" y="726" type="curve"/>
      <point x="197" y="681" type="line"/>
      <point x="280" y="596"/>
      <point x="320" y="490"/>
      <point x="320" y="364" type="curve" smooth="yes"/>
      <point x="320" y="170"/>
      <point x="239" y="4"/>
      <point x="36" y="-131" type="curve"/>
    </contour>
  </outline>
</glyph>
<glyph name="asterisk" format="1">
  <advance width="600"/>
  <unicode hex="002A"/>
  <outline>
    <contour>
      <point x="143" y="113" type="line"/>
      <point x="292" y="259" type="line"/>
      <point x="387" y="106" type="line"/>
      <point x="435" y="134" type="line"/>
      <point x="360" y="299" type="line"/>
      <point x="531" y="374" type="line"/>
      <point x="517" y="422" type="line"/>
      <point x="349" y="370" type="line"/>
      <point x="372" y="550" type="line"/>
      <point x="319" y="550" type="line"/>
      <point x="273" y="372" type="line"/>
      <point x="120" y="423" type="line"/>
      <point x="96" y="378" type="line"/>
      <point x="234" y="305" type="line"/>
      <point x="104" y="146" type="line"/>
    </contour>
  </outline>
</glyph>
<glyph name="plus" format="1">
  <advance width="600"/>
  <unicode hex="002B"/>
  <outline>
    <contour>
      <point x="270" y="101" type="line"/>
      <point x="338" y="101" type="line"/>
      <point x="338" y="297" type="line"/>
      <point x="516" y="297" type="line"/>
      <point x="516" y="364" type="line"/>
      <point x="338" y="364" type="line"/>
      <point x="338" y="557" type="line"/>
      <point x="270" y="557" type="line"/>
      <point x="270" y="364" type="line"/>
      <point x="91" y="364" type="line"/>
      <point x="91" y="297" type="line"/>
      <point x="270" y="297" type="line"/>
    </contour>
  </outline>
</glyph>
<glyph name="comma" format="1">
  <advance width="600"/>
  <unicode hex="002C"/>
  <outline>
    <contour>
      <point x="105" y="-203" type="line"/>
      <point x="247" y="-170"/>
      <point x="349" y="-66"/>
      <point x="349" y="67" type="curve" smooth="yes"/>
      <point x="349" y="129"/>
      <point x="320" y="164"/>
      <point x="275" y="164" type="curve" smooth="yes"/>
      <point x="222" y="164"/>
      <point x="179" y="122"/>
      <point x="179" y="70" type="curve" smooth="yes"/>
      <point x="179" y="28"/>
      <point x="208" y="1"/>
      <point x="244" y="1" type="curve" smooth="yes"/>
      <point x="267" y="1"/>
      <point x="288" y="11"/>
      <point x="300" y="23" type="curve"/>
      <point x="273" y="79" type="line"/>
      <point x="260" y="9" type="line"/>
      <point x="248" y="-65"/>
      <point x="187" y="-125"/>
      <point x="93" y="-152" type="curve"/>
    </contour>
  </outline>
</glyph>
<glyph name="period" format="1">
  <advance width="600"/>
  <unicode hex="002E"/>
  <outline>
    <contour>
      <point x="240" y="-12" type="curve" smooth="yes"/>
      <point x="296" y="-12"/>
      <point x="339" y="36"/>
      <point x="339" y="91" type="curve" smooth="yes"/>
      <point x="339" y="135"/>
      <point x="311" y="166"/>
      <point x="269" y="166" type="curve" smooth="yes"/>
      <point x="212" y="166"/>
      <point x="170" y="118"/>
      <point x="170" y="63" type="curve" smooth="yes"/>
      <point x="170" y="20"/>
      <point x="197" y="-12"/>
    </contour>
  </outline>
</glyph>
<glyph name="slash" format="1">
  <advance width="600"/>
  <unicode hex="002F"/>
  <outline>
    <contour>
      <point x="7" y="-160" type="line"/>
      <point x="91" y="-160" type="line"/>
      <point x="593" y="710" type="line"/>
      <point x="508" y="710" type="line"/>
    </contour>
  </outline>
</glyph>
<glyph name="zero" format="1">
	<unicode hex="0030"/>
	<advance width="600"/>
	<outline>
		<contour>
			<point x="254" y="-12" type="curve" smooth="yes"/>
			<point x="443" y="-12"/>
			<point x="548" y="200"/>
			<point x="548" y="400" type="curve" smooth="yes"/>
			<point x="548" y="550"/>
			<point x="474" y="649"/>
			<point x="349" y="649" type="curve" smooth="yes"/>
			<point x="160" y="649"/>
			<point x="55" y="436"/>
			<point x="55" y="236" type="curve" smooth="yes"/>
			<point x="55" y="86"/>
			<point x="129" y="-12"/>
		</contour>
		<contour>
			<point x="262" y="61" type="curve" smooth="yes"/>
			<point x="180" y="61"/>
			<point x="141" y="130"/>
			<point x="141" y="244" type="curve" smooth="yes"/>
			<point x="141" y="395"/>
			<point x="214" y="576"/>
			<point x="341" y="576" type="curve" smooth="yes"/>
			<point x="423" y="576"/>
			<point x="462" y="506"/>
			<point x="462" y="392" type="curve" smooth="yes"/>
			<point x="462" y="241"/>
			<point x="389" y="61"/>
		</contour>
		<contour>
			<point x="295" y="257" type="curve" smooth="yes"/>
			<point x="332" y="257"/>
			<point x="362" y="295"/>
			<point x="362" y="339" type="curve" smooth="yes"/>
			<point x="362" y="375"/>
			<point x="343" y="397"/>
			<point x="311" y="397" type="curve" smooth="yes"/>
			<point x="274" y="397"/>
			<point x="244" y="359"/>
			<point x="244" y="315" type="curve" smooth="yes"/>
			<point x="244" y="279"/>
			<point x="263" y="257"/>
		</contour>
	</outline>
</glyph>
<glyph name="one" format="1">
  <advance width="600"/>
  <unicode hex="0031"/>
  <outline>
    <contour>
      <point x="37" y="0" type="line"/>
      <point x="470" y="0" type="line"/>
      <point x="485" y="76" type="line"/>
      <point x="320" y="76" type="line"/>
      <point x="433" y="637" type="line"/>
      <point x="363" y="637" type="line"/>
      <point x="322" y="613"/>
      <point x="263" y="597"/>
      <point x="197" y="588" type="curve"/>
      <point x="185" y="530" type="line"/>
      <point x="319" y="530" type="line"/>
      <point x="228" y="76" type="line"/>
      <point x="52" y="76" type="line"/>
    </contour>
  </outline>
</glyph>
<glyph name="two" format="1">
  <advance width="600"/>
  <unicode hex="0032"/>
  <outline>
    <contour>
      <point x="32" y="0" type="line"/>
      <point x="485" y="0" type="line"/>
      <point x="500" y="78" type="line"/>
      <point x="303" y="78" type="line"/>
      <point x="265" y="78"/>
      <point x="225" y="78"/>
      <point x="185" y="77" type="curve"/>
      <point x="380" y="248"/>
      <point x="503" y="352"/>
      <point x="503" y="487" type="curve" smooth="yes"/>
      <point x="503" y="585"/>
      <point x="437" y="649"/>
      <point x="327" y="649" type="curve" smooth="yes"/>
      <point x="240" y="649"/>
      <point x="171" y="606"/>
      <point x="114" y="548" type="curve"/>
      <point x="162" y="493" type="line"/>
      <point x="208" y="542"/>
      <point x="260" y="574"/>
      <point x="314" y="574" type="curve" smooth="yes"/>
      <point x="381" y="574"/>
      <point x="412" y="537"/>
      <point x="412" y="479" type="curve" smooth="yes"/>
      <point x="412" y="360"/>
      <point x="282" y="254"/>
      <point x="41" y="54" type="curve"/>
    </contour>
  </outline>
</glyph>
<glyph name="three" format="1">
  <advance width="600"/>
  <unicode hex="0033"/>
  <outline>
    <contour>
      <point x="246" y="-12" type="curve" smooth="yes"/>
      <point x="383" y="-12"/>
      <point x="487" y="56"/>
      <point x="487" y="184" type="curve" smooth="yes"/>
      <point x="487" y="252"/>
      <point x="444" y="302"/>
      <point x="359" y="325" type="curve"/>
      <point x="359" y="329" type="line"/>
      <point x="472" y="357"/>
      <point x="520" y="418"/>
      <point x="520" y="504" type="curve" smooth="yes"/>
      <point x="520" y="595"/>
      <point x="444" y="649"/>
      <point x="337" y="649" type="curve" smooth="yes"/>
      <point x="260" y="649"/>
      <point x="193" y="621"/>
      <point x="136" y="576" type="curve"/>
      <point x="179" y="518" type="line"/>
      <point x="223" y="552"/>
      <point x="268" y="574"/>
      <point x="322" y="574" type="curve" smooth="yes"/>
      <point x="384" y="574"/>
      <point x="426" y="543"/>
      <point x="426" y="489" type="curve" smooth="yes"/>
      <point x="426" y="418"/>
      <point x="369" y="363"/>
      <point x="215" y="363" type="curve"/>
      <point x="203" y="295" type="line"/>
      <point x="346" y="293"/>
      <point x="395" y="250"/>
      <point x="395" y="182" type="curve" smooth="yes"/>
      <point x="395" y="106"/>
      <point x="331" y="64"/>
      <point x="247" y="64" type="curve" smooth="yes"/>
      <point x="173" y="64"/>
      <point x="119" y="102"/>
      <point x="86" y="146" type="curve"/>
      <point x="26" y="98" type="line"/>
      <point x="75" y="32"/>
      <point x="150" y="-12"/>
    </contour>
  </outline>
</glyph>
<glyph name="four" format="1">
  <advance width="600"/>
  <unicode hex="0034"/>
  <outline>
    <contour>
      <point x="311" y="0" type="line"/>
      <point x="396" y="0" type="line"/>
      <point x="523" y="637" type="line"/>
      <point x="420" y="637" type="line"/>
      <point x="29" y="234" type="line"/>
      <point x="17" y="172" type="line"/>
      <point x="524" y="172" type="line"/>
      <point x="540" y="245" type="line"/>
      <point x="134" y="245" type="line"/>
      <point x="338" y="452" type="line" smooth="yes"/>
      <point x="366" y="483"/>
      <point x="393" y="517"/>
      <point x="420" y="549" type="curve"/>
      <point x="423" y="549" type="line"/>
      <point x="414" y="514"/>
      <point x="404" y="471"/>
      <point x="396" y="431" type="curve" smooth="yes"/>
    </contour>
  </outline>
</glyph>
<glyph name="five" format="1">
  <advance width="600"/>
  <unicode hex="0035"/>
  <outline>
    <contour>
      <point x="241" y="-12" type="curve" smooth="yes"/>
      <point x="376" y="-12"/>
      <point x="501" y="79"/>
      <point x="501" y="235" type="curve" smooth="yes"/>
      <point x="501" y="351"/>
      <point x="424" y="404"/>
      <point x="322" y="404" type="curve" smooth="yes"/>
      <point x="274" y="404"/>
      <point x="240" y="392"/>
      <point x="203" y="377" type="curve"/>
      <point x="249" y="559" type="line"/>
      <point x="525" y="559" type="line"/>
      <point x="540" y="637" type="line"/>
      <point x="184" y="637" type="line"/>
      <point x="108" y="325" type="line"/>
      <point x="147" y="294" type="line"/>
      <point x="199" y="320"/>
      <point x="233" y="333"/>
      <point x="288" y="333" type="curve" smooth="yes"/>
      <point x="363" y="333"/>
      <point x="408" y="295"/>
      <point x="408" y="219" type="curve" smooth="yes"/>
      <point x="408" y="118"/>
      <point x="327" y="64"/>
      <point x="242" y="64" type="curve" smooth="yes"/>
      <point x="168" y="64"/>
      <point x="113" y="100"/>
      <point x="78" y="147" type="curve"/>
      <point x="19" y="98" type="line"/>
      <point x="67" y="31"/>
      <point x="144" y="-12"/>
    </contour>
  </outline>
</glyph>
<glyph name="eight" format="1">
  <advance width="600"/>
  <unicode hex="0038"/>
  <outline>
    <contour>
      <point x="261" y="-12" type="curve" smooth="yes"/>
      <point x="400" y="-12"/>
      <point x="495" y="61"/>
      <point x="495" y="177" type="curve" smooth="yes"/>
      <point x="495" y="251"/>
      <point x="443" y="294"/>
      <point x="406" y="320" type="curve"/>
      <point x="406" y="324" type="line"/>
      <point x="484" y="363"/>
      <point x="532" y="420"/>
      <point x="532" y="504" type="curve" smooth="yes"/>
      <point x="532" y="600"/>
      <point x="451" y="649"/>
      <point x="353" y="649" type="curve" smooth="yes"/>
      <point x="237" y="649"/>
      <point x="146" y="585"/>
      <point x="146" y="476" type="curve" smooth="yes"/>
      <point x="146" y="422"/>
      <point x="172" y="384"/>
      <point x="213" y="343" type="curve"/>
      <point x="213" y="339" type="line"/>
      <point x="116" y="299"/>
      <point x="58" y="241"/>
      <point x="58" y="147" type="curve" smooth="yes"/>
      <point x="58" y="46"/>
      <point x="142" y="-12"/>
    </contour>
    <contour>
      <point x="355" y="349" type="curve"/>
      <point x="288" y="381"/>
      <point x="228" y="421"/>
      <point x="228" y="482" type="curve" smooth="yes"/>
      <point x="228" y="545"/>
      <point x="283" y="581"/>
      <point x="346" y="581" type="curve" smooth="yes"/>
      <point x="406" y="581"/>
      <point x="451" y="549"/>
      <point x="451" y="489" type="curve" smooth="yes"/>
      <point x="451" y="431"/>
      <point x="413" y="381"/>
    </contour>
    <contour>
      <point x="267" y="56" type="curve" smooth="yes"/>
      <point x="201" y="56"/>
      <point x="141" y="92"/>
      <point x="141" y="164" type="curve" smooth="yes"/>
      <point x="141" y="229"/>
      <point x="187" y="273"/>
      <point x="256" y="310" type="curve"/>
      <point x="337" y="267"/>
      <point x="409" y="233"/>
      <point x="409" y="165" type="curve" smooth="yes"/>
      <point x="409" y="92"/>
      <point x="342" y="56"/>
    </contour>
  </outline>
</glyph>
<glyph name="nine" format="1">
  <advance width="600"/>
  <unicode hex="0039"/>
  <outline>
    <contour>
      <point x="210" y="-12" type="curve" smooth="yes"/>
      <point x="385" y="-12"/>
      <point x="539" y="139"/>
      <point x="539" y="418" type="curve" smooth="yes"/>
      <point x="539" y="559"/>
      <point x="453" y="649"/>
      <point x="327" y="649" type="curve" smooth="yes"/>
      <point x="190" y="649"/>
      <point x="89" y="538"/>
      <point x="89" y="408" type="curve" smooth="yes"/>
      <point x="89" y="290"/>
      <point x="170" y="240"/>
      <point x="261" y="240" type="curve" smooth="yes"/>
      <point x="333" y="240"/>
      <point x="408" y="281"/>
      <point x="452" y="336" type="curve"/>
      <point x="458" y="406" type="line"/>
      <point x="405" y="338"/>
      <point x="345" y="306"/>
      <point x="284" y="306" type="curve" smooth="yes"/>
      <point x="224" y="306"/>
      <point x="175" y="341"/>
      <point x="175" y="418" type="curve" smooth="yes"/>
      <point x="175" y="497"/>
      <point x="232" y="578"/>
      <point x="322" y="578" type="curve" smooth="yes"/>
      <point x="397" y="578"/>
      <point x="452" y="524"/>
      <point x="452" y="423" type="curve" smooth="yes"/>
      <point x="452" y="174"/>
      <point x="331" y="64"/>
      <point x="216" y="64" type="curve" smooth="yes"/>
      <point x="167" y="64"/>
      <point x="130" y="81"/>
      <point x="99" y="123" type="curve"/>
      <point x="40" y="74" type="line"/>
      <point x="72" y="27"/>
      <point x="131" y="-12"/>
    </contour>
  </outline>
</glyph>
<glyph name="less" format="1">
  <advance width="600"/>
  <unicode hex="003C"/>
  <outline>
    <contour>
      <point x="443" y="46" type="line"/>
      <point x="443" y="132" type="line"/>
      <point x="147" y="330" type="line"/>
      <point x="147" y="334" type="line"/>
      <point x="443" y="532" type="line"/>
      <point x="443" y="618" type="line"/>
      <point x="69" y="366" type="line"/>
      <point x="69" y="298" type="line"/>
    </contour>
  </outline>
</glyph>
<glyph name="question" format="1">
  <advance width="600"/>
  <unicode hex="003F"/>
  <outline>
    <contour>
      <point x="222" y="238" type="curve"/>
      <point x="300" y="238" type="line"/>
      <point x="304" y="304"/>
      <point x="342" y="332"/>
      <point x="395" y="374" type="curve" smooth="yes"/>
      <point x="459" y="423"/>
      <point x="523" y="466"/>
      <point x="523" y="555" type="curve" smooth="yes"/>
      <point x="523" y="634"/>
      <point x="461" y="682"/>
      <point x="367" y="682" type="curve" smooth="yes"/>
      <point x="282" y="682"/>
      <point x="220" y="645"/>
      <point x="171" y="586" type="curve"/>
      <point x="221" y="540" type="line"/>
      <point x="261" y="582"/>
      <point x="298" y="606"/>
      <point x="351" y="606" type="curve" smooth="yes"/>
      <point x="405" y="606"/>
      <point x="431" y="577"/>
      <point x="431" y="536" type="curve" smooth="yes"/>
      <point x="431" y="487"/>
      <point x="393" y="459"/>
      <point x="343" y="420" type="curve" smooth="yes"/>
      <point x="286" y="377"/>
      <point x="224" y="328"/>
    </contour>
    <contour>
      <point x="225" y="-12" type="curve" smooth="yes"/>
      <point x="275" y="-12"/>
      <point x="314" y="32"/>
      <point x="314" y="81" type="curve" smooth="yes"/>
      <point x="314" y="121"/>
      <point x="288" y="149"/>
      <point x="251" y="149" type="curve" smooth="yes"/>
      <point x="200" y="149"/>
      <point x="161" y="105"/>
      <point x="161" y="55" type="curve" smooth="yes"/>
      <point x="161" y="16"/>
      <point x="187" y="-12"/>
    </contour>
  </outline>
</glyph>
<glyph name="at" format="1">
  <advance width="600"/>
  <unicode hex="0040"/>
  <outline>
    <contour>
      <point x="248" y="-144" type="curve" smooth="yes"/>
      <point x="322" y="-144"/>
      <point x="386" y="-126"/>
      <point x="444" y="-86" type="curve"/>
      <point x="416" y="-34" type="line"/>
      <point x="370" y="-64"/>
      <point x="324" y="-85"/>
      <point x="260" y="-85" type="curve" smooth="yes"/>
      <point x="155" y="-85"/>
      <point x="93" y="3"/>
      <point x="93" y="157" type="curve" smooth="yes"/>
      <point x="93" y="427"/>
      <point x="256" y="578"/>
      <point x="404" y="578" type="curve" smooth="yes"/>
      <point x="505" y="578"/>
      <point x="522" y="505"/>
      <point x="503" y="407" type="curve" smooth="yes"/>
      <point x="500" y="387" type="line"/>
      <point x="298" y="364"/>
      <point x="204" y="306"/>
      <point x="204" y="191" type="curve" smooth="yes"/>
      <point x="204" y="125"/>
      <point x="244" y="88"/>
      <point x="306" y="88" type="curve" smooth="yes"/>
      <point x="361" y="88"/>
      <point x="418" y="117"/>
      <point x="455" y="157" type="curve"/>
      <point x="458" y="157" type="line"/>
      <point x="454" y="100" type="line"/>
      <point x="506" y="100" type="line"/>
      <point x="566" y="404" type="line" smooth="yes"/>
      <point x="595" y="549"/>
      <point x="549" y="637"/>
      <point x="414" y="637" type="curve" smooth="yes"/>
      <point x="210" y="637"/>
      <point x="23" y="455"/>
      <point x="23" y="150" type="curve" smooth="yes"/>
      <point x="23" y="-41"/>
      <point x="114" y="-144"/>
    </contour>
    <contour>
      <point x="337" y="149" type="curve" smooth="yes"/>
      <point x="299" y="149"/>
      <point x="278" y="170"/>
      <point x="278" y="208" type="curve" smooth="yes"/>
      <point x="278" y="272"/>
      <point x="336" y="313"/>
      <point x="484" y="334" type="curve"/>
      <point x="458" y="207" type="line"/>
      <point x="417" y="170"/>
      <point x="376" y="149"/>
    </contour>
  </outline>
</glyph>
<glyph name="A" format="1">
  <advance width="600"/>
  <unicode hex="0041"/>
  <outline>
    <contour>
      <point x="372" y="677" type="move" name="aboveUC"/>
    </contour>
    <contour>
      <point x="434" y="0" type="move" name="ogonekUC"/>
    </contour>
    <contour>
      <point x="250" y="-22" type="move" name="belowLC"/>
    </contour>
    <contour>
      <point x="-28" y="0" type="line"/>
      <point x="74" y="0" type="line"/>
      <point x="259" y="373" type="line" smooth="yes"/>
      <point x="293" y="443"/>
      <point x="324" y="510"/>
      <point x="358" y="580" type="curve"/>
      <point x="363" y="580" type="line"/>
      <point x="369" y="510"/>
      <point x="374" y="439"/>
      <point x="380" y="371" type="curve" smooth="yes"/>
      <point x="411" y="0" type="line"/>
      <point x="508" y="0" type="line"/>
      <point x="431" y="655" type="line"/>
      <point x="322" y="655" type="line"/>
    </contour>
    <contour>
      <point x="133" y="194" type="line"/>
      <point x="427" y="194" type="line"/>
      <point x="441" y="266" type="line"/>
      <point x="150" y="266" type="line"/>
    </contour>
  </outline>
</glyph>
<glyph name="B" format="1">
  <advance width="600"/>
  <unicode hex="0042"/>
  <outline>
    <contour>
      <point x="374" y="677" type="move" name="aboveUC"/>
    </contour>
    <contour>
      <point x="250" y="-22" type="move" name="belowLC"/>
    </contour>
    <contour>
      <point x="37" y="0" type="line"/>
      <point x="249" y="0" type="line" smooth="yes"/>
      <point x="404" y="0"/>
      <point x="524" y="63"/>
      <point x="524" y="211" type="curve" smooth="yes"/>
      <point x="524" y="283"/>
      <point x="474" y="325"/>
      <point x="405" y="341" type="curve"/>
      <point x="406" y="345" type="line"/>
      <point x="482" y="364"/>
      <point x="551" y="424"/>
      <point x="551" y="509" type="curve" smooth="yes"/>
      <point x="551" y="606"/>
      <point x="475" y="655"/>
      <point x="344" y="655" type="curve" smooth="yes"/>
      <point x="169" y="655" type="line"/>
    </contour>
    <contour>
      <point x="206" y="377" type="line"/>
      <point x="247" y="582" type="line"/>
      <point x="323" y="582" type="line" smooth="yes"/>
      <point x="419" y="582"/>
      <point x="456" y="550"/>
      <point x="456" y="495" type="curve" smooth="yes"/>
      <point x="456" y="425"/>
      <point x="403" y="377"/>
      <point x="287" y="377" type="curve" smooth="yes"/>
    </contour>
    <contour>
      <point x="144" y="73" type="line"/>
      <point x="193" y="311" type="line"/>
      <point x="295" y="311" type="line" smooth="yes"/>
      <point x="385" y="311"/>
      <point x="433" y="269"/>
      <point x="433" y="206" type="curve" smooth="yes"/>
      <point x="433" y="114"/>
      <point x="361" y="73"/>
      <point x="245" y="73" type="curve" smooth="yes"/>
    </contour>
  </outline>
</glyph>
<glyph name="C" format="1">
  <advance width="600"/>
  <unicode hex="0043"/>
  <outline>
    <contour>
      <point x="312" y="-12" type="curve" smooth="yes"/>
      <point x="393" y="-12"/>
      <point x="456" y="25"/>
      <point x="503" y="65" type="curve"/>
      <point x="461" y="125" type="line"/>
      <point x="421" y="90"/>
      <point x="378" y="68"/>
      <point x="329" y="68" type="curve" smooth="yes"/>
      <point x="218" y="68"/>
      <point x="170" y="148"/>
      <point x="170" y="263" type="curve" smooth="yes"/>
      <point x="170" y="418"/>
      <point x="267" y="587"/>
      <point x="411" y="587" type="curve" smooth="yes"/>
      <point x="458" y="587"/>
      <point x="491" y="561"/>
      <point x="516" y="519" type="curve"/>
      <point x="581" y="568" type="line"/>
      <point x="547" y="627"/>
      <point x="491" y="667"/>
      <point x="416" y="667" type="curve" smooth="yes"/>
      <point x="215" y="667"/>
      <point x="75" y="466"/>
      <point x="75" y="255" type="curve" smooth="yes"/>
      <point x="75" y="94"/>
      <point x="162" y="-12"/>
    </contour>
    <contour>
      <point x="410" y="675" type="move" name="aboveUC"/>
    </contour>
    <contour>
      <point x="294" y="0" type="move" name="baseLC"/>
    </contour>
    <contour>
      <point x="292" y="-20" type="move" name="belowLC"/>
    </contour>
  </outline>
</glyph>
<glyph name="E" format="1">
  <advance width="600"/>
  <unicode hex="0045"/>
  <outline>
    <contour>
      <point x="55" y="0" type="line"/>
      <point x="473" y="0" type="line"/>
      <point x="489" y="78" type="line"/>
      <point x="163" y="78" type="line"/>
      <point x="209" y="304" type="line"/>
      <point x="473" y="304" type="line"/>
      <point x="489" y="382" type="line"/>
      <point x="224" y="382" type="line"/>
      <point x="262" y="577" type="line"/>
      <point x="579" y="577" type="line"/>
      <point x="595" y="655" type="line"/>
      <point x="186" y="655" type="line"/>
    </contour>
    <contour>
      <point x="402" y="675" type="move" name="aboveUC"/>
    </contour>
    <contour>
      <point x="369" y="0" type="move" name="ogonekUC"/>
    </contour>
    <contour>
      <point x="285" y="0" type="move" name="baseLC"/>
    </contour>
    <contour>
      <point x="275" y="-20" type="move" name="belowLC"/>
    </contour>
  </outline>
</glyph>
<glyph name="F" format="1">
  <advance width="600"/>
  <unicode hex="0046"/>
  <outline>
    <contour>
      <point x="413" y="677" type="move" name="aboveUC"/>
    </contour>
    <contour>
      <point x="126" y="-22" type="move" name="belowLC"/>
    </contour>
    <contour>
      <point x="73" y="0" type="line"/>
      <point x="166" y="0" type="line"/>
      <point x="224" y="288" type="line"/>
      <point x="483" y="288" type="line"/>
      <point x="499" y="367" type="line"/>
      <point x="239" y="367" type="line"/>
      <point x="280" y="577" type="line"/>
      <point x="592" y="577" type="line"/>
      <point x="608" y="655" type="line"/>
      <point x="204" y="655" type="line"/>
    </contour>
  </outline>
</glyph>
<glyph name="G" format="1">
  <advance width="600"/>
  <unicode hex="0047"/>
  <outline>
    <contour>
      <point x="298" y="-12" type="curve" smooth="yes"/>
      <point x="375" y="-12"/>
      <point x="441" y="16"/>
      <point x="489" y="55" type="curve"/>
      <point x="547" y="346" type="line"/>
      <point x="335" y="346" type="line"/>
      <point x="320" y="270" type="line"/>
      <point x="448" y="270" type="line"/>
      <point x="414" y="103" type="line"/>
      <point x="390" y="83"/>
      <point x="355" y="67"/>
      <point x="313" y="67" type="curve" smooth="yes"/>
      <point x="197" y="67"/>
      <point x="153" y="150"/>
      <point x="153" y="263" type="curve" smooth="yes"/>
      <point x="153" y="418"/>
      <point x="248" y="587"/>
      <point x="397" y="587" type="curve" smooth="yes"/>
      <point x="448" y="587"/>
      <point x="482" y="560"/>
      <point x="507" y="519" type="curve"/>
      <point x="572" y="568" type="line"/>
      <point x="538" y="626"/>
      <point x="482" y="667"/>
      <point x="402" y="667" type="curve" smooth="yes"/>
      <point x="194" y="667"/>
      <point x="57" y="468"/>
      <point x="57" y="255" type="curve" smooth="yes"/>
      <point x="57" y="92"/>
      <point x="143" y="-12"/>
    </contour>
    <contour>
      <point x="394" y="675" type="move" name="aboveUC"/>
    </contour>
    <contour>
      <point x="297" y="-20" type="move" name="belowLC"/>
    </contour>
  </outline>
</glyph>
<glyph name="I" format="1">
  <advance width="600"/>
  <unicode hex="0049"/>
  <outline>
    <contour>
      <point x="373" y="677" type="move" name="aboveUC"/>
    </contour>
    <contour>
      <point x="218" y="0" type="move" name="ogonekUC"/>
    </contour>
    <contour>
      <point x="234" y="-22" type="move" name="belowLC"/>
    </contour>
    <contour>
      <point x="30" y="0" type="line"/>
      <point x="444" y="0" type="line"/>
      <point x="461" y="78" type="line"/>
      <point x="299" y="78" type="line"/>
      <point x="399" y="577" type="line"/>
      <point x="561" y="577" type="line"/>
      <point x="577" y="655" type="line"/>
      <point x="162" y="655" type="line"/>
      <point x="145" y="577" type="line"/>
      <point x="306" y="577" type="line"/>
      <point x="206" y="78" type="line"/>
      <point x="46" y="78" type="line"/>
    </contour>
  </outline>
</glyph>
<glyph name="J" format="1">
  <advance width="600"/>
  <unicode hex="004A"/>
  <outline>
    <contour>
      <point x="213" y="-12" type="curve" smooth="yes"/>
      <point x="355" y="-12"/>
      <point x="431" y="72"/>
      <point x="459" y="211" type="curve" smooth="yes"/>
      <point x="548" y="655" type="line"/>
      <point x="185" y="655" type="line"/>
      <point x="170" y="577" type="line"/>
      <point x="440" y="577" type="line"/>
      <point x="371" y="231" type="line" smooth="yes"/>
      <point x="349" y="120"/>
      <point x="303" y="68"/>
      <point x="215" y="68" type="curve" smooth="yes"/>
      <point x="153" y="68"/>
      <point x="111" y="100"/>
      <point x="80" y="148" type="curve"/>
      <point x="19" y="93" type="line"/>
      <point x="56" y="36"/>
      <point x="118" y="-12"/>
    </contour>
    <contour>
      <point x="375" y="675" type="move" name="aboveUC"/>
    </contour>
    <contour>
      <point x="232" y="-20" type="move" name="belowLC"/>
    </contour>
  </outline>
</glyph>
<glyph name="K" format="1">
  <advance width="600"/>
  <unicode hex="004B"/>
  <outline>
    <contour>
      <point x="623" y="655" type="line"/>
      <point x="519" y="655" type="line"/>
      <point x="197" y="331" type="line"/>
      <point x="193" y="331" type="line"/>
      <point x="259" y="655" type="line"/>
      <point x="166" y="655" type="line"/>
      <point x="35" y="0" type="line"/>
      <point x="127" y="0" type="line"/>
      <point x="168" y="204" type="line"/>
    </contour>
    <contour>
      <point x="278" y="339" type="line"/>
      <point x="418" y="0" type="line"/>
      <point x="523" y="0" type="line"/>
      <point x="346" y="411" type="line"/>
    </contour>
    <contour>
      <point x="385" y="675" type="move" name="aboveUC"/>
    </contour>
    <contour>
      <point x="283" y="-20" type="move" name="belowLC"/>
    </contour>
  </outline>
</glyph>
<glyph name="L" format="1">
  <advance width="600"/>
  <unicode hex="004C"/>
  <outline>
    <contour>
      <point x="90" y="0" type="line"/>
      <point x="500" y="0" type="line"/>
      <point x="516" y="78" type="line"/>
      <point x="199" y="78" type="line"/>
      <point x="314" y="655" type="line"/>
      <point x="221" y="655" type="line"/>
    </contour>
    <contour>
      <point x="273" y="675" type="move" name="aboveUC"/>
    </contour>
    <contour>
      <point x="203" y="340" type="move" name="center"/>
    </contour>
    <contour>
      <point x="311" y="0" type="move" name="baseLC"/>
    </contour>
    <contour>
      <point x="301" y="-20" type="move" name="belowLC"/>
    </contour>
  </outline>
</glyph>
<glyph name="M" format="1">
	<unicode hex="004D"/>
	<advance width="600"/>
	<outline>
		<contour>
			<point x="11" y="0" type="line"/>
			<point x="93" y="0" type="line"/>
			<point x="167" y="360" type="line" smooth="yes"/>
			<point x="175" y="402"/>
			<point x="185" y="491"/>
			<point x="191" y="555" type="curve"/>
			<point x="195" y="555" type="line"/>
			<point x="198" y="536"/>
			<point x="206" y="427"/>
			<point x="208" y="410" type="curve" smooth="yes"/>
			<point x="238" y="177" type="line"/>
			<point x="306" y="177" type="line"/>
			<point x="432" y="417" type="line" smooth="yes"/>
			<point x="449" y="447"/>
			<point x="492" y="537"/>
			<point x="501" y="555" type="curve"/>
			<point x="505" y="555" type="line"/>
			<point x="488" y="499"/>
			<point x="460" y="403"/>
			<point x="449" y="349" type="curve" smooth="yes"/>
			<point x="379" y="0" type="line"/>
			<point x="463" y="0" type="line"/>
			<point x="593" y="655" type="line"/>
			<point x="487" y="655" type="line"/>
			<point x="334" y="372" type="line"/>
			<point x="291" y="276" type="line"/>
			<point x="287" y="276" type="line"/>
			<point x="282" y="374" type="line"/>
			<point x="249" y="655" type="line"/>
			<point x="142" y="655" type="line"/>
		</contour>
		<contour>
			<point name="aboveUC" x="372" y="675" type="move"/>
		</contour>
		<contour>
			<point name="baseLC" x="423" y="0" type="move"/>
		</contour>
		<contour>
			<point name="belowLC" x="234" y="-20" type="move"/>
		</contour>
	</outline>
</glyph>
<glyph name="N" format="1">
  <advance width="600"/>
  <unicode hex="004E"/>
  <outline>
    <contour>
      <point x="21" y="0" type="line"/>
      <point x="110" y="0" type="line"/>
      <point x="173" y="323" type="line" smooth="yes"/>
      <point x="185" y="386"/>
      <point x="195" y="471"/>
      <point x="203" y="538" type="curve"/>
      <point x="207" y="538" type="line"/>
      <point x="241" y="401" type="line"/>
      <point x="363" y="0" type="line"/>
      <point x="456" y="0" type="line"/>
      <point x="587" y="655" type="line"/>
      <point x="498" y="655" type="line"/>
      <point x="433" y="327" type="line" smooth="yes"/>
      <point x="423" y="273"/>
      <point x="412" y="183"/>
      <point x="404" y="117" type="curve"/>
      <point x="400" y="117" type="line"/>
      <point x="366" y="254" type="line"/>
      <point x="247" y="655" type="line"/>
      <point x="152" y="655" type="line"/>
    </contour>
    <contour>
      <point x="370" y="675" type="move" name="aboveUC"/>
    </contour>
    <contour>
      <point x="413" y="0" type="move" name="baseLC"/>
    </contour>
    <contour>
      <point x="249" y="-20" type="move" name="belowLC"/>
    </contour>
  </outline>
</glyph>
<glyph name="O" format="1">
  <advance width="600"/>
  <unicode hex="004F"/>
  <outline>
    <contour>
      <point x="253" y="-12" type="curve" smooth="yes"/>
      <point x="447" y="-12"/>
      <point x="570" y="194"/>
      <point x="570" y="406" type="curve" smooth="yes"/>
      <point x="570" y="564"/>
      <point x="489" y="667"/>
      <point x="356" y="667" type="curve" smooth="yes"/>
      <point x="161" y="667"/>
      <point x="38" y="461"/>
      <point x="38" y="249" type="curve" smooth="yes"/>
      <point x="38" y="91"/>
      <point x="119" y="-12"/>
    </contour>
    <contour>
      <point x="262" y="68" type="curve" smooth="yes"/>
      <point x="175" y="68"/>
      <point x="133" y="134"/>
      <point x="133" y="243" type="curve" smooth="yes"/>
      <point x="133" y="412"/>
      <point x="215" y="587"/>
      <point x="347" y="587" type="curve" smooth="yes"/>
      <point x="434" y="587"/>
      <point x="475" y="521"/>
      <point x="475" y="412" type="curve" smooth="yes"/>
      <point x="475" y="243"/>
      <point x="394" y="68"/>
    </contour>
    <contour>
      <point x="372" y="675" type="move" name="aboveUC"/>
    </contour>
    <contour>
      <point x="366" y="645" type="move" name="hornLC"/>
    </contour>
    <contour>
      <point x="238" y="0" type="move" name="ogonekUC"/>
    </contour>
    <contour>
      <point x="238" y="0" type="move" name="baseLC"/>
    </contour>
  </outline>
</glyph>
<glyph name="Q" format="1">
  <advance width="600"/>
  <unicode hex="0051"/>
  <outline>
    <contour>
      <point x="253" y="-12" type="curve" smooth="yes"/>
      <point x="447" y="-12"/>
      <point x="570" y="194"/>
      <point x="570" y="406" type="curve" smooth="yes"/>
      <point x="570" y="564"/>
      <point x="489" y="667"/>
      <point x="356" y="667" type="curve" smooth="yes"/>
      <point x="161" y="667"/>
      <point x="38" y="461"/>
      <point x="38" y="249" type="curve" smooth="yes"/>
      <point x="38" y="91"/>
      <point x="119" y="-12"/>
    </contour>
    <contour>
      <point x="263" y="65" type="curve" smooth="yes"/>
      <point x="175" y="65"/>
      <point x="133" y="130"/>
      <point x="133" y="243" type="curve" smooth="yes"/>
      <point x="133" y="412"/>
      <point x="215" y="587"/>
      <point x="347" y="587" type="curve" smooth="yes"/>
      <point x="434" y="587"/>
      <point x="475" y="521"/>
      <point x="475" y="412" type="curve" smooth="yes"/>
      <point x="475" y="238"/>
      <point x="394" y="65"/>
    </contour>
    <contour>
      <point x="400" y="-168" type="curve" smooth="yes"/>
      <point x="444" y="-168"/>
      <point x="482" y="-161"/>
      <point x="506" y="-151" type="curve"/>
      <point x="490" y="-77" type="line"/>
      <point x="469" y="-85"/>
      <point x="444" y="-92"/>
      <point x="410" y="-92" type="curve" smooth="yes"/>
      <point x="344" y="-92"/>
      <point x="293" y="-56"/>
      <point x="281" y="16" type="curve"/>
      <point x="188" y="19" type="line"/>
      <point x="215" y="-110"/>
      <point x="297" y="-168"/>
    </contour>
    <contour>
      <point x="372" y="675" type="move" name="aboveUC"/>
    </contour>
  </outline>
</glyph>
<glyph name="R" format="1">
  <advance width="600"/>
  <unicode hex="0052"/>
  <outline>
    <contour>
      <point x="30" y="0" type="line"/>
      <point x="123" y="0" type="line"/>
      <point x="176" y="268" type="line"/>
      <point x="284" y="268" type="line" smooth="yes"/>
      <point x="427" y="268"/>
      <point x="556" y="345"/>
      <point x="556" y="495" type="curve" smooth="yes"/>
      <point x="556" y="611"/>
      <point x="468" y="655"/>
      <point x="344" y="655" type="curve" smooth="yes"/>
      <point x="161" y="655" type="line"/>
    </contour>
    <contour>
      <point x="192" y="343" type="line"/>
      <point x="238" y="581" type="line"/>
      <point x="325" y="581" type="line" smooth="yes"/>
      <point x="415" y="581"/>
      <point x="462" y="553"/>
      <point x="462" y="486" type="curve" smooth="yes"/>
      <point x="462" y="398"/>
      <point x="395" y="343"/>
      <point x="277" y="343" type="curve" smooth="yes"/>
    </contour>
    <contour>
      <point x="271" y="283" type="line"/>
      <point x="379" y="0" type="line"/>
      <point x="483" y="0" type="line"/>
      <point x="350" y="322" type="line"/>
    </contour>
    <contour>
      <point x="370" y="675" type="move" name="aboveUC"/>
    </contour>
    <contour>
      <point x="80" y="0" type="move" name="baseLC"/>
    </contour>
    <contour>
      <point x="260" y="-20" type="move" name="belowLC"/>
    </contour>
  </outline>
</glyph>
<glyph name="S" format="1">
  <advance width="600"/>
  <unicode hex="0053"/>
  <outline>
    <contour>
      <point x="262" y="-12" type="curve" smooth="yes"/>
      <point x="389" y="-12"/>
      <point x="489" y="61"/>
      <point x="489" y="185" type="curve"/>
      <point x="489" y="266"/>
      <point x="443" y="312"/>
      <point x="381" y="351" type="curve" smooth="yes"/>
      <point x="304" y="398" type="line" smooth="yes"/>
      <point x="264" y="421"/>
      <point x="231" y="448"/>
      <point x="231" y="494" type="curve" smooth="yes"/>
      <point x="231" y="545"/>
      <point x="276" y="588"/>
      <point x="339" y="588" type="curve" smooth="yes"/>
      <point x="402" y="588"/>
      <point x="449" y="555"/>
      <point x="481" y="515" type="curve"/>
      <point x="542" y="567" type="line"/>
      <point x="502" y="623"/>
      <point x="429" y="667"/>
      <point x="342" y="667" type="curve" smooth="yes"/>
      <point x="223" y="667"/>
      <point x="136" y="591"/>
      <point x="136" y="487" type="curve" smooth="yes"/>
      <point x="136" y="409"/>
      <point x="186" y="358"/>
      <point x="243" y="324" type="curve" smooth="yes"/>
      <point x="315" y="281" type="line" smooth="yes"/>
      <point x="363" y="253"/>
      <point x="394" y="224"/>
      <point x="394" y="177" type="curve" smooth="yes"/>
      <point x="394" y="110"/>
      <point x="338" y="68"/>
      <point x="262" y="68" type="curve" smooth="yes"/>
      <point x="190" y="68"/>
      <point x="135" y="101"/>
      <point x="96" y="161" type="curve"/>
      <point x="34" y="108" type="line"/>
      <point x="79" y="36"/>
      <point x="155" y="-12"/>
    </contour>
    <contour>
      <point x="357" y="675" type="move" name="aboveUC"/>
    </contour>
    <contour>
      <point x="260" y="0" type="move" name="baseLC"/>
    </contour>
    <contour>
      <point x="260" y="-20" type="move" name="belowLC"/>
    </contour>
  </outline>
</glyph>
<glyph name="U" format="1">
  <advance width="600"/>
  <unicode hex="0055"/>
  <outline>
    <contour>
      <point x="254" y="-12" type="curve" smooth="yes"/>
      <point x="379" y="-12"/>
      <point x="474" y="54"/>
      <point x="513" y="248" type="curve" smooth="yes"/>
      <point x="595" y="655" type="line"/>
      <point x="503" y="655" type="line"/>
      <point x="424" y="256" type="line" smooth="yes"/>
      <point x="396" y="115"/>
      <point x="337" y="68"/>
      <point x="264" y="68" type="curve" smooth="yes"/>
      <point x="189" y="68"/>
      <point x="152" y="117"/>
      <point x="152" y="203" type="curve" smooth="yes"/>
      <point x="152" y="225"/>
      <point x="154" y="249"/>
      <point x="161" y="279" type="curve" smooth="yes"/>
      <point x="236" y="655" type="line"/>
      <point x="143" y="655" type="line"/>
      <point x="68" y="284" type="line" smooth="yes"/>
      <point x="61" y="249"/>
      <point x="59" y="223"/>
      <point x="59" y="195" type="curve" smooth="yes"/>
      <point x="59" y="68"/>
      <point x="127" y="-12"/>
    </contour>
    <contour>
      <point x="372" y="675" type="move" name="aboveUC"/>
    </contour>
    <contour>
      <point x="455" y="665" type="move" name="hornLC"/>
    </contour>
    <contour>
      <point x="238" y="0" type="move" name="ogonekUC"/>
    </contour>
    <contour>
      <point x="238" y="0" type="move" name="baseLC"/>
    </contour>
    <contour>
      <point x="232" y="-20" type="move" name="belowLC"/>
    </contour>
  </outline>
</glyph>
<glyph name="W" format="1">
  <advance width="600"/>
  <unicode hex="0057"/>
  <outline>
    <contour>
      <point x="46" y="0" type="line"/>
      <point x="157" y="0" type="line"/>
      <point x="265" y="256" type="line" smooth="yes"/>
      <point x="282" y="296"/>
      <point x="300" y="344"/>
      <point x="311" y="378" type="curve"/>
      <point x="315" y="378" type="line"/>
      <point x="315" y="346"/>
      <point x="317" y="296"/>
      <point x="319" y="256" type="curve" smooth="yes"/>
      <point x="336" y="0" type="line"/>
      <point x="443" y="0" type="line"/>
      <point x="646" y="656" type="line"/>
      <point x="557" y="656" type="line"/>
      <point x="435" y="229" type="line" smooth="yes"/>
      <point x="429" y="203"/>
      <point x="405" y="110"/>
      <point x="399" y="85" type="curve"/>
      <point x="394" y="85" type="line"/>
      <point x="393" y="133"/>
      <point x="387" y="218"/>
      <point x="383" y="261" type="curve" smooth="yes"/>
      <point x="364" y="476" type="line"/>
      <point x="299" y="476" type="line"/>
      <point x="185" y="226" type="line" smooth="yes"/>
      <point x="175" y="202"/>
      <point x="138" y="109"/>
      <point x="128" y="82" type="curve"/>
      <point x="124" y="82" type="line"/>
      <point x="128" y="107"/>
      <point x="136" y="168"/>
      <point x="141" y="225" type="curve" smooth="yes"/>
      <point x="179" y="656" type="line"/>
      <point x="90" y="656" type="line"/>
    </contour>
    <contour>
      <point x="367" y="675" type="move" name="aboveUC"/>
    </contour>
    <contour>
      <point x="232" y="-20" type="move" name="belowLC"/>
    </contour>
  </outline>
</glyph>
<glyph name="X" format="1">
  <advance width="600"/>
  <unicode hex="0058"/>
  <outline>
    <contour>
      <point x="367" y="677" type="move" name="aboveUC"/>
    </contour>
    <contour>
      <point x="243" y="-22" type="move" name="belowLC"/>
    </contour>
    <contour>
      <point x="219" y="170" type="line"/>
      <point x="239" y="198"/>
      <point x="264" y="237"/>
      <point x="287" y="273" type="curve"/>
      <point x="291" y="273" type="line"/>
      <point x="302" y="243"/>
      <point x="318" y="195"/>
      <point x="327" y="171" type="curve" smooth="yes"/>
      <point x="394" y="0" type="line"/>
      <point x="494" y="0" type="line"/>
      <point x="360" y="329" type="line"/>
      <point x="609" y="656" type="line"/>
      <point x="507" y="656" type="line"/>
      <point x="386" y="494" type="line" smooth="yes"/>
      <point x="371" y="473"/>
      <point x="343" y="426"/>
      <point x="322" y="394" type="curve"/>
      <point x="318" y="394" type="line"/>
      <point x="308" y="424"/>
      <point x="295" y="466"/>
      <point x="285" y="494" type="curve" smooth="yes"/>
      <point x="224" y="656" type="line"/>
      <point x="123" y="656" type="line"/>
      <point x="248" y="345" type="line"/>
      <point x="-11" y="0" type="line"/>
      <point x="91" y="0" type="line"/>
    </contour>
  </outline>
</glyph>
<glyph name="Z" format="1">
  <advance width="600"/>
  <unicode hex="005A"/>
  <outline>
    <contour>
      <point x="132" y="52" type="line"/>
      <point x="577" y="600" type="line"/>
      <point x="589" y="656" type="line"/>
      <point x="139" y="656" type="line"/>
      <point x="123" y="578" type="line"/>
      <point x="511" y="578" type="line"/>
      <point x="477" y="612" type="line"/>
      <point x="26" y="55" type="line"/>
      <point x="14" y="0" type="line"/>
      <point x="485" y="0" type="line"/>
      <point x="502" y="78" type="line"/>
      <point x="107" y="78" type="line"/>
    </contour>
    <contour>
      <point x="360" y="675" type="move" name="aboveUC"/>
    </contour>
    <contour>
      <point x="265" y="-20" type="move" name="belowLC"/>
    </contour>
  </outline>
</glyph>
<glyph name="backslash" format="1">
  <advance width="600"/>
  <unicode hex="005C"/>
  <outline>
    <contour>
      <point x="339" y="-160" type="line"/>
      <point x="413" y="-160" type="line"/>
      <point x="259" y="710" type="line"/>
      <point x="185" y="710" type="line"/>
    </contour>
  </outline>
</glyph>
<glyph name="asciicircum" format="1">
  <advance width="600"/>
  <unicode hex="005E"/>
  <outline>
    <contour>
      <point x="49" y="282" type="line"/>
      <point x="127" y="282" type="line"/>
      <point x="190" y="453" type="line"/>
      <point x="239" y="586" type="line"/>
      <point x="243" y="586" type="line"/>
      <point x="291" y="453" type="line"/>
      <point x="355" y="282" type="line"/>
      <point x="433" y="282" type="line"/>
      <point x="280" y="670" type="line"/>
      <point x="201" y="670" type="line"/>
    </contour>
  </outline>
</glyph>
<glyph name="underscore" format="1">
  <advance width="600"/>
  <unicode hex="005F"/>
  <outline>
    <contour>
      <point x="-29" y="-143" type="line"/>
      <point x="451" y="-143" type="line"/>
      <point x="466" y="-67" type="line"/>
      <point x="-14" y="-67" type="line"/>
    </contour>
  </outline>
</glyph>
<glyph name="a" format="1">
  <advance width="600"/>
  <unicode hex="0061"/>
  <outline>
    <contour>
      <point x="213" y="-12" type="curve" smooth="yes"/>
      <point x="274" y="-12"/>
      <point x="337" y="21"/>
      <point x="387" y="72" type="curve"/>
      <point x="391" y="72" type="line"/>
      <point x="385" y="0" type="line"/>
      <point x="460" y="0" type="line"/>
      <point x="558" y="489" type="line"/>
      <point x="484" y="489" type="line"/>
      <point x="464" y="429" type="line"/>
      <point x="460" y="429" type="line"/>
      <point x="434" y="473"/>
      <point x="383" y="501"/>
      <point x="315" y="501" type="curve" smooth="yes"/>
      <point x="168" y="501"/>
      <point x="48" y="352"/>
      <point x="48" y="176" type="curve" smooth="yes"/>
      <point x="48" y="54"/>
      <point x="113" y="-12"/>
    </contour>
    <contour>
      <point x="244" y="65" type="curve" smooth="yes"/>
      <point x="182" y="65"/>
      <point x="143" y="103"/>
      <point x="143" y="189" type="curve" smooth="yes"/>
      <point x="143" y="314"/>
      <point x="225" y="424"/>
      <point x="328" y="424" type="curve" smooth="yes"/>
      <point x="369" y="424"/>
      <point x="412" y="405"/>
      <point x="442" y="358" type="curve"/>
      <point x="399" y="154" type="line"/>
      <point x="350" y="95"/>
      <point x="292" y="65"/>
    </contour>
    <contour>
      <point x="395" y="0" type="move" name="ogonekLC"/>
    </contour>
    <contour>
      <point x="352" y="510" type="move" name="aboveLC"/>
    </contour>
    <contour>
      <point x="421" y="0" type="move" name="baseLC"/>
    </contour>
    <contour>
      <point x="249" y="-20" type="move" name="belowLC"/>
    </contour>
  </outline>
</glyph>
<glyph name="b" format="1">
  <advance width="600"/>
  <unicode hex="0062"/>
  <outline>
    <contour>
      <point x="274" y="-12" type="curve" smooth="yes"/>
      <point x="424" y="-12"/>
      <point x="541" y="130"/>
      <point x="541" y="308" type="curve" smooth="yes"/>
      <point x="541" y="432"/>
      <point x="478" y="501"/>
      <point x="375" y="501" type="curve" smooth="yes"/>
      <point x="315" y="501"/>
      <point x="252" y="465"/>
      <point x="205" y="420" type="curve"/>
      <point x="202" y="420" type="line"/>
      <point x="228" y="527" type="line"/>
      <point x="265" y="709" type="line"/>
      <point x="173" y="709" type="line"/>
      <point x="31" y="0" type="line"/>
      <point x="107" y="0" type="line"/>
      <point x="126" y="59" type="line"/>
      <point x="129" y="59" type="line"/>
      <point x="158" y="17"/>
      <point x="212" y="-12"/>
    </contour>
    <contour>
      <point x="264" y="65" type="curve" smooth="yes"/>
      <point x="220" y="65"/>
      <point x="179" y="82"/>
      <point x="149" y="128" type="curve"/>
      <point x="190" y="334" type="line"/>
      <point x="238" y="392"/>
      <point x="297" y="424"/>
      <point x="343" y="424" type="curve" smooth="yes"/>
      <point x="405" y="424"/>
      <point x="446" y="383"/>
      <point x="446" y="295" type="curve" smooth="yes"/>
      <point x="446" y="168"/>
      <point x="366" y="65"/>
    </contour>
    <contour>
      <point x="222" y="735" type="move" name="aboveUC"/>
    </contour>
    <contour>
      <point x="250" y="-20" type="move" name="belowLC"/>
    </contour>
  </outline>
</glyph>
<glyph name="c" format="1">
  <advance width="600"/>
  <unicode hex="0063"/>
  <outline>
    <contour>
      <point x="367" y="511" type="move" name="aboveLC"/>
    </contour>
    <contour>
      <point x="275" y="0" type="move" name="baseLC"/>
    </contour>
    <contour>
      <point x="273" y="-22" type="move" name="belowLC"/>
    </contour>
    <contour>
      <point x="286" y="-12" type="curve" smooth="yes"/>
      <point x="360" y="-12"/>
      <point x="438" y="19"/>
      <point x="488" y="66" type="curve"/>
      <point x="452" y="129" type="line"/>
      <point x="409" y="91"/>
      <point x="355" y="65"/>
      <point x="301" y="65" type="curve" smooth="yes"/>
      <point x="217" y="65"/>
      <point x="158" y="113"/>
      <point x="158" y="213" type="curve" smooth="yes"/>
      <point x="158" y="331"/>
      <point x="256" y="424"/>
      <point x="351" y="424" type="curve" smooth="yes"/>
      <point x="409" y="424"/>
      <point x="453" y="403"/>
      <point x="488" y="361" type="curve"/>
      <point x="546" y="413" type="line"/>
      <point x="511" y="459"/>
      <point x="447" y="501"/>
      <point x="361" y="501" type="curve" smooth="yes"/>
      <point x="206" y="501"/>
      <point x="65" y="381"/>
      <point x="65" y="203" type="curve" smooth="yes"/>
      <point x="65" y="60"/>
      <point x="159" y="-12"/>
    </contour>
  </outline>
</glyph>
<glyph name="d" format="1">
  <advance width="600"/>
  <unicode hex="0064"/>
  <outline>
    <contour>
      <point x="213" y="-12" type="curve" smooth="yes"/>
      <point x="274" y="-12"/>
      <point x="337" y="21"/>
      <point x="387" y="72" type="curve"/>
      <point x="391" y="72" type="line"/>
      <point x="385" y="0" type="line"/>
      <point x="460" y="0" type="line"/>
      <point x="604" y="709" type="line"/>
      <point x="511" y="709" type="line"/>
      <point x="475" y="527" type="line"/>
      <point x="460" y="432" type="line"/>
      <point x="457" y="432" type="line"/>
      <point x="430" y="474"/>
      <point x="383" y="501"/>
      <point x="315" y="501" type="curve" smooth="yes"/>
      <point x="168" y="501"/>
      <point x="48" y="352"/>
      <point x="48" y="176" type="curve" smooth="yes"/>
      <point x="48" y="54"/>
      <point x="113" y="-12"/>
    </contour>
    <contour>
      <point x="244" y="65" type="curve" smooth="yes"/>
      <point x="182" y="65"/>
      <point x="143" y="104"/>
      <point x="143" y="189" type="curve" smooth="yes"/>
      <point x="143" y="314"/>
      <point x="225" y="424"/>
      <point x="328" y="424" type="curve" smooth="yes"/>
      <point x="369" y="424"/>
      <point x="412" y="405"/>
      <point x="441" y="358" type="curve"/>
      <point x="399" y="154" type="line"/>
      <point x="350" y="95"/>
      <point x="292" y="65"/>
    </contour>
    <contour>
      <point x="555" y="735" type="move" name="aboveUC"/>
    </contour>
    <contour>
      <point x="249" y="-20" type="move" name="belowLC"/>
    </contour>
  </outline>
</glyph>
<glyph name="e" format="1">
  <advance width="600"/>
  <unicode hex="0065"/>
  <outline>
    <contour>
      <point x="269" y="-12" type="curve" smooth="yes"/>
      <point x="355" y="-12"/>
      <point x="432" y="19"/>
      <point x="484" y="58" type="curve"/>
      <point x="450" y="121" type="line"/>
      <point x="405" y="86"/>
      <point x="351" y="61"/>
      <point x="289" y="61" type="curve" smooth="yes"/>
      <point x="207" y="61"/>
      <point x="151" y="109"/>
      <point x="151" y="205" type="curve" smooth="yes"/>
      <point x="151" y="343"/>
      <point x="248" y="428"/>
      <point x="334" y="428" type="curve" smooth="yes"/>
      <point x="401" y="428"/>
      <point x="442" y="386"/>
      <point x="442" y="314" type="curve" smooth="yes"/>
      <point x="442" y="300"/>
      <point x="440" y="285"/>
      <point x="436" y="271" type="curve"/>
      <point x="470" y="285" type="line"/>
      <point x="140" y="285" type="line"/>
      <point x="129" y="224" type="line"/>
      <point x="514" y="224" type="line"/>
      <point x="519" y="238"/>
      <point x="528" y="275"/>
      <point x="528" y="311" type="curve" smooth="yes"/>
      <point x="528" y="422"/>
      <point x="460" y="501"/>
      <point x="338" y="501" type="curve" smooth="yes"/>
      <point x="190" y="501"/>
      <point x="59" y="377"/>
      <point x="59" y="201" type="curve" smooth="yes"/>
      <point x="59" y="61"/>
      <point x="143" y="-12"/>
    </contour>
    <contour>
      <point x="346" y="0" type="move" name="ogonekLC"/>
    </contour>
    <contour>
      <point x="345" y="510" type="move" name="aboveLC"/>
    </contour>
    <contour>
      <point x="265" y="0" type="move" name="baseLC"/>
    </contour>
    <contour>
      <point x="261" y="-20" type="move" name="belowLC"/>
    </contour>
  </outline>
</glyph>
<glyph name="f" format="1">
  <advance width="600"/>
  <unicode hex="0066"/>
  <outline>
    <contour>
      <point x="212" y="-22" type="move" name="belowLC"/>
    </contour>
    <contour>
      <point x="163" y="0" type="line"/>
      <point x="255" y="0" type="line"/>
      <point x="361" y="532" type="line" smooth="yes"/>
      <point x="378" y="614"/>
      <point x="425" y="647"/>
      <point x="490" y="647" type="curve" smooth="yes"/>
      <point x="530" y="647"/>
      <point x="560" y="635"/>
      <point x="589" y="613" type="curve"/>
      <point x="633" y="671" type="line"/>
      <point x="600" y="699"/>
      <point x="550" y="721"/>
      <point x="487" y="721" type="curve" smooth="yes"/>
      <point x="372" y="721"/>
      <point x="296" y="663"/>
      <point x="270" y="534" type="curve" smooth="yes"/>
    </contour>
    <contour>
      <point x="108" y="415" type="line"/>
      <point x="534" y="415" type="line"/>
      <point x="549" y="489" type="line"/>
      <point x="262" y="489" type="line"/>
      <point x="122" y="484" type="line"/>
    </contour>
  </outline>
</glyph>
<glyph name="g" format="1">
  <advance width="600"/>
  <unicode hex="0067"/>
  <outline>
    <contour>
      <point x="202" y="-212" type="curve" smooth="yes"/>
      <point x="325" y="-212"/>
      <point x="429" y="-157"/>
      <point x="457" y="-16" type="curve" smooth="yes"/>
      <point x="558" y="489" type="line"/>
      <point x="485" y="489" type="line"/>
      <point x="464" y="429" type="line"/>
      <point x="460" y="429" type="line"/>
      <point x="434" y="473"/>
      <point x="383" y="501"/>
      <point x="315" y="501" type="curve" smooth="yes"/>
      <point x="172" y="501"/>
      <point x="51" y="362"/>
      <point x="51" y="190" type="curve" smooth="yes"/>
      <point x="51" y="74"/>
      <point x="117" y="7"/>
      <point x="220" y="7" type="curve" smooth="yes"/>
      <point x="281" y="7"/>
      <point x="343" y="38"/>
      <point x="388" y="81" type="curve"/>
      <point x="392" y="81" type="line"/>
      <point x="370" y="-15" type="line" smooth="yes"/>
      <point x="349" y="-104"/>
      <point x="282" y="-137"/>
      <point x="202" y="-137" type="curve" smooth="yes"/>
      <point x="149" y="-137"/>
      <point x="93" y="-118"/>
      <point x="55" y="-85" type="curve"/>
      <point x="12" y="-150" type="line"/>
      <point x="58" y="-186"/>
      <point x="120" y="-212"/>
    </contour>
    <contour>
      <point x="250" y="83" type="curve" smooth="yes"/>
      <point x="185" y="83"/>
      <point x="146" y="122"/>
      <point x="146" y="204" type="curve" smooth="yes"/>
      <point x="146" y="325"/>
      <point x="232" y="424"/>
      <point x="327" y="424" type="curve" smooth="yes"/>
      <point x="371" y="424"/>
      <point x="410" y="404"/>
      <point x="441" y="357" type="curve"/>
      <point x="400" y="163" type="line"/>
      <point x="353" y="112"/>
      <point x="299" y="83"/>
    </contour>
    <contour>
      <point x="352" y="510" type="move" name="aboveLC"/>
    </contour>
    <contour>
      <point x="218" y="-215" type="move" name="belowLC"/>
    </contour>
  </outline>
</glyph>
<glyph name="h" format="1">
  <advance width="600"/>
  <unicode hex="0068"/>
  <outline>
    <contour>
      <point x="31" y="0" type="line"/>
      <point x="123" y="0" type="line"/>
      <point x="185" y="311" type="line"/>
      <point x="246" y="381"/>
      <point x="309" y="421"/>
      <point x="369" y="421" type="curve" smooth="yes"/>
      <point x="414" y="421"/>
      <point x="439" y="397"/>
      <point x="439" y="353" type="curve" smooth="yes"/>
      <point x="439" y="333"/>
      <point x="435" y="313"/>
      <point x="430" y="289" type="curve" smooth="yes"/>
      <point x="372" y="0" type="line"/>
      <point x="465" y="0" type="line"/>
      <point x="525" y="300" type="line" smooth="yes"/>
      <point x="530" y="326"/>
      <point x="534" y="351"/>
      <point x="534" y="378" type="curve" smooth="yes"/>
      <point x="534" y="454"/>
      <point x="493" y="501"/>
      <point x="408" y="501" type="curve" smooth="yes"/>
      <point x="327" y="501"/>
      <point x="258" y="452"/>
      <point x="201" y="395" type="curve"/>
      <point x="197" y="395" type="line"/>
      <point x="214" y="462" type="line"/>
      <point x="265" y="709" type="line"/>
      <point x="173" y="709" type="line"/>
    </contour>
    <contour>
      <point x="220" y="735" type="move" name="aboveUC"/>
    </contour>
    <contour>
      <point x="78" y="0" type="move" name="baseLC"/>
    </contour>
    <contour>
      <point x="254" y="-20" type="move" name="belowLC"/>
    </contour>
  </outline>
</glyph>
<glyph name="j" format="1">
  <advance width="600"/>
  <unicode hex="006A"/>
  <outline>
    <contour>
      <point x="377" y="720" type="move" name="aboveLC"/>
    </contour>
    <contour>
      <point x="172" y="-214" type="move" name="belowLC"/>
    </contour>
    <component base="dotlessj"/>
    <component base="dotaccentcmb" xOffset="56"/>
  </outline>
</glyph>
<glyph name="k" format="1">
  <advance width="600"/>
  <unicode hex="006B"/>
  <outline>
    <contour>
      <point x="229" y="730" type="move" name="aboveUC"/>
    </contour>
    <contour>
      <point x="277" y="-22" type="move" name="belowLC"/>
    </contour>
    <contour>
      <point x="42" y="0" type="line"/>
      <point x="134" y="0" type="line"/>
      <point x="159" y="125" type="line"/>
      <point x="334" y="266" type="line"/>
      <point x="591" y="489" type="line"/>
      <point x="481" y="489" type="line"/>
      <point x="187" y="244" type="line"/>
      <point x="183" y="244" type="line"/>
      <point x="276" y="709" type="line"/>
      <point x="184" y="709" type="line"/>
    </contour>
    <contour>
      <point x="293" y="250" type="line"/>
      <point x="418" y="0" type="line"/>
      <point x="513" y="0" type="line"/>
      <point x="353" y="312" type="line"/>
    </contour>
  </outline>
</glyph>
<glyph name="l" format="1">
  <advance width="600"/>
  <unicode hex="006C"/>
  <outline>
    <contour>
      <point x="325" y="-12" type="curve" smooth="yes"/>
      <point x="375" y="-12"/>
      <point x="420" y="-2"/>
      <point x="465" y="20" type="curve"/>
      <point x="444" y="90" type="line"/>
      <point x="409" y="73"/>
      <point x="383" y="65"/>
      <point x="351" y="65" type="curve" smooth="yes"/>
      <point x="310" y="65"/>
      <point x="282" y="85"/>
      <point x="282" y="131" type="curve" smooth="yes"/>
      <point x="282" y="146"/>
      <point x="284" y="160"/>
      <point x="287" y="173" type="curve" smooth="yes"/>
      <point x="400" y="709" type="line"/>
      <point x="153" y="709" type="line"/>
      <point x="137" y="636" type="line"/>
      <point x="294" y="636" type="line"/>
      <point x="197" y="180" type="line" smooth="yes"/>
      <point x="192" y="159"/>
      <point x="190" y="141"/>
      <point x="190" y="124" type="curve" smooth="yes"/>
      <point x="190" y="36"/>
      <point x="246" y="-12"/>
    </contour>
    <contour>
      <point x="352" y="735" type="move" name="aboveUC"/>
    </contour>
    <contour>
      <point x="285" y="381" type="move" name="center"/>
    </contour>
    <contour>
      <point x="324" y="0" type="move" name="baseLC"/>
    </contour>
    <contour>
      <point x="320" y="-20" type="move" name="belowLC"/>
    </contour>
  </outline>
</glyph>
<glyph name="m" format="1">
  <advance width="600"/>
  <unicode hex="006D"/>
  <outline>
    <contour>
      <point x="-5" y="0" type="line"/>
      <point x="81" y="0" type="line"/>
      <point x="149" y="348" type="line"/>
      <point x="183" y="398"/>
      <point x="212" y="421"/>
      <point x="246" y="421" type="curve" smooth="yes"/>
      <point x="269" y="421"/>
      <point x="282" y="410"/>
      <point x="282" y="381" type="curve" smooth="yes"/>
      <point x="282" y="371"/>
      <point x="281" y="361"/>
      <point x="278" y="346" type="curve" smooth="yes"/>
      <point x="207" y="0" type="line"/>
      <point x="282" y="0" type="line"/>
      <point x="352" y="349" type="line"/>
      <point x="385" y="398"/>
      <point x="414" y="421"/>
      <point x="448" y="421" type="curve" smooth="yes"/>
      <point x="470" y="421"/>
      <point x="482" y="410"/>
      <point x="482" y="381" type="curve" smooth="yes"/>
      <point x="482" y="371"/>
      <point x="481" y="361"/>
      <point x="478" y="346" type="curve" smooth="yes"/>
      <point x="408" y="0" type="line"/>
      <point x="493" y="0" type="line"/>
      <point x="566" y="361" type="line" smooth="yes"/>
      <point x="570" y="383"/>
      <point x="572" y="398"/>
      <point x="572" y="415" type="curve" smooth="yes"/>
      <point x="572" y="473"/>
      <point x="543" y="501"/>
      <point x="496" y="501" type="curve" smooth="yes"/>
      <point x="447" y="501"/>
      <point x="397" y="474"/>
      <point x="350" y="408" type="curve"/>
      <point x="362" y="419" type="line"/>
      <point x="360" y="476"/>
      <point x="335" y="501"/>
      <point x="290" y="501" type="curve" smooth="yes"/>
      <point x="238" y="501"/>
      <point x="194" y="470"/>
      <point x="157" y="423" type="curve"/>
      <point x="154" y="423" type="line"/>
      <point x="159" y="489" type="line"/>
      <point x="92" y="489" type="line"/>
    </contour>
    <contour>
      <point x="350" y="509" type="move" name="aboveLC"/>
    </contour>
    <contour>
      <point x="451" y="0" type="move" name="baseLC"/>
    </contour>
    <contour>
      <point x="245" y="-20" type="move" name="belowLC"/>
    </contour>
  </outline>
</glyph>
<glyph name="n" format="1">
  <advance width="600"/>
  <unicode hex="006E"/>
  <outline>
    <contour>
      <point x="31" y="0" type="line"/>
      <point x="123" y="0" type="line"/>
      <point x="185" y="311" type="line"/>
      <point x="246" y="381"/>
      <point x="309" y="421"/>
      <point x="369" y="421" type="curve" smooth="yes"/>
      <point x="414" y="421"/>
      <point x="439" y="397"/>
      <point x="439" y="353" type="curve" smooth="yes"/>
      <point x="439" y="333"/>
      <point x="435" y="313"/>
      <point x="430" y="289" type="curve" smooth="yes"/>
      <point x="372" y="0" type="line"/>
      <point x="465" y="0" type="line"/>
      <point x="525" y="300" type="line" smooth="yes"/>
      <point x="530" y="326"/>
      <point x="534" y="351"/>
      <point x="534" y="378" type="curve" smooth="yes"/>
      <point x="534" y="454"/>
      <point x="493" y="501"/>
      <point x="408" y="501" type="curve" smooth="yes"/>
      <point x="325" y="501"/>
      <point x="252" y="449"/>
      <point x="196" y="393" type="curve"/>
      <point x="192" y="393" type="line"/>
      <point x="203" y="489" type="line"/>
      <point x="128" y="489" type="line"/>
    </contour>
    <contour>
      <point x="352" y="510" type="move" name="aboveLC"/>
    </contour>
    <contour>
      <point x="417" y="0" type="move" name="baseLC"/>
    </contour>
    <contour>
      <point x="254" y="-20" type="move" name="belowLC"/>
    </contour>
  </outline>
</glyph>
<glyph name="o" format="1">
  <advance width="600"/>
  <unicode hex="006F"/>
  <outline>
    <contour>
      <point x="251" y="-12" type="curve" smooth="yes"/>
      <point x="400" y="-12"/>
      <point x="533" y="113"/>
      <point x="533" y="286" type="curve" smooth="yes"/>
      <point x="533" y="414"/>
      <point x="455" y="501"/>
      <point x="325" y="501" type="curve" smooth="yes"/>
      <point x="176" y="501"/>
      <point x="43" y="375"/>
      <point x="43" y="203" type="curve" smooth="yes"/>
      <point x="43" y="75"/>
      <point x="121" y="-12"/>
    </contour>
    <contour>
      <point x="258" y="65" type="curve" smooth="yes"/>
      <point x="182" y="65"/>
      <point x="136" y="119"/>
      <point x="136" y="208" type="curve" smooth="yes"/>
      <point x="136" y="329"/>
      <point x="223" y="424"/>
      <point x="318" y="424" type="curve" smooth="yes"/>
      <point x="394" y="424"/>
      <point x="439" y="370"/>
      <point x="439" y="281" type="curve" smooth="yes"/>
      <point x="439" y="159"/>
      <point x="353" y="65"/>
    </contour>
    <contour>
      <point x="352" y="489" type="move" name="hornLC"/>
    </contour>
    <contour>
      <point x="339" y="510" type="move" name="aboveLC"/>
    </contour>
    <contour>
      <point x="239" y="0" type="move" name="ogonekLC"/>
    </contour>
    <contour>
      <point x="239" y="0" type="move" name="baseLC"/>
    </contour>
    <contour>
      <point x="234" y="-20" type="move" name="belowLC"/>
    </contour>
  </outline>
</glyph>
<glyph name="q" format="1">
  <advance width="600"/>
  <unicode hex="0071"/>
  <outline>
    <contour>
      <point x="329" y="-200" type="line"/>
      <point x="420" y="-200" type="line"/>
      <point x="558" y="489" type="line"/>
      <point x="485" y="489" type="line"/>
      <point x="464" y="429" type="line"/>
      <point x="460" y="429" type="line"/>
      <point x="434" y="473"/>
      <point x="383" y="501"/>
      <point x="315" y="501" type="curve" smooth="yes"/>
      <point x="168" y="501"/>
      <point x="48" y="352"/>
      <point x="48" y="176" type="curve" smooth="yes"/>
      <point x="48" y="54"/>
      <point x="113" y="-12"/>
      <point x="213" y="-12" type="curve" smooth="yes"/>
      <point x="273" y="-12"/>
      <point x="337" y="21"/>
      <point x="387" y="72" type="curve"/>
      <point x="391" y="72" type="line"/>
      <point x="380" y="47"/>
      <point x="363" y="-34"/>
      <point x="361" y="-45" type="curve" smooth="yes"/>
    </contour>
    <contour>
      <point x="244" y="65" type="curve" smooth="yes"/>
      <point x="182" y="65"/>
      <point x="143" y="104"/>
      <point x="143" y="189" type="curve" smooth="yes"/>
      <point x="143" y="314"/>
      <point x="225" y="424"/>
      <point x="328" y="424" type="curve" smooth="yes"/>
      <point x="369" y="424"/>
      <point x="412" y="405"/>
      <point x="441" y="358" type="curve"/>
      <point x="399" y="154" type="line"/>
      <point x="350" y="95"/>
      <point x="292" y="65"/>
    </contour>
    <contour>
      <point x="354" y="510" type="move" name="aboveLC"/>
    </contour>
    <contour>
      <point x="370" y="-215" type="move" name="belowLC"/>
    </contour>
  </outline>
</glyph>
<glyph name="u" format="1">
	<unicode hex="0075"/>
	<advance width="600"/>
	<outline>
		<contour>
			<point x="178" y="-12" type="curve" smooth="yes"/>
			<point x="260" y="-12"/>
			<point x="331" y="40"/>
			<point x="387" y="95" type="curve"/>
			<point x="391" y="95" type="line"/>
			<point x="380" y="0" type="line"/>
			<point x="456" y="0" type="line"/>
			<point x="553" y="489" type="line"/>
			<point x="460" y="489" type="line"/>
			<point x="398" y="177" type="line"/>
			<point x="337" y="108"/>
			<point x="276" y="67"/>
			<point x="216" y="67" type="curve" smooth="yes"/>
			<point x="171" y="67"/>
			<point x="146" y="92"/>
			<point x="146" y="136" type="curve" smooth="yes"/>
			<point x="146" y="156"/>
			<point x="150" y="176"/>
			<point x="155" y="200" type="curve" smooth="yes"/>
			<point x="213" y="489" type="line"/>
			<point x="121" y="489" type="line"/>
			<point x="61" y="189" type="line" smooth="yes"/>
			<point x="55" y="163"/>
			<point x="52" y="138"/>
			<point x="52" y="111" type="curve" smooth="yes"/>
			<point x="52" y="35"/>
			<point x="92" y="-12"/>
		</contour>
		<contour>
			<point name="ogonekLC" x="390" y="0" type="move"/>
		</contour>
		<contour>
			<point name="aboveLC" x="336" y="510" type="move"/>
		</contour>
		<contour>
			<point name="baseLC" x="418" y="0" type="move"/>
		</contour>
		<contour>
			<point name="belowLC" x="248" y="-20" type="move"/>
		</contour>
	</outline>
</glyph>
<glyph name="v" format="1">
  <advance width="600"/>
  <unicode hex="0076"/>
  <outline>
    <contour>
      <point x="330" y="511" type="move" name="aboveLC"/>
    </contour>
    <contour>
      <point x="240" y="-22" type="move" name="belowLC"/>
    </contour>
    <contour>
      <point x="188" y="0" type="line"/>
      <point x="296" y="0" type="line"/>
      <point x="587" y="489" type="line"/>
      <point x="494" y="489" type="line"/>
      <point x="337" y="217" type="line" smooth="yes"/>
      <point x="308" y="167"/>
      <point x="280" y="117"/>
      <point x="257" y="71" type="curve"/>
      <point x="253" y="71" type="line"/>
      <point x="245" y="118"/>
      <point x="238" y="168"/>
      <point x="228" y="216" type="curve" smooth="yes"/>
      <point x="174" y="489" type="line"/>
      <point x="83" y="489" type="line"/>
    </contour>
  </outline>
</glyph>
<glyph name="w" format="1">
  <advance width="600"/>
  <unicode hex="0077"/>
  <outline>
    <contour>
      <point x="330" y="511" type="move" name="aboveLC"/>
    </contour>
    <contour>
      <point x="240" y="-22" type="move" name="belowLC"/>
    </contour>
    <contour>
      <point x="51" y="0" type="line"/>
      <point x="161" y="0" type="line"/>
      <point x="260" y="235" type="line" smooth="yes"/>
      <point x="279" y="287"/>
      <point x="294" y="327"/>
      <point x="311" y="377" type="curve"/>
      <point x="314" y="377" type="line"/>
      <point x="314" y="326"/>
      <point x="312" y="283"/>
      <point x="312" y="237" type="curve" smooth="yes"/>
      <point x="319" y="0" type="line"/>
      <point x="426" y="0" type="line"/>
      <point x="622" y="489" type="line"/>
      <point x="535" y="489" type="line"/>
      <point x="429" y="213" type="line" smooth="yes"/>
      <point x="412" y="166"/>
      <point x="397" y="121"/>
      <point x="380" y="75" type="curve"/>
      <point x="376" y="75" type="line"/>
      <point x="376" y="121"/>
      <point x="375" y="166"/>
      <point x="374" y="213" type="curve" smooth="yes"/>
      <point x="365" y="453" type="line"/>
      <point x="292" y="453" type="line"/>
      <point x="188" y="213" type="line" smooth="yes"/>
      <point x="168" y="167"/>
      <point x="151" y="121"/>
      <point x="134" y="75" type="curve"/>
      <point x="130" y="75" type="line"/>
      <point x="131" y="121"/>
      <point x="133" y="167"/>
      <point x="134" y="214" type="curve" smooth="yes"/>
      <point x="136" y="489" type="line"/>
      <point x="47" y="489" type="line"/>
    </contour>
  </outline>
</glyph>
<glyph name="x" format="1">
	<unicode hex="0078"/>
	<advance width="600"/>
	<outline>
		<contour>
			<point x="4" y="0" type="line"/>
			<point x="110" y="0" type="line"/>
			<point x="208" y="113" type="line" smooth="yes"/>
			<point x="217" y="124"/>
			<point x="264" y="178"/>
			<point x="273" y="192" type="curve"/>
			<point x="279" y="192" type="line"/>
			<point x="285" y="179"/>
			<point x="316" y="121"/>
			<point x="320" y="109" type="curve" smooth="yes"/>
			<point x="379" y="0" type="line"/>
			<point x="476" y="0" type="line"/>
			<point x="340" y="246" type="line"/>
			<point x="561" y="489" type="line"/>
			<point x="455" y="489" type="line"/>
			<point x="365" y="384" type="line" smooth="yes"/>
			<point x="358" y="375"/>
			<point x="309" y="311"/>
			<point x="303" y="301" type="curve"/>
			<point x="299" y="301" type="line"/>
			<point x="295" y="312"/>
			<point x="266" y="373"/>
			<point x="261" y="384" type="curve" smooth="yes"/>
			<point x="207" y="489" type="line"/>
			<point x="113" y="489" type="line"/>
			<point x="236" y="254" type="line"/>
		</contour>
		<contour>
			<point name="aboveLC" x="330" y="510" type="move"/>
		</contour>
		<contour>
			<point name="baseLC" x="425" y="0" type="move"/>
		</contour>
		<contour>
			<point name="belowLC" x="243" y="-20" type="move"/>
		</contour>
	</outline>
</glyph>
<glyph name="y" format="1">
  <advance width="600"/>
  <unicode hex="0079"/>
  <outline>
    <contour>
      <point x="36" y="-205" type="curve" smooth="yes"/>
      <point x="139" y="-205"/>
      <point x="200" y="-154"/>
      <point x="266" y="-42" type="curve" smooth="yes"/>
      <point x="588" y="489" type="line"/>
      <point x="493" y="489" type="line"/>
      <point x="342" y="231" type="line" smooth="yes"/>
      <point x="317" y="187"/>
      <point x="283" y="124"/>
      <point x="261" y="81" type="curve"/>
      <point x="257" y="81" type="line"/>
      <point x="250" y="124"/>
      <point x="238" y="187"/>
      <point x="229" y="231" type="curve" smooth="yes"/>
      <point x="172" y="489" type="line"/>
      <point x="83" y="489" type="line"/>
      <point x="201" y="-1" type="line"/>
      <point x="174" y="-44" type="line" smooth="yes"/>
      <point x="133" y="-110"/>
      <point x="100" y="-135"/>
      <point x="42" y="-135" type="curve" smooth="yes"/>
      <point x="21" y="-135"/>
      <point x="-1" y="-129"/>
      <point x="-17" y="-121" type="curve"/>
      <point x="-45" y="-186" type="line"/>
      <point x="-25" y="-198"/>
      <point x="4" y="-205"/>
    </contour>
    <contour>
      <point x="126" y="-147" type="move" name="ogonekLC"/>
    </contour>
    <contour>
      <point x="330" y="510" type="move" name="aboveLC"/>
    </contour>
    <contour>
      <point x="191" y="-215" type="move" name="belowLC"/>
    </contour>
  </outline>
</glyph>
<glyph name="braceright" format="1">
  <advance width="600"/>
  <unicode hex="007D"/>
  <outline>
    <contour>
      <point x="409" y="616" type="curve" smooth="yes"/>
      <point x="409" y="679"/>
      <point x="364" y="708"/>
      <point x="288" y="708" type="curve" smooth="yes"/>
      <point x="182" y="708" type="line"/>
      <point x="171" y="656" type="line"/>
      <point x="251" y="656" type="line" smooth="yes"/>
      <point x="302" y="656"/>
      <point x="332" y="638"/>
      <point x="332" y="600" type="curve" smooth="yes"/>
      <point x="332" y="542"/>
      <point x="282" y="421"/>
      <point x="282" y="357" type="curve" smooth="yes"/>
      <point x="282" y="319"/>
      <point x="301" y="290"/>
      <point x="345" y="283" type="curve"/>
      <point x="344" y="279" type="line"/>
      <point x="286" y="269"/>
      <point x="255" y="233"/>
      <point x="241" y="165" type="curve" smooth="yes"/>
      <point x="230" y="104"/>
      <point x="223" y="45"/>
      <point x="212" y="-10" type="curve" smooth="yes"/>
      <point x="199" y="-73"/>
      <point x="157" y="-100"/>
      <point x="102" y="-100" type="curve" smooth="yes"/>
      <point x="21" y="-100" type="line"/>
      <point x="10" y="-152" type="line"/>
      <point x="117" y="-152" type="line" smooth="yes"/>
      <point x="205" y="-152"/>
      <point x="263" y="-120"/>
      <point x="285" y="-15" type="curve" smooth="yes"/>
      <point x="299" y="54"/>
      <point x="301" y="107"/>
      <point x="314" y="170" type="curve" smooth="yes"/>
      <point x="322" y="208"/>
      <point x="351" y="249"/>
      <point x="472" y="249" type="curve"/>
      <point x="485" y="307" type="line"/>
      <point x="373" y="307"/>
      <point x="355" y="340"/>
      <point x="355" y="373" type="curve" smooth="yes"/>
      <point x="355" y="425"/>
      <point x="409" y="546"/>
    </contour>
  </outline>
</glyph>
<glyph name="asciitilde" format="1">
  <advance width="600"/>
  <unicode hex="007E"/>
  <outline>
    <contour>
      <point x="386" y="256" type="curve" smooth="yes"/>
      <point x="429" y="256"/>
      <point x="476" y="283"/>
      <point x="511" y="349" type="curve"/>
      <point x="461" y="381" type="line"/>
      <point x="440" y="340"/>
      <point x="417" y="322"/>
      <point x="389" y="322" type="curve" smooth="yes"/>
      <point x="336" y="322"/>
      <point x="294" y="406"/>
      <point x="220" y="406" type="curve" smooth="yes"/>
      <point x="177" y="406"/>
      <point x="130" y="379"/>
      <point x="95" y="313" type="curve"/>
      <point x="145" y="281" type="line"/>
      <point x="166" y="322"/>
      <point x="189" y="340"/>
      <point x="217" y="340" type="curve" smooth="yes"/>
      <point x="270" y="340"/>
      <point x="312" y="256"/>
    </contour>
  </outline>
</glyph>
<glyph name="cent" format="1">
  <advance width="600"/>
  <unicode hex="00A2"/>
  <outline>
    <contour>
      <point x="287" y="66" type="curve" smooth="yes"/>
      <point x="357" y="66"/>
      <point x="422" y="96"/>
      <point x="471" y="138" type="curve"/>
      <point x="436" y="196" type="line"/>
      <point x="400" y="168"/>
      <point x="359" y="143"/>
      <point x="306" y="143" type="curve" smooth="yes"/>
      <point x="232" y="143"/>
      <point x="187" y="190"/>
      <point x="187" y="272" type="curve" smooth="yes"/>
      <point x="187" y="390"/>
      <point x="269" y="477"/>
      <point x="379" y="477" type="curve" smooth="yes"/>
      <point x="427" y="477"/>
      <point x="451" y="458"/>
      <point x="476" y="431" type="curve"/>
      <point x="529" y="484" type="line"/>
      <point x="502" y="516"/>
      <point x="455" y="552"/>
      <point x="390" y="552" type="curve" smooth="yes"/>
      <point x="230" y="552"/>
      <point x="96" y="445"/>
      <point x="96" y="263" type="curve" smooth="yes"/>
      <point x="96" y="141"/>
      <point x="173" y="66"/>
    </contour>
    <contour>
      <point x="230" y="-39" type="line"/>
      <point x="286" y="-39" type="line"/>
      <point x="427" y="654" type="line"/>
      <point x="373" y="654" type="line"/>
    </contour>
  </outline>
</glyph>
<glyph name="sterling" format="1">
  <advance width="600"/>
  <unicode hex="00A3"/>
  <outline>
    <contour>
      <point x="20" y="0" type="line"/>
      <point x="456" y="0" type="line"/>
      <point x="472" y="78" type="line"/>
      <point x="171" y="78" type="line"/>
      <point x="172" y="82" type="line"/>
      <point x="241" y="132"/>
      <point x="274" y="190"/>
      <point x="274" y="279" type="curve" smooth="yes"/>
      <point x="273" y="325"/>
      <point x="263" y="382"/>
      <point x="263" y="425" type="curve" smooth="yes"/>
      <point x="263" y="530"/>
      <point x="315" y="575"/>
      <point x="390" y="575" type="curve" smooth="yes"/>
      <point x="439" y="575"/>
      <point x="473" y="550"/>
      <point x="498" y="512" type="curve"/>
      <point x="559" y="561" type="line"/>
      <point x="524" y="611"/>
      <point x="467" y="649"/>
      <point x="391" y="649" type="curve" smooth="yes"/>
      <point x="265" y="649"/>
      <point x="177" y="572"/>
      <point x="177" y="435" type="curve" smooth="yes"/>
      <point x="177" y="386"/>
      <point x="190" y="318"/>
      <point x="190" y="267" type="curve" smooth="yes"/>
      <point x="190" y="178"/>
      <point x="138" y="102"/>
      <point x="31" y="56" type="curve"/>
    </contour>
    <contour>
      <point x="73" y="285" type="line"/>
      <point x="441" y="285" type="line"/>
      <point x="452" y="343" type="line"/>
      <point x="186" y="343" type="line"/>
      <point x="85" y="338" type="line"/>
    </contour>
  </outline>
</glyph>
<glyph name="currency" format="1">
  <advance width="600"/>
  <unicode hex="00A4"/>
  <outline>
    <contour>
      <point x="67" y="80" type="line"/>
      <point x="163" y="165" type="line"/>
      <point x="190" y="144"/>
      <point x="225" y="134"/>
      <point x="263" y="134" type="curve" smooth="yes"/>
      <point x="306" y="134"/>
      <point x="347" y="146"/>
      <point x="381" y="166" type="curve"/>
      <point x="452" y="74" type="line"/>
      <point x="510" y="123" type="line"/>
      <point x="442" y="210" type="line"/>
      <point x="480" y="250"/>
      <point x="503" y="304"/>
      <point x="503" y="364" type="curve" smooth="yes"/>
      <point x="503" y="392"/>
      <point x="498" y="418"/>
      <point x="488" y="439" type="curve"/>
      <point x="589" y="523" type="line"/>
      <point x="545" y="577" type="line"/>
      <point x="443" y="492" type="line"/>
      <point x="416" y="514"/>
      <point x="380" y="525"/>
      <point x="341" y="525" type="curve" smooth="yes"/>
      <point x="298" y="525"/>
      <point x="257" y="513"/>
      <point x="223" y="492" type="curve"/>
      <point x="155" y="579" type="line"/>
      <point x="95" y="528" type="line"/>
      <point x="161" y="447" type="line"/>
      <point x="123" y="407"/>
      <point x="100" y="353"/>
      <point x="100" y="294" type="curve" smooth="yes"/>
      <point x="100" y="262"/>
      <point x="107" y="235"/>
      <point x="117" y="213" type="curve"/>
      <point x="20" y="131" type="line"/>
    </contour>
    <contour>
      <point x="276" y="202" type="curve" smooth="yes"/>
      <point x="217" y="202"/>
      <point x="185" y="242"/>
      <point x="185" y="304" type="curve" smooth="yes"/>
      <point x="185" y="393"/>
      <point x="255" y="459"/>
      <point x="329" y="459" type="curve" smooth="yes"/>
      <point x="384" y="459"/>
      <point x="419" y="420"/>
      <point x="419" y="356" type="curve" smooth="yes"/>
      <point x="419" y="265"/>
      <point x="349" y="202"/>
    </contour>
  </outline>
</glyph>
<glyph name="yen" format="1">
  <advance width="600"/>
  <unicode hex="00A5"/>
  <outline>
    <contour>
      <point x="195" y="0" type="line"/>
      <point x="287" y="0" type="line"/>
      <point x="340" y="276" type="line"/>
      <point x="616" y="638" type="line"/>
      <point x="517" y="638" type="line"/>
      <point x="398" y="471" type="line" smooth="yes"/>
      <point x="368" y="426"/>
      <point x="335" y="376"/>
      <point x="309" y="331" type="curve"/>
      <point x="305" y="331" type="line"/>
      <point x="293" y="379"/>
      <point x="279" y="427"/>
      <point x="265" y="471" type="curve" smooth="yes"/>
      <point x="211" y="638" type="line"/>
      <point x="118" y="638" type="line"/>
      <point x="249" y="281" type="line"/>
    </contour>
    <contour>
      <point x="45" y="154" type="line"/>
      <point x="497" y="154" type="line"/>
      <point x="508" y="201" type="line"/>
      <point x="56" y="201" type="line"/>
    </contour>
    <contour>
      <point x="68" y="268" type="line"/>
      <point x="519" y="268" type="line"/>
      <point x="530" y="316" type="line"/>
      <point x="79" y="316" type="line"/>
    </contour>
  </outline>
</glyph>
<glyph name="section" format="1">
  <advance width="600"/>
  <unicode hex="00A7"/>
  <outline>
    <contour>
      <point x="233" y="-62" type="curve" smooth="yes"/>
      <point x="332" y="-62"/>
      <point x="404" y="-4"/>
      <point x="404" y="88" type="curve" smooth="yes"/>
      <point x="404" y="168"/>
      <point x="336" y="206"/>
      <point x="271" y="244" type="curve" smooth="yes"/>
      <point x="213" y="277"/>
      <point x="184" y="301"/>
      <point x="184" y="346" type="curve" smooth="yes"/>
      <point x="184" y="399"/>
      <point x="227" y="426"/>
      <point x="277" y="443" type="curve"/>
      <point x="240" y="488" type="line"/>
      <point x="166" y="463"/>
      <point x="103" y="413"/>
      <point x="103" y="332" type="curve" smooth="yes"/>
      <point x="103" y="258"/>
      <point x="151" y="217"/>
      <point x="217" y="180" type="curve" smooth="yes"/>
      <point x="271" y="149"/>
      <point x="320" y="125"/>
      <point x="320" y="78" type="curve" smooth="yes"/>
      <point x="320" y="36"/>
      <point x="283" y="9"/>
      <point x="234" y="9" type="curve" smooth="yes"/>
      <point x="185" y="9"/>
      <point x="141" y="38"/>
      <point x="106" y="76" type="curve"/>
      <point x="57" y="20" type="line"/>
      <point x="105" y="-33"/>
      <point x="168" y="-62"/>
    </contour>
    <contour>
      <point x="367" y="132" type="line"/>
      <point x="446" y="163"/>
      <point x="497" y="205"/>
      <point x="497" y="290" type="curve" smooth="yes"/>
      <point x="497" y="372"/>
      <point x="434" y="415"/>
      <point x="372" y="453" type="curve" smooth="yes"/>
      <point x="316" y="487"/>
      <point x="279" y="508"/>
      <point x="279" y="551" type="curve" smooth="yes"/>
      <point x="279" y="592"/>
      <point x="311" y="614"/>
      <point x="352" y="614" type="curve" smooth="yes"/>
      <point x="395" y="614"/>
      <point x="427" y="589"/>
      <point x="454" y="557" type="curve"/>
      <point x="507" y="607" type="line"/>
      <point x="467" y="652"/>
      <point x="414" y="686"/>
      <point x="353" y="686" type="curve" smooth="yes"/>
      <point x="261" y="686"/>
      <point x="194" y="627"/>
      <point x="194" y="543" type="curve" smooth="yes"/>
      <point x="194" y="461"/>
      <point x="258" y="426"/>
      <point x="325" y="386" type="curve" smooth="yes"/>
      <point x="374" y="357"/>
      <point x="415" y="328"/>
      <point x="415" y="277" type="curve" smooth="yes"/>
      <point x="415" y="221"/>
      <point x="378" y="197"/>
      <point x="323" y="181" type="curve"/>
    </contour>
  </outline>
</glyph>
<glyph name="copyright" format="1">
  <advance width="600"/>
  <unicode hex="00A9"/>
  <outline>
    <contour>
      <point x="235" y="-10" type="curve" smooth="yes"/>
      <point x="436" y="-10"/>
      <point x="583" y="159"/>
      <point x="583" y="399" type="curve" smooth="yes"/>
      <point x="583" y="556"/>
      <point x="499" y="653"/>
      <point x="370" y="654" type="curve" smooth="yes"/>
      <point x="176" y="655"/>
      <point x="23" y="489"/>
      <point x="23" y="247" type="curve" smooth="yes"/>
      <point x="23" y="90"/>
      <point x="107" y="-10"/>
    </contour>
    <contour>
      <point x="244" y="34" type="curve" smooth="yes"/>
      <point x="135" y="34"/>
      <point x="72" y="119"/>
      <point x="72" y="252" type="curve" smooth="yes"/>
      <point x="72" y="458"/>
      <point x="199" y="609"/>
      <point x="361" y="609" type="curve" smooth="yes"/>
      <point x="471" y="609"/>
      <point x="534" y="524"/>
      <point x="534" y="394" type="curve" smooth="yes"/>
      <point x="534" y="190"/>
      <point x="406" y="34"/>
    </contour>
    <contour>
      <point x="280" y="129" type="curve" smooth="yes"/>
      <point x="329" y="129"/>
      <point x="374" y="150"/>
      <point x="405" y="179" type="curve"/>
      <point x="377" y="225" type="line"/>
      <point x="352" y="204"/>
      <point x="328" y="189"/>
      <point x="293" y="189" type="curve" smooth="yes"/>
      <point x="248" y="190"/>
      <point x="223" y="224"/>
      <point x="223" y="284" type="curve" smooth="yes"/>
      <point x="223" y="382"/>
      <point x="284" y="456"/>
      <point x="351" y="456" type="curve" smooth="yes"/>
      <point x="380" y="456"/>
      <point x="396" y="446"/>
      <point x="414" y="421" type="curve"/>
      <point x="457" y="459" type="line"/>
      <point x="436" y="491"/>
      <point x="405" y="515"/>
      <point x="356" y="515" type="curve" smooth="yes"/>
      <point x="251" y="515"/>
      <point x="152" y="425"/>
      <point x="152" y="280" type="curve" smooth="yes"/>
      <point x="152" y="186"/>
      <point x="202" y="129"/>
    </contour>
  </outline>
</glyph>
<glyph name="logicalnot" format="1">
  <advance width="600"/>
  <unicode hex="00AC"/>
  <outline>
    <contour>
      <point x="443" y="101" type="line"/>
      <point x="513" y="101" type="line"/>
      <point x="513" y="364" type="line"/>
      <point x="96" y="364" type="line"/>
      <point x="96" y="297" type="line"/>
      <point x="443" y="297" type="line"/>
    </contour>
  </outline>
</glyph>
<glyph name="registered" format="1">
  <advance width="600"/>
  <unicode hex="00AE"/>
  <outline>
    <contour>
      <point x="310" y="318" type="curve" smooth="yes"/>
      <point x="447" y="318"/>
      <point x="543" y="417"/>
      <point x="543" y="552" type="curve" smooth="yes"/>
      <point x="543" y="648"/>
      <point x="478" y="714"/>
      <point x="389" y="714" type="curve" smooth="yes"/>
      <point x="255" y="714"/>
      <point x="155" y="614"/>
      <point x="155" y="480" type="curve" smooth="yes"/>
      <point x="155" y="384"/>
      <point x="219" y="318"/>
    </contour>
    <contour>
      <point x="318" y="355" type="curve" smooth="yes"/>
      <point x="244" y="355"/>
      <point x="196" y="405"/>
      <point x="196" y="484" type="curve" smooth="yes"/>
      <point x="196" y="594"/>
      <point x="279" y="678"/>
      <point x="381" y="678" type="curve" smooth="yes"/>
      <point x="453" y="678"/>
      <point x="501" y="627"/>
      <point x="501" y="547" type="curve" smooth="yes"/>
      <point x="501" y="437"/>
      <point x="421" y="355"/>
    </contour>
    <contour>
      <point x="256" y="417" type="line"/>
      <point x="299" y="417" type="line"/>
      <point x="333" y="592" type="line"/>
      <point x="324" y="586" type="line"/>
      <point x="360" y="586" type="line" smooth="yes"/>
      <point x="384" y="586"/>
      <point x="394" y="574"/>
      <point x="394" y="558" type="curve" smooth="yes"/>
      <point x="394" y="533"/>
      <point x="375" y="517"/>
      <point x="344" y="517" type="curve" smooth="yes"/>
      <point x="306" y="517" type="line"/>
      <point x="300" y="485" type="line"/>
      <point x="342" y="485" type="line" smooth="yes"/>
      <point x="402" y="485"/>
      <point x="440" y="517"/>
      <point x="440" y="562" type="curve" smooth="yes"/>
      <point x="440" y="604"/>
      <point x="410" y="619"/>
      <point x="373" y="619" type="curve" smooth="yes"/>
      <point x="296" y="619" type="line"/>
    </contour>
    <contour>
      <point x="343" y="490" type="line"/>
      <point x="374" y="417" type="line"/>
      <point x="420" y="417" type="line"/>
      <point x="384" y="499" type="line"/>
    </contour>
  </outline>
</glyph>
<glyph name="degree" format="1">
  <advance width="600"/>
  <unicode hex="00B0"/>
  <outline>
    <contour>
      <point x="321" y="425" type="curve" smooth="yes"/>
      <point x="408" y="425"/>
      <point x="478" y="485"/>
      <point x="478" y="578" type="curve" smooth="yes"/>
      <point x="478" y="644"/>
      <point x="435" y="685"/>
      <point x="372" y="685" type="curve" smooth="yes"/>
      <point x="288" y="685"/>
      <point x="216" y="625"/>
      <point x="216" y="531" type="curve" smooth="yes"/>
      <point x="216" y="466"/>
      <point x="262" y="425"/>
    </contour>
    <contour>
      <point x="331" y="473" type="curve" smooth="yes"/>
      <point x="292" y="473"/>
      <point x="271" y="500"/>
      <point x="271" y="539" type="curve" smooth="yes"/>
      <point x="271" y="593"/>
      <point x="311" y="638"/>
      <point x="364" y="638" type="curve" smooth="yes"/>
      <point x="403" y="638"/>
      <point x="423" y="612"/>
      <point x="423" y="572" type="curve" smooth="yes"/>
      <point x="423" y="517"/>
      <point x="383" y="473"/>
    </contour>
  </outline>
</glyph>
<glyph name="plusminus" format="1">
	<unicode hex="00B1"/>
	<advance width="600"/>
	<outline>
		<contour>
			<point x="264" y="132" type="line"/>
			<point x="336" y="132" type="line"/>
			<point x="336" y="302" type="line"/>
			<point x="517" y="302" type="line"/>
			<point x="517" y="371" type="line"/>
			<point x="336" y="371" type="line"/>
			<point x="336" y="558" type="line"/>
			<point x="264" y="558" type="line"/>
			<point x="264" y="371" type="line"/>
			<point x="83" y="371" type="line"/>
			<point x="83" y="302" type="line"/>
			<point x="264" y="302" type="line"/>
		</contour>
		<contour>
			<point x="83" y="0" type="line"/>
			<point x="517" y="0" type="line"/>
			<point x="517" y="69" type="line"/>
			<point x="83" y="69" type="line"/>
		</contour>
	</outline>
</glyph>
<glyph name="Eth" format="1">
  <advance width="600"/>
  <unicode hex="00D0"/>
  <outline>
    <contour>
      <point x="327" y="320" type="line"/>
      <point x="338" y="370" type="line"/>
      <point x="102" y="370" type="line"/>
      <point x="31" y="366" type="line"/>
      <point x="21" y="320" type="line"/>
    </contour>
    <component base="D" xOffset="14"/>
  </outline>
</glyph>
<glyph name="multiply" format="1">
  <advance width="600"/>
  <unicode hex="00D7"/>
  <outline>
    <contour>
      <point x="158" y="130" type="line"/>
      <point x="306" y="284" type="line"/>
      <point x="454" y="130" type="line"/>
      <point x="501" y="177" type="line"/>
      <point x="353" y="331" type="line"/>
      <point x="501" y="484" type="line"/>
      <point x="454" y="531" type="line"/>
      <point x="306" y="378" type="line"/>
      <point x="158" y="531" type="line"/>
      <point x="111" y="484" type="line"/>
      <point x="259" y="331" type="line"/>
      <point x="111" y="177" type="line"/>
    </contour>
  </outline>
</glyph>
<glyph name="Oslash" format="1">
  <advance width="600"/>
  <unicode hex="00D8"/>
  <outline>
    <contour>
      <point x="251" y="-12" type="curve" smooth="yes"/>
      <point x="446" y="-12"/>
      <point x="570" y="195"/>
      <point x="568" y="411" type="curve" smooth="yes"/>
      <point x="567" y="569"/>
      <point x="487" y="667"/>
      <point x="357" y="667" type="curve" smooth="yes"/>
      <point x="172" y="667"/>
      <point x="37" y="478"/>
      <point x="39" y="244" type="curve" smooth="yes"/>
      <point x="40" y="86"/>
      <point x="121" y="-12"/>
    </contour>
    <contour>
      <point x="259" y="68" type="curve" smooth="yes"/>
      <point x="179" y="68"/>
      <point x="132" y="131"/>
      <point x="131" y="236" type="curve" smooth="yes"/>
      <point x="130" y="436"/>
      <point x="229" y="587"/>
      <point x="348" y="587" type="curve" smooth="yes"/>
      <point x="428" y="587"/>
      <point x="474" y="526"/>
      <point x="476" y="418" type="curve" smooth="yes"/>
      <point x="478" y="239"/>
      <point x="390" y="68"/>
    </contour>
    <contour>
      <point x="27" y="-31" type="line"/>
      <point x="628" y="653" type="line"/>
      <point x="584" y="687" type="line"/>
      <point x="-18" y="3" type="line"/>
    </contour>
    <contour>
      <point x="370" y="675" type="move" name="aboveUC"/>
    </contour>
  </outline>
</glyph>
<glyph name="Thorn" format="1">
  <advance width="600"/>
  <unicode hex="00DE"/>
  <outline>
    <contour>
      <point x="38" y="0" type="line"/>
      <point x="130" y="0" type="line"/>
      <point x="159" y="144" type="line"/>
      <point x="264" y="144" type="line" smooth="yes"/>
      <point x="430" y="144"/>
      <point x="556" y="215"/>
      <point x="556" y="381" type="curve" smooth="yes"/>
      <point x="556" y="498"/>
      <point x="473" y="545"/>
      <point x="354" y="545" type="curve" smooth="yes"/>
      <point x="240" y="545" type="line"/>
      <point x="262" y="655" type="line"/>
      <point x="169" y="655" type="line"/>
    </contour>
    <contour>
      <point x="175" y="218" type="line"/>
      <point x="224" y="470" type="line"/>
      <point x="329" y="470" type="line" smooth="yes"/>
      <point x="416" y="470"/>
      <point x="463" y="440"/>
      <point x="463" y="368" type="curve" smooth="yes"/>
      <point x="463" y="270"/>
      <point x="396" y="218"/>
      <point x="270" y="218" type="curve" smooth="yes"/>
    </contour>
  </outline>
</glyph>
<glyph name="germandbls" format="1">
	<unicode hex="00DF"/>
	<advance width="600"/>
	<outline>
		<contour>
			<point x="353" y="-12" type="curve" smooth="yes"/>
			<point x="463" y="-12"/>
			<point x="535" y="57"/>
			<point x="535" y="146" type="curve"/>
			<point x="535" y="271"/>
			<point x="388" y="294"/>
			<point x="388" y="364" type="curve" smooth="yes"/>
			<point x="388" y="438"/>
			<point x="516" y="464"/>
			<point x="516" y="585" type="curve" smooth="yes"/>
			<point x="516" y="677"/>
			<point x="445" y="721"/>
			<point x="356" y="721" type="curve" smooth="yes"/>
			<point x="234" y="721"/>
			<point x="153" y="639"/>
			<point x="128" y="514" type="curve" smooth="yes"/>
			<point x="25" y="0" type="line"/>
			<point x="117" y="0" type="line"/>
			<point x="216" y="495" type="line" smooth="yes"/>
			<point x="235" y="592"/>
			<point x="284" y="647"/>
			<point x="352" y="647" type="curve" smooth="yes"/>
			<point x="405" y="647"/>
			<point x="426" y="617"/>
			<point x="426" y="574" type="curve" smooth="yes"/>
			<point x="426" y="473"/>
			<point x="297" y="448"/>
			<point x="297" y="347" type="curve"/>
			<point x="297" y="245"/>
			<point x="448" y="226"/>
			<point x="448" y="137" type="curve"/>
			<point x="448" y="91"/>
			<point x="405" y="59"/>
			<point x="352" y="59" type="curve" smooth="yes"/>
			<point x="309" y="59"/>
			<point x="279" y="75"/>
			<point x="247" y="102" type="curve"/>
			<point x="208" y="39" type="line"/>
			<point x="251" y="2"/>
			<point x="303" y="-12"/>
		</contour>
	</outline>
</glyph>
<glyph name="ae" format="1">
  <advance width="600"/>
  <unicode hex="00E6"/>
  <outline>
    <contour>
      <point x="91" y="-12" type="curve" smooth="yes"/>
      <point x="151" y="-12"/>
      <point x="215" y="19"/>
      <point x="274" y="87" type="curve"/>
      <point x="249" y="135" type="line"/>
      <point x="211" y="90"/>
      <point x="157" y="60"/>
      <point x="118" y="60" type="curve" smooth="yes"/>
      <point x="86" y="60"/>
      <point x="64" y="79"/>
      <point x="64" y="117" type="curve" smooth="yes"/>
      <point x="64" y="191"/>
      <point x="133" y="231"/>
      <point x="270" y="254" type="curve"/>
      <point x="276" y="313" type="line"/>
      <point x="78" y="284"/>
      <point x="-22" y="221"/>
      <point x="-22" y="99" type="curve" smooth="yes"/>
      <point x="-22" y="31"/>
      <point x="19" y="-12"/>
    </contour>
    <contour>
      <point x="304" y="221" type="line"/>
      <point x="576" y="221" type="line"/>
      <point x="584" y="242"/>
      <point x="599" y="286"/>
      <point x="599" y="346" type="curve" smooth="yes"/>
      <point x="599" y="429"/>
      <point x="564" y="500"/>
      <point x="483" y="500" type="curve" smooth="yes"/>
      <point x="422" y="500"/>
      <point x="362" y="467"/>
      <point x="319" y="399" type="curve"/>
      <point x="332" y="395" type="line"/>
      <point x="327" y="458"/>
      <point x="285" y="500"/>
      <point x="220" y="500" type="curve" smooth="yes"/>
      <point x="151" y="500"/>
      <point x="92" y="472"/>
      <point x="51" y="440" type="curve"/>
      <point x="83" y="384" type="line"/>
      <point x="115" y="407"/>
      <point x="156" y="428"/>
      <point x="198" y="428" type="curve" smooth="yes"/>
      <point x="259" y="428"/>
      <point x="279" y="378"/>
      <point x="262" y="308" type="curve" smooth="yes"/>
      <point x="246" y="246"/>
      <point x="241" y="207"/>
      <point x="241" y="153" type="curve" smooth="yes"/>
      <point x="241" y="72"/>
      <point x="288" y="-12"/>
      <point x="396" y="-12" type="curve" smooth="yes"/>
      <point x="446" y="-12"/>
      <point x="502" y="9"/>
      <point x="538" y="37" type="curve"/>
      <point x="510" y="96" type="line"/>
      <point x="476" y="72"/>
      <point x="444" y="59"/>
      <point x="405" y="59" type="curve" smooth="yes"/>
      <point x="346" y="59"/>
      <point x="316" y="105"/>
      <point x="316" y="172" type="curve" smooth="yes"/>
      <point x="316" y="308"/>
      <point x="382" y="428"/>
      <point x="465" y="428" type="curve" smooth="yes"/>
      <point x="507" y="428"/>
      <point x="524" y="396"/>
      <point x="524" y="343" type="curve" smooth="yes"/>
      <point x="524" y="321"/>
      <point x="521" y="297"/>
      <point x="516" y="272" type="curve"/>
      <point x="533" y="279" type="line"/>
      <point x="308" y="279" type="line"/>
    </contour>
  </outline>
</glyph>
<glyph name="eth" format="1">
  <advance width="600"/>
  <unicode hex="00F0"/>
  <outline>
    <contour>
      <point x="240" y="-12" type="curve" smooth="yes"/>
      <point x="422" y="-12"/>
      <point x="543" y="121"/>
      <point x="543" y="339" type="curve" smooth="yes"/>
      <point x="543" y="534"/>
      <point x="434" y="668"/>
      <point x="283" y="738" type="curve"/>
      <point x="242" y="672" type="line"/>
      <point x="371" y="606"/>
      <point x="453" y="509"/>
      <point x="453" y="342" type="curve" smooth="yes"/>
      <point x="453" y="175"/>
      <point x="376" y="64"/>
      <point x="250" y="64" type="curve" smooth="yes"/>
      <point x="175" y="64"/>
      <point x="126" y="113"/>
      <point x="126" y="194" type="curve" smooth="yes"/>
      <point x="126" y="288"/>
      <point x="194" y="378"/>
      <point x="313" y="378" type="curve" smooth="yes"/>
      <point x="372" y="378"/>
      <point x="428" y="352"/>
      <point x="462" y="291" type="curve"/>
      <point x="470" y="350" type="line"/>
      <point x="446" y="401"/>
      <point x="387" y="447"/>
      <point x="299" y="447" type="curve" smooth="yes"/>
      <point x="155" y="447"/>
      <point x="35" y="344"/>
      <point x="35" y="187" type="curve" smooth="yes"/>
      <point x="35" y="59"/>
      <point x="127" y="-12"/>
    </contour>
    <contour>
      <point x="227" y="502" type="line"/>
      <point x="584" y="669" type="line"/>
      <point x="567" y="714" type="line"/>
      <point x="209" y="546" type="line"/>
    </contour>
  </outline>
</glyph>
<glyph name="divide" format="1">
  <advance width="600"/>
  <unicode hex="00F7"/>
  <outline>
    <contour>
      <point x="304" y="455" type="curve" smooth="yes"/>
      <point x="337" y="455"/>
      <point x="362" y="479"/>
      <point x="362" y="512" type="curve" smooth="yes"/>
      <point x="362" y="544"/>
      <point x="337" y="567"/>
      <point x="304" y="567" type="curve" smooth="yes"/>
      <point x="272" y="567"/>
      <point x="247" y="544"/>
      <point x="247" y="512" type="curve" smooth="yes"/>
      <point x="247" y="479"/>
      <point x="272" y="455"/>
    </contour>
    <contour>
      <point x="304" y="92" type="curve" smooth="yes"/>
      <point x="337" y="92"/>
      <point x="362" y="115"/>
      <point x="362" y="148" type="curve" smooth="yes"/>
      <point x="362" y="180"/>
      <point x="337" y="204"/>
      <point x="304" y="204" type="curve" smooth="yes"/>
      <point x="272" y="204"/>
      <point x="247" y="180"/>
      <point x="247" y="148" type="curve" smooth="yes"/>
      <point x="247" y="115"/>
      <point x="272" y="92"/>
    </contour>
    <contour>
      <point x="92" y="297" type="line"/>
      <point x="516" y="297" type="line"/>
      <point x="516" y="364" type="line"/>
      <point x="92" y="364" type="line"/>
    </contour>
  </outline>
</glyph>
<glyph name="oslash" format="1">
  <advance width="600"/>
  <unicode hex="00F8"/>
  <outline>
    <contour>
      <point x="340" y="511" type="move" name="aboveLC"/>
    </contour>
    <contour>
      <point x="242" y="-12" type="curve" smooth="yes"/>
      <point x="397" y="-12"/>
      <point x="533" y="108"/>
      <point x="533" y="290" type="curve" smooth="yes"/>
      <point x="533" y="417"/>
      <point x="452" y="501"/>
      <point x="335" y="501" type="curve" smooth="yes"/>
      <point x="179" y="501"/>
      <point x="43" y="377"/>
      <point x="43" y="197" type="curve" smooth="yes"/>
      <point x="43" y="70"/>
      <point x="124" y="-12"/>
    </contour>
    <contour>
      <point x="254" y="62" type="curve" smooth="yes"/>
      <point x="177" y="62"/>
      <point x="133" y="118"/>
      <point x="133" y="203" type="curve" smooth="yes"/>
      <point x="133" y="320"/>
      <point x="216" y="427"/>
      <point x="323" y="427" type="curve" smooth="yes"/>
      <point x="400" y="427"/>
      <point x="443" y="370"/>
      <point x="443" y="284" type="curve" smooth="yes"/>
      <point x="443" y="166"/>
      <point x="360" y="62"/>
    </contour>
    <contour>
      <point x="37" y="-24" type="line"/>
      <point x="566" y="480" type="line"/>
      <point x="535" y="511" type="line"/>
      <point x="6" y="7" type="line"/>
    </contour>
  </outline>
</glyph>
<glyph name="thorn" format="1">
  <advance width="600"/>
  <unicode hex="00FE"/>
  <outline>
    <contour>
      <point x="-9" y="-200" type="line"/>
      <point x="83" y="-200" type="line"/>
      <point x="112" y="-47" type="line"/>
      <point x="129" y="55" type="line"/>
      <point x="132" y="55" type="line"/>
      <point x="162" y="15"/>
      <point x="215" y="-12"/>
      <point x="274" y="-12" type="curve" smooth="yes"/>
      <point x="434" y="-12"/>
      <point x="541" y="130"/>
      <point x="541" y="308" type="curve" smooth="yes"/>
      <point x="541" y="432"/>
      <point x="478" y="501"/>
      <point x="375" y="501" type="curve" smooth="yes"/>
      <point x="315" y="501"/>
      <point x="252" y="465"/>
      <point x="205" y="420" type="curve"/>
      <point x="202" y="420" type="line"/>
      <point x="228" y="527" type="line"/>
      <point x="265" y="709" type="line"/>
      <point x="173" y="709" type="line"/>
    </contour>
    <contour>
      <point x="267" y="65" type="curve" smooth="yes"/>
      <point x="223" y="65"/>
      <point x="179" y="82"/>
      <point x="149" y="128" type="curve"/>
      <point x="191" y="334" type="line"/>
      <point x="239" y="392"/>
      <point x="297" y="424"/>
      <point x="343" y="424" type="curve" smooth="yes"/>
      <point x="405" y="424"/>
      <point x="446" y="382"/>
      <point x="446" y="295" type="curve" smooth="yes"/>
      <point x="446" y="168"/>
      <point x="369" y="65"/>
    </contour>
    <contour>
      <point x="222" y="735" type="move" name="aboveUC"/>
    </contour>
    <contour>
      <point x="41" y="-215" type="move" name="belowLC"/>
    </contour>
  </outline>
</glyph>
<glyph name="Aogonek" format="1">
  <advance width="600"/>
  <unicode hex="0104"/>
  <outline>
    <contour>
      <point x="415" y="-226" type="curve" smooth="yes"/>
      <point x="450" y="-226"/>
      <point x="487" y="-214"/>
      <point x="512" y="-195" type="curve"/>
      <point x="491" y="-149" type="line"/>
      <point x="477" y="-158"/>
      <point x="464" y="-163"/>
      <point x="448" y="-163" type="curve" smooth="yes"/>
      <point x="418" y="-163"/>
      <point x="395" y="-149"/>
      <point x="395" y="-120" type="curve" smooth="yes"/>
      <point x="395" y="-75"/>
      <point x="449" y="-23"/>
      <point x="508" y="0" type="curve"/>
      <point x="431" y="655" type="line"/>
      <point x="322" y="655" type="line"/>
      <point x="-28" y="0" type="line"/>
      <point x="74" y="0" type="line"/>
      <point x="259" y="373" type="line" smooth="yes"/>
      <point x="293" y="443"/>
      <point x="324" y="508"/>
      <point x="358" y="580" type="curve"/>
      <point x="363" y="580" type="line"/>
      <point x="368" y="510"/>
      <point x="374" y="439"/>
      <point x="380" y="371" type="curve" smooth="yes"/>
      <point x="411" y="0" type="line"/>
      <point x="433" y="0" type="line"/>
      <point x="384" y="-27"/>
      <point x="321" y="-82"/>
      <point x="321" y="-149" type="curve" smooth="yes"/>
      <point x="321" y="-201"/>
      <point x="363" y="-226"/>
    </contour>
    <contour>
      <point x="133" y="194" type="line"/>
      <point x="427" y="194" type="line"/>
      <point x="441" y="266" type="line"/>
      <point x="150" y="266" type="line"/>
    </contour>
    <contour>
      <point x="372" y="675" type="move" name="aboveUC"/>
    </contour>
  </outline>
</glyph>
<glyph name="aogonek" format="1">
  <advance width="600"/>
  <unicode hex="0105"/>
  <outline>
    <contour>
      <point x="363" y="-226" type="curve" smooth="yes"/>
      <point x="403" y="-226"/>
      <point x="437" y="-212"/>
      <point x="462" y="-192" type="curve"/>
      <point x="443" y="-152" type="line"/>
      <point x="427" y="-162"/>
      <point x="413" y="-167"/>
      <point x="395" y="-167" type="curve" smooth="yes"/>
      <point x="364" y="-167"/>
      <point x="339" y="-152"/>
      <point x="339" y="-120" type="curve" smooth="yes"/>
      <point x="339" y="-78"/>
      <point x="377" y="-37"/>
      <point x="459" y="-4" type="curve"/>
      <point x="558" y="489" type="line"/>
      <point x="484" y="489" type="line"/>
      <point x="464" y="429" type="line"/>
      <point x="460" y="429" type="line"/>
      <point x="434" y="473"/>
      <point x="383" y="501"/>
      <point x="315" y="501" type="curve" smooth="yes"/>
      <point x="168" y="501"/>
      <point x="48" y="352"/>
      <point x="48" y="176" type="curve" smooth="yes"/>
      <point x="48" y="54"/>
      <point x="113" y="-12"/>
      <point x="213" y="-12" type="curve" smooth="yes"/>
      <point x="274" y="-12"/>
      <point x="337" y="21"/>
      <point x="387" y="72" type="curve"/>
      <point x="391" y="72" type="line"/>
      <point x="385" y="1" type="line"/>
      <point x="330" y="-28"/>
      <point x="270" y="-78"/>
      <point x="270" y="-146" type="curve" smooth="yes"/>
      <point x="270" y="-201"/>
      <point x="312" y="-226"/>
    </contour>
    <contour>
      <point x="244" y="65" type="curve" smooth="yes"/>
      <point x="182" y="65"/>
      <point x="143" y="103"/>
      <point x="143" y="189" type="curve" smooth="yes"/>
      <point x="143" y="314"/>
      <point x="225" y="424"/>
      <point x="328" y="424" type="curve" smooth="yes"/>
      <point x="369" y="424"/>
      <point x="412" y="405"/>
      <point x="442" y="358" type="curve"/>
      <point x="399" y="154" type="line"/>
      <point x="350" y="95"/>
      <point x="292" y="65"/>
    </contour>
    <contour>
      <point x="351" y="510" type="move" name="aboveLC"/>
    </contour>
  </outline>
</glyph>
<glyph name="dcaron" format="1">
  <advance width="600"/>
  <unicode hex="010F"/>
  <outline>
    <contour>
      <point x="180" y="-12" type="curve" smooth="yes"/>
      <point x="236" y="-12"/>
      <point x="295" y="14"/>
      <point x="343" y="62" type="curve"/>
      <point x="346" y="62" type="line"/>
      <point x="342" y="0" type="line"/>
      <point x="418" y="0" type="line"/>
      <point x="561" y="709" type="line"/>
      <point x="469" y="709" type="line"/>
      <point x="433" y="532" type="line"/>
      <point x="418" y="437" type="line"/>
      <point x="415" y="437" type="line"/>
      <point x="389" y="476"/>
      <point x="346" y="501"/>
      <point x="292" y="501" type="curve" smooth="yes"/>
      <point x="148" y="501"/>
      <point x="34" y="352"/>
      <point x="34" y="176" type="curve" smooth="yes"/>
      <point x="34" y="54"/>
      <point x="92" y="-12"/>
    </contour>
    <contour>
      <point x="220" y="65" type="curve" smooth="yes"/>
      <point x="166" y="65"/>
      <point x="129" y="103"/>
      <point x="129" y="189" type="curve" smooth="yes"/>
      <point x="129" y="314"/>
      <point x="206" y="424"/>
      <point x="301" y="424" type="curve" smooth="yes"/>
      <point x="340" y="424"/>
      <point x="373" y="406"/>
      <point x="400" y="363" type="curve"/>
      <point x="354" y="144" type="line"/>
      <point x="309" y="89"/>
      <point x="262" y="65"/>
    </contour>
    <component base="caron.alt" xOffset="290"/>
  </outline>
</glyph>
<glyph name="dcroat" format="1">
  <advance width="600"/>
  <unicode hex="0111"/>
  <outline>
    <contour>
      <point x="207" y="-12" type="curve" smooth="yes"/>
      <point x="268" y="-12"/>
      <point x="331" y="21"/>
      <point x="381" y="72" type="curve"/>
      <point x="385" y="72" type="line"/>
      <point x="379" y="0" type="line"/>
      <point x="455" y="0" type="line"/>
      <point x="598" y="709" type="line"/>
      <point x="506" y="709" type="line"/>
      <point x="465" y="507" type="line"/>
      <point x="450" y="412" type="line"/>
      <point x="447" y="412" type="line"/>
      <point x="420" y="454"/>
      <point x="375" y="481"/>
      <point x="307" y="481" type="curve" smooth="yes"/>
      <point x="158" y="481"/>
      <point x="42" y="341"/>
      <point x="42" y="176" type="curve" smooth="yes"/>
      <point x="42" y="54"/>
      <point x="107" y="-12"/>
    </contour>
    <contour>
      <point x="238" y="65" type="curve" smooth="yes"/>
      <point x="176" y="65"/>
      <point x="137" y="104"/>
      <point x="137" y="189" type="curve" smooth="yes"/>
      <point x="137" y="303"/>
      <point x="215" y="404"/>
      <point x="320" y="404" type="curve" smooth="yes"/>
      <point x="361" y="404"/>
      <point x="402" y="385"/>
      <point x="432" y="338" type="curve"/>
      <point x="393" y="154" type="line"/>
      <point x="344" y="95"/>
      <point x="286" y="65"/>
    </contour>
    <contour>
      <point x="307" y="570" type="line"/>
      <point x="564" y="570" type="line"/>
      <point x="641" y="575" type="line"/>
      <point x="650" y="620" type="line"/>
      <point x="317" y="620" type="line"/>
    </contour>
    <contour>
      <point x="555" y="735" type="move" name="aboveUC"/>
    </contour>
    <contour>
      <point x="249" y="-20" type="move" name="belowLC"/>
    </contour>
  </outline>
</glyph>
<glyph name="Eogonek" format="1">
  <advance width="600"/>
  <unicode hex="0118"/>
  <outline>
    <contour>
      <point x="363" y="-226" type="curve" smooth="yes"/>
      <point x="397" y="-226"/>
      <point x="434" y="-214"/>
      <point x="459" y="-195" type="curve"/>
      <point x="438" y="-149" type="line"/>
      <point x="424" y="-158"/>
      <point x="411" y="-163"/>
      <point x="395" y="-163" type="curve" smooth="yes"/>
      <point x="366" y="-163"/>
      <point x="342" y="-149"/>
      <point x="342" y="-120" type="curve" smooth="yes"/>
      <point x="342" y="-64"/>
      <point x="423" y="0"/>
      <point x="471" y="0" type="curve" smooth="yes"/>
      <point x="473" y="0" type="line"/>
      <point x="489" y="78" type="line"/>
      <point x="163" y="78" type="line"/>
      <point x="209" y="304" type="line"/>
      <point x="473" y="304" type="line"/>
      <point x="489" y="382" type="line"/>
      <point x="224" y="382" type="line"/>
      <point x="262" y="577" type="line"/>
      <point x="579" y="577" type="line"/>
      <point x="595" y="655" type="line"/>
      <point x="186" y="655" type="line"/>
      <point x="55" y="0" type="line"/>
      <point x="382" y="0" type="line"/>
      <point x="328" y="-28"/>
      <point x="268" y="-82"/>
      <point x="268" y="-149" type="curve" smooth="yes"/>
      <point x="268" y="-201"/>
      <point x="310" y="-226"/>
    </contour>
    <contour>
      <point x="330" y="675" type="move" name="aboveUC"/>
    </contour>
  </outline>
</glyph>
<glyph name="eogonek" format="1">
  <advance width="600"/>
  <unicode hex="0119"/>
  <outline>
    <contour>
      <point x="334" y="-226" type="curve" smooth="yes"/>
      <point x="374" y="-226"/>
      <point x="408" y="-212"/>
      <point x="433" y="-192" type="curve"/>
      <point x="414" y="-152" type="line"/>
      <point x="398" y="-162"/>
      <point x="384" y="-167"/>
      <point x="365" y="-167" type="curve" smooth="yes"/>
      <point x="335" y="-167"/>
      <point x="310" y="-152"/>
      <point x="310" y="-120" type="curve" smooth="yes"/>
      <point x="310" y="-68"/>
      <point x="377" y="-10"/>
      <point x="484" y="58" type="curve"/>
      <point x="450" y="121" type="line"/>
      <point x="405" y="86"/>
      <point x="351" y="61"/>
      <point x="289" y="61" type="curve" smooth="yes"/>
      <point x="207" y="61"/>
      <point x="151" y="109"/>
      <point x="151" y="205" type="curve" smooth="yes"/>
      <point x="151" y="343"/>
      <point x="248" y="428"/>
      <point x="334" y="428" type="curve" smooth="yes"/>
      <point x="401" y="428"/>
      <point x="442" y="386"/>
      <point x="442" y="314" type="curve" smooth="yes"/>
      <point x="442" y="300"/>
      <point x="440" y="285"/>
      <point x="436" y="271" type="curve"/>
      <point x="470" y="285" type="line"/>
      <point x="140" y="285" type="line"/>
      <point x="129" y="224" type="line"/>
      <point x="514" y="224" type="line"/>
      <point x="519" y="237"/>
      <point x="528" y="275"/>
      <point x="528" y="311" type="curve" smooth="yes"/>
      <point x="528" y="422"/>
      <point x="460" y="501"/>
      <point x="338" y="501" type="curve" smooth="yes"/>
      <point x="190" y="501"/>
      <point x="59" y="377"/>
      <point x="59" y="201" type="curve" smooth="yes"/>
      <point x="59" y="61"/>
      <point x="143" y="-12"/>
      <point x="269" y="-12" type="curve" smooth="yes"/>
      <point x="293" y="-12"/>
      <point x="318" y="-7"/>
      <point x="336" y="-2" type="curve"/>
      <point x="288" y="-40"/>
      <point x="240" y="-86"/>
      <point x="240" y="-146" type="curve" smooth="yes"/>
      <point x="240" y="-201"/>
      <point x="283" y="-226"/>
    </contour>
    <contour>
      <point x="345" y="510" type="move" name="aboveLC"/>
    </contour>
  </outline>
</glyph>
<glyph name="Hbar" format="1">
  <advance width="600"/>
  <unicode hex="0126"/>
  <outline>
    <contour>
      <point x="45" y="492" type="line"/>
      <point x="626" y="492" type="line"/>
      <point x="636" y="541" type="line"/>
      <point x="126" y="541" type="line"/>
      <point x="54" y="536" type="line"/>
    </contour>
    <component base="H"/>
  </outline>
</glyph>
<glyph name="hbar" format="1">
  <advance width="600"/>
  <unicode hex="0127"/>
  <outline>
    <contour>
      <point x="32" y="0" type="line"/>
      <point x="124" y="0" type="line"/>
      <point x="182" y="290" type="line"/>
      <point x="243" y="360"/>
      <point x="306" y="400"/>
      <point x="366" y="400" type="curve" smooth="yes"/>
      <point x="411" y="400"/>
      <point x="436" y="376"/>
      <point x="436" y="332" type="curve" smooth="yes"/>
      <point x="436" y="312"/>
      <point x="432" y="292"/>
      <point x="427" y="268" type="curve" smooth="yes"/>
      <point x="373" y="0" type="line"/>
      <point x="466" y="0" type="line"/>
      <point x="521" y="279" type="line" smooth="yes"/>
      <point x="527" y="305"/>
      <point x="531" y="330"/>
      <point x="531" y="357" type="curve" smooth="yes"/>
      <point x="531" y="433"/>
      <point x="490" y="480"/>
      <point x="405" y="480" type="curve" smooth="yes"/>
      <point x="324" y="480"/>
      <point x="255" y="431"/>
      <point x="198" y="374" type="curve"/>
      <point x="194" y="374" type="line"/>
      <point x="211" y="441" type="line"/>
      <point x="266" y="709" type="line"/>
      <point x="174" y="709" type="line"/>
    </contour>
    <contour>
      <point x="73" y="571" type="line"/>
      <point x="444" y="571" type="line"/>
      <point x="455" y="620" type="line"/>
      <point x="160" y="620" type="line"/>
      <point x="82" y="615" type="line"/>
    </contour>
  </outline>
</glyph>
<glyph name="Iogonek" format="1">
  <advance width="600"/>
  <unicode hex="012E"/>
  <outline>
    <contour>
      <point x="214" y="-226" type="curve" smooth="yes"/>
      <point x="249" y="-226"/>
      <point x="285" y="-214"/>
      <point x="310" y="-195" type="curve"/>
      <point x="290" y="-149" type="line"/>
      <point x="275" y="-158"/>
      <point x="262" y="-163"/>
      <point x="246" y="-163" type="curve" smooth="yes"/>
      <point x="217" y="-163"/>
      <point x="194" y="-149"/>
      <point x="194" y="-120" type="curve" smooth="yes"/>
      <point x="194" y="-82"/>
      <point x="229" y="-32"/>
      <point x="291" y="0" type="curve"/>
      <point x="444" y="0" type="line"/>
      <point x="461" y="78" type="line"/>
      <point x="299" y="78" type="line"/>
      <point x="399" y="577" type="line"/>
      <point x="561" y="577" type="line"/>
      <point x="577" y="655" type="line"/>
      <point x="162" y="655" type="line"/>
      <point x="145" y="577" type="line"/>
      <point x="306" y="577" type="line"/>
      <point x="206" y="78" type="line"/>
      <point x="46" y="78" type="line"/>
      <point x="30" y="0" type="line"/>
      <point x="218" y="0" type="line"/>
      <point x="177" y="-28"/>
      <point x="119" y="-85"/>
      <point x="119" y="-149" type="curve" smooth="yes"/>
      <point x="119" y="-201"/>
      <point x="162" y="-226"/>
    </contour>
    <contour>
      <point x="372" y="675" type="move" name="aboveUC"/>
    </contour>
  </outline>
</glyph>
<glyph name="dotlessi" format="1">
  <advance width="600"/>
  <unicode hex="0131"/>
  <outline>
    <contour>
      <point x="346" y="-12" type="curve" smooth="yes"/>
      <point x="401" y="-12"/>
      <point x="441" y="0"/>
      <point x="483" y="19" type="curve"/>
      <point x="462" y="89" type="line"/>
      <point x="428" y="74"/>
      <point x="402" y="65"/>
      <point x="373" y="65" type="curve" smooth="yes"/>
      <point x="331" y="65"/>
      <point x="302" y="84"/>
      <point x="302" y="133" type="curve" smooth="yes"/>
      <point x="302" y="142"/>
      <point x="304" y="152"/>
      <point x="306" y="163" type="curve" smooth="yes"/>
      <point x="379" y="489" type="line"/>
      <point x="113" y="489" type="line"/>
      <point x="98" y="415" type="line"/>
      <point x="272" y="415" type="line"/>
      <point x="216" y="170" type="line" smooth="yes"/>
      <point x="211" y="150"/>
      <point x="208" y="132"/>
      <point x="208" y="115" type="curve" smooth="yes"/>
      <point x="208" y="33"/>
      <point x="264" y="-12"/>
    </contour>
    <contour>
      <point x="359" y="0" type="move" name="ogonekLC"/>
    </contour>
    <contour>
      <point x="320" y="510" type="move" name="aboveLC"/>
    </contour>
    <contour>
      <point x="348" y="0" type="move" name="baseLC"/>
    </contour>
    <contour>
      <point x="328" y="-20" type="move" name="belowLC"/>
    </contour>
  </outline>
</glyph>
<glyph name="IJ" format="1">
  <advance width="600"/>
  <unicode hex="0132"/>
  <outline>
    <contour>
      <point x="286" y="-166" type="curve" smooth="yes"/>
      <point x="377" y="-166"/>
      <point x="423" y="-97"/>
      <point x="442" y="-2" type="curve" smooth="yes"/>
      <point x="573" y="655" type="line"/>
      <point x="480" y="655" type="line"/>
      <point x="349" y="-3" type="line"/>
      <point x="336" y="-60"/>
      <point x="317" y="-90"/>
      <point x="280" y="-90" type="curve" smooth="yes"/>
      <point x="260" y="-90"/>
      <point x="248" y="-85"/>
      <point x="235" y="-77" type="curve"/>
      <point x="206" y="-146" type="line"/>
      <point x="231" y="-159"/>
      <point x="254" y="-166"/>
    </contour>
    <contour>
      <point x="35" y="0" type="line"/>
      <point x="128" y="0" type="line"/>
      <point x="259" y="655" type="line"/>
      <point x="166" y="655" type="line"/>
    </contour>
  </outline>
</glyph>
<glyph name="kgreenlandic" format="1">
  <advance width="600"/>
  <unicode hex="0138"/>
  <outline>
    <contour>
      <point x="42" y="0" type="line"/>
      <point x="134" y="0" type="line"/>
      <point x="159" y="125" type="line"/>
      <point x="334" y="266" type="line"/>
      <point x="591" y="489" type="line"/>
      <point x="481" y="489" type="line"/>
      <point x="187" y="244" type="line"/>
      <point x="183" y="244" type="line"/>
      <point x="231" y="489" type="line"/>
      <point x="139" y="489" type="line"/>
    </contour>
    <contour>
      <point x="293" y="250" type="line"/>
      <point x="418" y="0" type="line"/>
      <point x="513" y="0" type="line"/>
      <point x="353" y="312" type="line"/>
    </contour>
  </outline>
</glyph>
<glyph name="Lslash" format="1">
  <advance width="600"/>
  <unicode hex="0141"/>
  <outline>
    <contour>
      <point x="57" y="192" type="line"/>
      <point x="160" y="241" type="line"/>
      <point x="224" y="270" type="line"/>
      <point x="492" y="399" type="line"/>
      <point x="468" y="461" type="line"/>
      <point x="240" y="349" type="line"/>
      <point x="175" y="321" type="line"/>
      <point x="34" y="254" type="line"/>
    </contour>
    <component base="L"/>
    <contour>
      <point x="273" y="675" type="move" name="aboveUC"/>
    </contour>
    <contour>
      <point x="301" y="-20" type="move" name="belowLC"/>
    </contour>
  </outline>
</glyph>
<glyph name="lslash" format="1">
  <advance width="600"/>
  <unicode hex="0142"/>
  <outline>
    <contour>
      <point x="115" y="265" type="line"/>
      <point x="239" y="329" type="line"/>
      <point x="315" y="361" type="line"/>
      <point x="527" y="469" type="line"/>
      <point x="503" y="526" type="line"/>
      <point x="332" y="437" type="line"/>
      <point x="255" y="405" type="line"/>
      <point x="93" y="322" type="line"/>
    </contour>
    <component base="l"/>
    <contour>
      <point x="350" y="730" type="move" name="aboveUC"/>
    </contour>
    <contour>
      <point x="320" y="-20" type="move" name="belowLC"/>
    </contour>
  </outline>
</glyph>
<glyph name="napostrophe" format="1">
  <advance width="600"/>
  <unicode hex="0149"/>
  <outline>
    <contour>
      <point x="140" y="0" type="line"/>
      <point x="231" y="0" type="line"/>
      <point x="300" y="343" type="line"/>
      <point x="358" y="391"/>
      <point x="397" y="421"/>
      <point x="449" y="421" type="curve" smooth="yes"/>
      <point x="506" y="421"/>
      <point x="531" y="381"/>
      <point x="514" y="296" type="curve" smooth="yes"/>
      <point x="455" y="0" type="line"/>
      <point x="545" y="0" type="line"/>
      <point x="607" y="308" type="line" smooth="yes"/>
      <point x="632" y="432"/>
      <point x="593" y="500"/>
      <point x="492" y="500" type="curve" smooth="yes"/>
      <point x="422" y="500"/>
      <point x="365" y="461"/>
      <point x="309" y="411" type="curve"/>
      <point x="305" y="411" type="line"/>
      <point x="312" y="488" type="line"/>
      <point x="237" y="488" type="line"/>
    </contour>
    <contour>
      <point x="21" y="371" type="line"/>
      <point x="148" y="418"/>
      <point x="219" y="502"/>
      <point x="219" y="604" type="curve" smooth="yes"/>
      <point x="219" y="670"/>
      <point x="190" y="698"/>
      <point x="147" y="698" type="curve" smooth="yes"/>
      <point x="95" y="698"/>
      <point x="51" y="657"/>
      <point x="51" y="604" type="curve" smooth="yes"/>
      <point x="51" y="568"/>
      <point x="73" y="545"/>
      <point x="108" y="545" type="curve" smooth="yes"/>
      <point x="133" y="545"/>
      <point x="159" y="558"/>
      <point x="180" y="577" type="curve"/>
      <point x="136" y="644" type="line"/>
      <point x="136" y="564" type="line"/>
      <point x="123" y="486"/>
      <point x="79" y="451"/>
      <point x="4" y="420" type="curve"/>
    </contour>
  </outline>
</glyph>
<glyph name="Eng" format="1">
  <advance width="600"/>
  <unicode hex="014A"/>
  <outline>
    <contour>
      <point x="321" y="-12" type="curve" smooth="yes"/>
      <point x="464" y="-12"/>
      <point x="560" y="203"/>
      <point x="560" y="441" type="curve" smooth="yes"/>
      <point x="560" y="603"/>
      <point x="493" y="667"/>
      <point x="394" y="667" type="curve" smooth="yes"/>
      <point x="340" y="667"/>
      <point x="269" y="634"/>
      <point x="221" y="586" type="curve"/>
      <point x="235" y="655" type="line"/>
      <point x="146" y="655" type="line"/>
      <point x="15" y="0" type="line"/>
      <point x="108" y="0" type="line"/>
      <point x="206" y="501" type="line"/>
      <point x="260" y="558"/>
      <point x="321" y="587"/>
      <point x="362" y="587" type="curve" smooth="yes"/>
      <point x="424" y="587"/>
      <point x="465" y="546"/>
      <point x="465" y="433" type="curve" smooth="yes"/>
      <point x="465" y="253"/>
      <point x="393" y="68"/>
      <point x="312" y="68" type="curve" smooth="yes"/>
      <point x="295" y="68"/>
      <point x="282" y="73"/>
      <point x="270" y="81" type="curve"/>
      <point x="234" y="6" type="line"/>
      <point x="253" y="-5"/>
      <point x="291" y="-12"/>
    </contour>
    <contour>
      <point x="380" y="675" type="move" name="aboveUC"/>
    </contour>
    <contour>
      <point x="247" y="-20" type="move" name="belowLC"/>
    </contour>
  </outline>
</glyph>
<glyph name="eng" format="1">
  <advance width="600"/>
  <unicode hex="014B"/>
  <outline>
    <contour>
      <point x="305" y="-184" type="curve" smooth="yes"/>
      <point x="397" y="-184"/>
      <point x="439" y="-120"/>
      <point x="459" y="-25" type="curve"/>
      <point x="525" y="300" type="line" smooth="yes"/>
      <point x="530" y="326"/>
      <point x="534" y="351"/>
      <point x="534" y="378" type="curve" smooth="yes"/>
      <point x="534" y="454"/>
      <point x="493" y="501"/>
      <point x="408" y="501" type="curve" smooth="yes"/>
      <point x="325" y="501"/>
      <point x="252" y="449"/>
      <point x="196" y="393" type="curve"/>
      <point x="192" y="393" type="line"/>
      <point x="203" y="489" type="line"/>
      <point x="128" y="489" type="line"/>
      <point x="31" y="0" type="line"/>
      <point x="123" y="0" type="line"/>
      <point x="185" y="311" type="line"/>
      <point x="246" y="381"/>
      <point x="309" y="421"/>
      <point x="369" y="421" type="curve" smooth="yes"/>
      <point x="414" y="421"/>
      <point x="439" y="397"/>
      <point x="439" y="353" type="curve" smooth="yes"/>
      <point x="439" y="333"/>
      <point x="435" y="313"/>
      <point x="430" y="289" type="curve" smooth="yes"/>
      <point x="368" y="-22" type="line"/>
      <point x="355" y="-82"/>
      <point x="337" y="-109"/>
      <point x="299" y="-109" type="curve" smooth="yes"/>
      <point x="279" y="-109"/>
      <point x="267" y="-104"/>
      <point x="254" y="-96" type="curve"/>
      <point x="224" y="-164" type="line"/>
      <point x="249" y="-177"/>
      <point x="273" y="-184"/>
    </contour>
    <contour>
      <point x="352" y="510" type="move" name="aboveLC"/>
    </contour>
  </outline>
</glyph>
<glyph name="oe" format="1">
  <advance width="600"/>
  <unicode hex="0153"/>
  <outline>
    <contour>
      <point x="258" y="511" type="move" name="aboveLC"/>
    </contour>
    <contour>
      <point x="126" y="-12" type="curve" smooth="yes"/>
      <point x="189" y="-12"/>
      <point x="248" y="21"/>
      <point x="289" y="95" type="curve"/>
      <point x="275" y="103" type="line"/>
      <point x="281" y="27"/>
      <point x="337" y="-12"/>
      <point x="401" y="-12" type="curve" smooth="yes"/>
      <point x="456" y="-12"/>
      <point x="510" y="9"/>
      <point x="546" y="37" type="curve"/>
      <point x="518" y="97" type="line"/>
      <point x="490" y="77"/>
      <point x="456" y="62"/>
      <point x="416" y="62" type="curve" smooth="yes"/>
      <point x="362" y="62"/>
      <point x="334" y="101"/>
      <point x="334" y="175" type="curve" smooth="yes"/>
      <point x="334" y="293"/>
      <point x="392" y="428"/>
      <point x="466" y="428" type="curve" smooth="yes"/>
      <point x="508" y="428"/>
      <point x="521" y="391"/>
      <point x="521" y="341" type="curve" smooth="yes"/>
      <point x="521" y="320"/>
      <point x="518" y="294"/>
      <point x="512" y="272" type="curve"/>
      <point x="525" y="280" type="line"/>
      <point x="322" y="280" type="line"/>
      <point x="318" y="221" type="line"/>
      <point x="578" y="221" type="line"/>
      <point x="585" y="242"/>
      <point x="598" y="293"/>
      <point x="598" y="343" type="curve" smooth="yes"/>
      <point x="598" y="435"/>
      <point x="560" y="501"/>
      <point x="482" y="501" type="curve" smooth="yes"/>
      <point x="422" y="501"/>
      <point x="360" y="459"/>
      <point x="325" y="378" type="curve"/>
      <point x="335" y="375" type="line"/>
      <point x="326" y="456"/>
      <point x="289" y="501"/>
      <point x="222" y="501" type="curve" smooth="yes"/>
      <point x="100" y="501"/>
      <point x="-9" y="369"/>
      <point x="-9" y="174" type="curve" smooth="yes"/>
      <point x="-9" y="57"/>
      <point x="41" y="-12"/>
    </contour>
    <contour>
      <point x="75" y="179" type="curve" smooth="yes"/>
      <point x="75" y="290"/>
      <point x="132" y="425"/>
      <point x="214" y="425" type="curve" smooth="yes"/>
      <point x="257" y="425"/>
      <point x="279" y="380"/>
      <point x="279" y="307" type="curve" smooth="yes"/>
      <point x="279" y="183"/>
      <point x="220" y="63"/>
      <point x="144" y="63" type="curve" smooth="yes"/>
      <point x="98" y="63"/>
      <point x="75" y="109"/>
    </contour>
  </outline>
</glyph>
<glyph name="Tbar" format="1">
  <advance width="600"/>
  <unicode hex="0166"/>
  <outline>
    <contour>
      <point x="121" y="323" type="line"/>
      <point x="482" y="323" type="line"/>
      <point x="492" y="373" type="line"/>
      <point x="203" y="373" type="line"/>
      <point x="130" y="368" type="line"/>
    </contour>
    <component base="T"/>
  </outline>
</glyph>
<glyph name="tbar" format="1">
  <advance width="600"/>
  <unicode hex="0167"/>
  <outline>
    <contour>
      <point x="40" y="245" type="line"/>
      <point x="487" y="245" type="line"/>
      <point x="496" y="294" type="line"/>
      <point x="186" y="294" type="line"/>
      <point x="49" y="289" type="line"/>
    </contour>
    <component base="t"/>
  </outline>
</glyph>
<glyph name="Uogonek" format="1">
  <advance width="600"/>
  <unicode hex="0172"/>
  <outline>
    <contour>
      <point x="373" y="678" type="move" name="aboveUC"/>
    </contour>
    <contour>
      <point x="226" y="-226" type="curve" smooth="yes"/>
      <point x="261" y="-226"/>
      <point x="298" y="-214"/>
      <point x="323" y="-195" type="curve"/>
      <point x="302" y="-149" type="line"/>
      <point x="288" y="-158"/>
      <point x="275" y="-163"/>
      <point x="259" y="-163" type="curve" smooth="yes"/>
      <point x="229" y="-163"/>
      <point x="206" y="-149"/>
      <point x="206" y="-120" type="curve" smooth="yes"/>
      <point x="206" y="-84"/>
      <point x="248" y="-30"/>
      <point x="319" y="-8" type="curve" smooth="yes"/>
      <point x="425" y="28"/>
      <point x="482" y="93"/>
      <point x="513" y="248" type="curve" smooth="yes"/>
      <point x="595" y="655" type="line"/>
      <point x="503" y="655" type="line"/>
      <point x="424" y="256" type="line" smooth="yes"/>
      <point x="396" y="114"/>
      <point x="337" y="66"/>
      <point x="264" y="66" type="curve" smooth="yes"/>
      <point x="189" y="66"/>
      <point x="152" y="115"/>
      <point x="152" y="202" type="curve" smooth="yes"/>
      <point x="152" y="225"/>
      <point x="154" y="249"/>
      <point x="161" y="279" type="curve" smooth="yes"/>
      <point x="236" y="655" type="line"/>
      <point x="143" y="655" type="line"/>
      <point x="68" y="284" type="line" smooth="yes"/>
      <point x="61" y="249"/>
      <point x="59" y="223"/>
      <point x="59" y="195" type="curve" smooth="yes"/>
      <point x="59" y="70"/>
      <point x="124" y="-1"/>
      <point x="226" y="-10" type="curve"/>
      <point x="181" y="-37"/>
      <point x="132" y="-91"/>
      <point x="132" y="-149" type="curve" smooth="yes"/>
      <point x="132" y="-201"/>
      <point x="174" y="-226"/>
    </contour>
  </outline>
</glyph>
<glyph name="uogonek" format="1">
  <advance width="600"/>
  <unicode hex="0173"/>
  <outline>
    <contour>
      <point x="358" y="-226" type="curve" smooth="yes"/>
      <point x="398" y="-226"/>
      <point x="432" y="-212"/>
      <point x="457" y="-192" type="curve"/>
      <point x="438" y="-152" type="line"/>
      <point x="422" y="-162"/>
      <point x="408" y="-167"/>
      <point x="390" y="-167" type="curve" smooth="yes"/>
      <point x="359" y="-167"/>
      <point x="334" y="-152"/>
      <point x="334" y="-120" type="curve" smooth="yes"/>
      <point x="334" y="-78"/>
      <point x="372" y="-37"/>
      <point x="455" y="-4" type="curve"/>
      <point x="553" y="489" type="line"/>
      <point x="460" y="489" type="line"/>
      <point x="398" y="177" type="line"/>
      <point x="337" y="108"/>
      <point x="276" y="67"/>
      <point x="216" y="67" type="curve" smooth="yes"/>
      <point x="171" y="67"/>
      <point x="146" y="92"/>
      <point x="146" y="136" type="curve" smooth="yes"/>
      <point x="146" y="156"/>
      <point x="150" y="176"/>
      <point x="155" y="200" type="curve" smooth="yes"/>
      <point x="213" y="489" type="line"/>
      <point x="121" y="489" type="line"/>
      <point x="61" y="189" type="line" smooth="yes"/>
      <point x="55" y="163"/>
      <point x="52" y="138"/>
      <point x="52" y="111" type="curve" smooth="yes"/>
      <point x="52" y="35"/>
      <point x="92" y="-12"/>
      <point x="178" y="-12" type="curve" smooth="yes"/>
      <point x="260" y="-12"/>
      <point x="331" y="40"/>
      <point x="387" y="95" type="curve"/>
      <point x="391" y="95" type="line"/>
      <point x="380" y="1" type="line"/>
      <point x="326" y="-28"/>
      <point x="265" y="-78"/>
      <point x="265" y="-146" type="curve" smooth="yes"/>
      <point x="265" y="-201"/>
      <point x="307" y="-226"/>
    </contour>
    <contour>
      <point x="336" y="510" type="move" name="aboveLC"/>
    </contour>
  </outline>
</glyph>
<glyph name="Dhook" format="1">
  <advance width="600"/>
  <unicode hex="018A"/>
  <outline>
    <contour>
      <point x="136" y="0" type="line"/>
      <point x="213" y="0" type="line" smooth="yes"/>
      <point x="443" y="0"/>
      <point x="589" y="171"/>
      <point x="589" y="419" type="curve" smooth="yes"/>
      <point x="589" y="579"/>
      <point x="495" y="668"/>
      <point x="328" y="668" type="curve" smooth="yes"/>
      <point x="136" y="668"/>
      <point x="31" y="532"/>
      <point x="31" y="397" type="curve" smooth="yes"/>
      <point x="31" y="331"/>
      <point x="60" y="287"/>
      <point x="108" y="262" type="curve"/>
      <point x="154" y="321" type="line"/>
      <point x="121" y="341"/>
      <point x="105" y="371"/>
      <point x="105" y="410" type="curve" smooth="yes"/>
      <point x="105" y="501"/>
      <point x="173" y="592"/>
      <point x="293" y="592" type="curve" smooth="yes"/>
      <point x="332" y="592" type="line" smooth="yes"/>
      <point x="444" y="592"/>
      <point x="493" y="527"/>
      <point x="493" y="413" type="curve" smooth="yes"/>
      <point x="493" y="208"/>
      <point x="377" y="76"/>
      <point x="241" y="76" type="curve" smooth="yes"/>
      <point x="234" y="76" type="line"/>
      <point x="341" y="613" type="line"/>
      <point x="258" y="613" type="line"/>
    </contour>
    <contour>
      <point x="385" y="675" type="move" name="aboveUC"/>
    </contour>
    <contour>
      <point x="275" y="-20" type="move" name="belowLC"/>
    </contour>
  </outline>
</glyph>
<glyph name="Schwa" format="1">
  <advance width="600"/>
  <unicode hex="018F"/>
  <outline>
    <contour>
      <point x="236" y="-12" type="curve" smooth="yes"/>
      <point x="424" y="-12"/>
      <point x="565" y="170"/>
      <point x="565" y="423" type="curve" smooth="yes"/>
      <point x="565" y="577"/>
      <point x="499" y="668"/>
      <point x="368" y="668" type="curve" smooth="yes"/>
      <point x="282" y="668"/>
      <point x="203" y="633"/>
      <point x="153" y="593" type="curve"/>
      <point x="192" y="530" type="line"/>
      <point x="233" y="562"/>
      <point x="289" y="590"/>
      <point x="349" y="590" type="curve" smooth="yes"/>
      <point x="433" y="590"/>
      <point x="474" y="523"/>
      <point x="474" y="415" type="curve" smooth="yes"/>
      <point x="474" y="212"/>
      <point x="374" y="65"/>
      <point x="247" y="65" type="curve" smooth="yes"/>
      <point x="162" y="65"/>
      <point x="129" y="148"/>
      <point x="147" y="281" type="curve"/>
      <point x="478" y="281" type="line"/>
      <point x="492" y="350" type="line"/>
      <point x="69" y="350" type="line"/>
      <point x="61" y="315"/>
      <point x="52" y="270"/>
      <point x="52" y="220" type="curve" smooth="yes"/>
      <point x="52" y="66"/>
      <point x="122" y="-12"/>
    </contour>
    <contour>
      <point x="368" y="675" type="move" name="aboveUC"/>
    </contour>
    <contour>
      <point x="254" y="0" type="move" name="ogonekUC"/>
    </contour>
    <contour>
      <point x="254" y="0" type="move" name="baseLC"/>
    </contour>
    <contour>
      <point x="247" y="-20" type="move" name="belowLC"/>
    </contour>
  </outline>
</glyph>
<glyph name="florin" format="1">
  <advance width="600"/>
  <unicode hex="0192"/>
  <outline>
    <contour>
      <point x="67" y="-97" type="curve" smooth="yes"/>
      <point x="169" y="-98"/>
      <point x="227" y="-44"/>
      <point x="266" y="79" type="curve" smooth="yes"/>
      <point x="397" y="494" type="line" smooth="yes"/>
      <point x="417" y="558"/>
      <point x="448" y="599"/>
      <point x="505" y="599" type="curve" smooth="yes"/>
      <point x="536" y="599"/>
      <point x="557" y="587"/>
      <point x="571" y="576" type="curve"/>
      <point x="609" y="632" type="line"/>
      <point x="585" y="650"/>
      <point x="551" y="668"/>
      <point x="505" y="668" type="curve" smooth="yes"/>
      <point x="409" y="668"/>
      <point x="348" y="622"/>
      <point x="309" y="494" type="curve" smooth="yes"/>
      <point x="187" y="102" type="line" smooth="yes"/>
      <point x="157" y="4"/>
      <point x="124" y="-24"/>
      <point x="75" y="-26" type="curve" smooth="yes"/>
      <point x="43" y="-27"/>
      <point x="20" y="-17"/>
      <point x="1" y="-6" type="curve"/>
      <point x="-31" y="-70" type="line"/>
      <point x="-12" y="-81"/>
      <point x="26" y="-97"/>
    </contour>
    <contour>
      <point x="161" y="343" type="line"/>
      <point x="496" y="343" type="line"/>
      <point x="509" y="409" type="line"/>
      <point x="245" y="409" type="line"/>
      <point x="173" y="404" type="line"/>
    </contour>
  </outline>
</glyph>
<glyph name="Ohorn" format="1">
  <advance width="600"/>
  <unicode hex="01A0"/>
  <outline>
    <contour>
      <point x="373" y="677" type="move" name="aboveUC"/>
    </contour>
    <contour>
      <point x="237" y="-22" type="move" name="belowLC"/>
    </contour>
    <contour>
      <point x="502" y="599" type="line"/>
      <point x="583" y="614"/>
      <point x="637" y="662"/>
      <point x="637" y="739" type="curve" smooth="yes"/>
      <point x="637" y="759"/>
      <point x="633" y="778"/>
      <point x="624" y="800" type="curve"/>
      <point x="551" y="776" type="line"/>
      <point x="558" y="760"/>
      <point x="560" y="746"/>
      <point x="560" y="732" type="curve" smooth="yes"/>
      <point x="560" y="682"/>
      <point x="525" y="643"/>
      <point x="460" y="639" type="curve"/>
    </contour>
    <component base="O"/>
  </outline>
</glyph>
<glyph name="ohorn" format="1">
  <advance width="600"/>
  <unicode hex="01A1"/>
  <outline>
    <contour>
      <point x="340" y="511" type="move" name="aboveLC"/>
    </contour>
    <contour>
      <point x="234" y="-22" type="move" name="belowLC"/>
    </contour>
    <contour>
      <point x="463" y="439" type="line"/>
      <point x="548" y="455"/>
      <point x="604" y="506"/>
      <point x="604" y="587" type="curve" smooth="yes"/>
      <point x="604" y="606"/>
      <point x="600" y="631"/>
      <point x="592" y="651" type="curve"/>
      <point x="520" y="626" type="line"/>
      <point x="525" y="613"/>
      <point x="529" y="593"/>
      <point x="528" y="581" type="curve" smooth="yes"/>
      <point x="526" y="523"/>
      <point x="491" y="484"/>
      <point x="419" y="477" type="curve"/>
    </contour>
    <component base="o"/>
  </outline>
</glyph>
<glyph name="Uhorn" format="1">
  <advance width="600"/>
  <unicode hex="01AF"/>
  <outline>
    <contour>
      <point x="373" y="678" type="move" name="aboveUC"/>
    </contour>
    <contour>
      <point x="233" y="-22" type="move" name="belowLC"/>
    </contour>
    <contour>
      <point x="582" y="615" type="line"/>
      <point x="666" y="629"/>
      <point x="722" y="671"/>
      <point x="722" y="747" type="curve" smooth="yes"/>
      <point x="722" y="767"/>
      <point x="718" y="786"/>
      <point x="709" y="808" type="curve"/>
      <point x="637" y="784" type="line"/>
      <point x="643" y="768"/>
      <point x="646" y="754"/>
      <point x="646" y="741" type="curve" smooth="yes"/>
      <point x="646" y="690"/>
      <point x="609" y="659"/>
      <point x="545" y="655" type="curve"/>
    </contour>
    <component base="U"/>
  </outline>
</glyph>
<glyph name="uhorn" format="1">
  <advance width="600"/>
  <unicode hex="01B0"/>
  <outline>
    <contour>
      <point x="343" y="511" type="move" name="aboveLC"/>
    </contour>
    <contour>
      <point x="254" y="-22" type="move" name="belowLC"/>
    </contour>
    <contour>
      <point x="539" y="450" type="line"/>
      <point x="602" y="464"/>
      <point x="661" y="514"/>
      <point x="661" y="596" type="curve" smooth="yes"/>
      <point x="661" y="615"/>
      <point x="657" y="639"/>
      <point x="650" y="659" type="curve"/>
      <point x="578" y="635" type="line"/>
      <point x="583" y="621"/>
      <point x="586" y="602"/>
      <point x="586" y="590" type="curve" smooth="yes"/>
      <point x="584" y="531"/>
      <point x="545" y="494"/>
      <point x="497" y="489" type="curve"/>
    </contour>
    <component base="u"/>
  </outline>
</glyph>
<glyph name="Aringacute" format="1">
	<unicode hex="01FA"/>
	<advance width="600"/>
	<outline>
		<contour>
			<point x="383" y="839" type="line"/>
			<point x="535" y="924" type="line"/>
			<point x="493" y="977" type="line"/>
			<point x="343" y="863" type="line"/>
		</contour>
		<component base="Aring"/>
	</outline>
</glyph>
<glyph name="aturned" format="1">
  <advance width="600"/>
  <unicode hex="0250"/>
  <outline>
    <component base="a.a" xScale="-1.0" yScale="-1.0" xOffset="580" yOffset="489"/>
    <contour>
      <point x="350" y="510" type="move" name="aboveLC"/>
    </contour>
    <contour>
      <point x="245" y="-20" type="move" name="belowLC"/>
    </contour>
  </outline>
</glyph>
<glyph name="alphalatinturned" format="1">
  <advance width="600"/>
  <unicode hex="0252"/>
  <outline>
    <contour>
      <point x="274" y="-12" type="curve" smooth="yes"/>
      <point x="423" y="-12"/>
      <point x="541" y="130"/>
      <point x="541" y="308" type="curve" smooth="yes"/>
      <point x="541" y="432"/>
      <point x="476" y="501"/>
      <point x="376" y="501" type="curve" smooth="yes"/>
      <point x="313" y="501"/>
      <point x="250" y="463"/>
      <point x="200" y="415" type="curve"/>
      <point x="197" y="415" type="line"/>
      <point x="204" y="489" type="line"/>
      <point x="129" y="489" type="line"/>
      <point x="31" y="0" type="line"/>
      <point x="105" y="0" type="line"/>
      <point x="124" y="59" type="line"/>
      <point x="127" y="59" type="line"/>
      <point x="156" y="17"/>
      <point x="213" y="-12"/>
    </contour>
    <contour>
      <point x="261" y="65" type="curve" smooth="yes"/>
      <point x="221" y="65"/>
      <point x="178" y="82"/>
      <point x="148" y="128" type="curve"/>
      <point x="190" y="337" type="line"/>
      <point x="238" y="392"/>
      <point x="299" y="424"/>
      <point x="345" y="424" type="curve" smooth="yes"/>
      <point x="407" y="424"/>
      <point x="446" y="382"/>
      <point x="446" y="295" type="curve" smooth="yes"/>
      <point x="446" y="168"/>
      <point x="366" y="65"/>
    </contour>
    <contour>
      <point x="357" y="510" type="move" name="aboveLC"/>
    </contour>
    <contour>
      <point x="250" y="-20" type="move" name="belowLC"/>
    </contour>
  </outline>
</glyph>
<glyph name="gscript" format="1">
	<unicode hex="0261"/>
	<advance width="600"/>
	<outline>
		<component base="g"/>
		<contour>
			<point name="aboveLC" x="352" y="510" type="move"/>
		</contour>
		<contour>
			<point name="belowLC" x="218" y="-215" type="move"/>
		</contour>
	</outline>
</glyph>
<glyph name="lmiddletilde" format="1">
	<unicode hex="026B"/>
	<advance width="600"/>
	<outline>
		<component base="l"/>
		<component base="tildeoverlaycmb" xOffset="-2" yOffset="136"/>
		<contour>
			<point name="aboveUC" x="352" y="735" type="move"/>
		</contour>
		<contour>
			<point name="belowLC" x="320" y="-20" type="move"/>
		</contour>
	</outline>
</glyph>
<glyph name="mturned" format="1">
  <advance width="600"/>
  <unicode hex="026F"/>
  <outline>
    <component base="m" xScale="-1.0" yScale="-1.0" xOffset="580" yOffset="489"/>
    <contour>
      <point x="335" y="509" type="move" name="aboveLC"/>
    </contour>
    <contour>
      <point x="245" y="-20" type="move" name="belowLC"/>
    </contour>
  </outline>
</glyph>
<glyph name="glottalstop" format="1">
  <advance width="600"/>
  <unicode hex="0294"/>
  <outline>
    <contour>
      <point x="167" y="0" type="line"/>
      <point x="259" y="0" type="line"/>
      <point x="314" y="276" type="line"/>
      <point x="468" y="353"/>
      <point x="551" y="434"/>
      <point x="551" y="558" type="curve" smooth="yes"/>
      <point x="551" y="663"/>
      <point x="461" y="721"/>
      <point x="354" y="721" type="curve" smooth="yes"/>
      <point x="254" y="721"/>
      <point x="192" y="687"/>
      <point x="131" y="640" type="curve"/>
      <point x="171" y="578" type="line"/>
      <point x="221" y="618"/>
      <point x="271" y="647"/>
      <point x="339" y="647" type="curve" smooth="yes"/>
      <point x="409" y="647"/>
      <point x="455" y="609"/>
      <point x="455" y="546" type="curve" smooth="yes"/>
      <point x="455" y="462"/>
      <point x="402" y="391"/>
      <point x="230" y="314" type="curve"/>
    </contour>
    <contour>
      <point x="375" y="735" type="move" name="aboveUC"/>
    </contour>
    <contour>
      <point x="215" y="-20" type="move" name="belowLC"/>
    </contour>
  </outline>
</glyph>
<glyph name="lsmall" format="1">
  <advance width="600"/>
  <unicode hex="029F"/>
  <outline>
    <contour>
      <point x="98" y="0" type="line"/>
      <point x="481" y="0" type="line"/>
      <point x="497" y="74" type="line"/>
      <point x="205" y="74" type="line"/>
      <point x="287" y="489" type="line"/>
      <point x="195" y="489" type="line"/>
    </contour>
    <contour>
      <point x="240" y="510" type="move" name="aboveLC"/>
    </contour>
    <contour>
      <point x="300" y="-20" type="move" name="belowLC"/>
    </contour>
  </outline>
</glyph>
<glyph name="verticallinelowmod" format="1">
  <advance width="600"/>
  <unicode hex="02CC"/>
  <outline>
    <contour>
      <point x="135" y="-255" type="line"/>
      <point x="244" y="-255" type="line"/>
      <point x="285" y="70" type="line"/>
      <point x="224" y="70" type="line"/>
    </contour>
  </outline>
</glyph>
<glyph name="gravecmb" format="1">
  <advance width="600"/>
  <unicode hex="0300"/>
  <outline>
    <contour>
      <point x="388" y="570" type="line"/>
      <point x="446" y="614" type="line"/>
      <point x="330" y="795" type="line"/>
      <point x="251" y="736" type="line"/>
    </contour>
    <contour>
      <point x="339" y="510" type="move" name="_aboveLC"/>
    </contour>
    <contour>
      <point x="300" y="510" type="move" name="aboveLC"/>
    </contour>
  </outline>
</glyph>
<glyph name="acutecmb" format="1">
  <advance width="600"/>
  <unicode hex="0301"/>
  <outline>
    <contour>
      <point x="330" y="579" type="line"/>
      <point x="517" y="717" type="line"/>
      <point x="460" y="789" type="line"/>
      <point x="288" y="632" type="line"/>
    </contour>
    <contour>
      <point x="339" y="510" type="move" name="_aboveLC"/>
    </contour>
    <contour>
      <point x="300" y="510" type="move" name="aboveLC"/>
    </contour>
  </outline>
</glyph>
<glyph name="brevebelowcmb" format="1">
  <advance width="600"/>
  <unicode hex="032E"/>
  <outline>
    <component base="brevecmb" xOffset="-159" yOffset="-798"/>
    <contour>
      <point x="234" y="-20" type="move" name="_belowLC"/>
    </contour>
  </outline>
</glyph>
<glyph name="macronbelowcmb" format="1">
	<unicode hex="0331"/>
	<advance width="600"/>
	<outline>
		<component base="macroncmb" xOffset="-157" yOffset="-787"/>
		<contour>
			<point name="_belowLC" x="234" y="-20" type="move"/>
		</contour>
	</outline>
</glyph>
<glyph name="squarebelowcmb" format="1">
  <advance width="600"/>
  <unicode hex="033B"/>
  <outline>
    <contour>
      <point x="71" y="-242" type="line"/>
      <point x="312" y="-242" type="line"/>
      <point x="344" y="-74" type="line"/>
      <point x="104" y="-74" type="line"/>
    </contour>
    <contour>
      <point x="131" y="-198" type="line"/>
      <point x="147" y="-117" type="line"/>
      <point x="285" y="-117" type="line"/>
      <point x="269" y="-198" type="line"/>
    </contour>
    <contour>
      <point x="234" y="-20" type="move" name="_belowLC"/>
    </contour>
  </outline>
</glyph>
<glyph name="figuredash" format="1">
  <advance width="600"/>
  <unicode hex="2012"/>
  <outline>
    <contour>
      <point x="61" y="215" type="line"/>
      <point x="501" y="215" type="line"/>
      <point x="517" y="290" type="line"/>
      <point x="77" y="290" type="line"/>
    </contour>
  </outline>
</glyph>
<glyph name="emdash" format="1">
  <advance width="600"/>
  <unicode hex="2014"/>
  <outline>
    <contour>
      <point x="2" y="214" type="line"/>
      <point x="562" y="214" type="line"/>
      <point x="577" y="290" type="line"/>
      <point x="17" y="290" type="line"/>
    </contour>
  </outline>
</glyph>
<glyph name="underscoredbl" format="1">
  <advance width="600"/>
  <unicode hex="2017"/>
  <outline>
    <contour>
      <point x="-27" y="-134" type="line"/>
      <point x="453" y="-134" type="line"/>
      <point x="466" y="-67" type="line"/>
      <point x="-14" y="-67" type="line"/>
    </contour>
    <contour>
      <point x="-54" y="-260" type="line"/>
      <point x="426" y="-260" type="line"/>
      <point x="439" y="-193" type="line"/>
      <point x="-41" y="-193" type="line"/>
    </contour>
  </outline>
</glyph>
<glyph name="quoteleft" format="1">
  <advance width="600"/>
  <unicode hex="2018"/>
  <outline>
    <contour>
      <point x="323" y="358" type="curve" smooth="yes"/>
      <point x="377" y="358"/>
      <point x="417" y="400"/>
      <point x="417" y="450" type="curve" smooth="yes"/>
      <point x="417" y="491"/>
      <point x="392" y="519"/>
      <point x="350" y="519" type="curve" smooth="yes"/>
      <point x="324" y="519"/>
      <point x="307" y="508"/>
      <point x="290" y="493" type="curve"/>
      <point x="328" y="410" type="line"/>
      <point x="333" y="503" type="line"/>
      <point x="344" y="568"/>
      <point x="399" y="622"/>
      <point x="483" y="645" type="curve"/>
      <point x="470" y="696" type="line"/>
      <point x="335" y="661"/>
      <point x="246" y="567"/>
      <point x="246" y="453" type="curve" smooth="yes"/>
      <point x="246" y="389"/>
      <point x="279" y="358"/>
    </contour>
  </outline>
</glyph>
<glyph name="quoteright" format="1">
  <advance width="600"/>
  <unicode hex="2019"/>
  <outline>
    <contour>
      <point x="228" y="360" type="line"/>
      <point x="363" y="395"/>
      <point x="450" y="489"/>
      <point x="450" y="603" type="curve" smooth="yes"/>
      <point x="450" y="667"/>
      <point x="418" y="699"/>
      <point x="374" y="699" type="curve" smooth="yes"/>
      <point x="320" y="699"/>
      <point x="279" y="656"/>
      <point x="279" y="606" type="curve" smooth="yes"/>
      <point x="279" y="565"/>
      <point x="305" y="537"/>
      <point x="346" y="537" type="curve" smooth="yes"/>
      <point x="373" y="537"/>
      <point x="390" y="548"/>
      <point x="407" y="564" type="curve"/>
      <point x="369" y="646" type="line"/>
      <point x="364" y="553" type="line"/>
      <point x="353" y="488"/>
      <point x="299" y="435"/>
      <point x="215" y="411" type="curve"/>
    </contour>
  </outline>
</glyph>
<glyph name="bullet" format="1">
  <advance width="600"/>
  <unicode hex="2022"/>
  <outline>
    <contour>
      <point x="266" y="113" type="curve" smooth="yes"/>
      <point x="361" y="113"/>
      <point x="444" y="182"/>
      <point x="444" y="287" type="curve" smooth="yes"/>
      <point x="444" y="361"/>
      <point x="390" y="411"/>
      <point x="318" y="411" type="curve" smooth="yes"/>
      <point x="222" y="411"/>
      <point x="138" y="342"/>
      <point x="138" y="237" type="curve" smooth="yes"/>
      <point x="138" y="163"/>
      <point x="194" y="113"/>
    </contour>
  </outline>
</glyph>
<glyph name="ellipsis" format="1">
  <advance width="600"/>
  <unicode hex="2026"/>
  <outline>
    <contour>
      <point x="39" y="-12" type="curve" smooth="yes"/>
      <point x="92" y="-12"/>
      <point x="128" y="29"/>
      <point x="128" y="81" type="curve" smooth="yes"/>
      <point x="128" y="120"/>
      <point x="106" y="144"/>
      <point x="71" y="144" type="curve" smooth="yes"/>
      <point x="23" y="144"/>
      <point x="-19" y="103"/>
      <point x="-19" y="51" type="curve" smooth="yes"/>
      <point x="-19" y="14"/>
      <point x="2" y="-12"/>
    </contour>
    <contour>
      <point x="239" y="-12" type="curve" smooth="yes"/>
      <point x="291" y="-12"/>
      <point x="327" y="29"/>
      <point x="327" y="81" type="curve" smooth="yes"/>
      <point x="327" y="120"/>
      <point x="306" y="144"/>
      <point x="271" y="144" type="curve" smooth="yes"/>
      <point x="223" y="144"/>
      <point x="181" y="103"/>
      <point x="181" y="51" type="curve" smooth="yes"/>
      <point x="181" y="14"/>
      <point x="201" y="-12"/>
    </contour>
    <contour>
      <point x="438" y="-12" type="curve" smooth="yes"/>
      <point x="491" y="-12"/>
      <point x="527" y="29"/>
      <point x="527" y="81" type="curve" smooth="yes"/>
      <point x="527" y="120"/>
      <point x="506" y="144"/>
      <point x="470" y="144" type="curve" smooth="yes"/>
      <point x="422" y="144"/>
      <point x="380" y="104"/>
      <point x="380" y="51" type="curve" smooth="yes"/>
      <point x="380" y="14"/>
      <point x="401" y="-12"/>
    </contour>
  </outline>
</glyph>
<glyph name="guilsinglleft" format="1">
  <advance width="600"/>
  <unicode hex="2039"/>
  <outline>
    <contour>
      <point x="310" y="46" type="line"/>
      <point x="359" y="82" type="line"/>
      <point x="269" y="259" type="line"/>
      <point x="268" y="238" type="line"/>
      <point x="425" y="416" type="line"/>
      <point x="390" y="456" type="line"/>
      <point x="201" y="292" type="line"/>
      <point x="188" y="217" type="line"/>
    </contour>
  </outline>
</glyph>
<glyph name="guilsinglright" format="1">
  <advance width="600"/>
  <unicode hex="203A"/>
  <outline>
    <contour>
      <point x="174" y="47" type="line"/>
      <point x="362" y="210" type="line"/>
      <point x="376" y="286" type="line"/>
      <point x="254" y="456" type="line"/>
      <point x="205" y="421" type="line"/>
      <point x="294" y="244" type="line"/>
      <point x="296" y="265" type="line"/>
      <point x="139" y="86" type="line"/>
    </contour>
  </outline>
</glyph>
<glyph name="fraction" format="1">
  <advance width="600"/>
  <unicode hex="2044"/>
  <outline>
    <contour>
      <point x="7" y="27" type="line"/>
      <point x="215" y="230" type="line"/>
      <point x="187" y="263" type="line"/>
      <point x="-34" y="76" type="line"/>
    </contour>
    <contour>
      <point x="390" y="386" type="line"/>
      <point x="610" y="571" type="line"/>
      <point x="568" y="620" type="line"/>
      <point x="362" y="418" type="line"/>
    </contour>
  </outline>
</glyph>
<glyph name="colonmonetary" format="1">
  <advance width="600"/>
  <unicode hex="20A1"/>
  <outline>
    <contour>
      <point x="286" y="-12" type="curve"/>
      <point x="376" y="-12"/>
      <point x="445" y="24"/>
      <point x="505" y="84" type="curve"/>
      <point x="458" y="143" type="line"/>
      <point x="413" y="95"/>
      <point x="364" y="65"/>
      <point x="304" y="65" type="curve" smooth="yes"/>
      <point x="224" y="65"/>
      <point x="175" y="130"/>
      <point x="175" y="240" type="curve" smooth="yes"/>
      <point x="175" y="421"/>
      <point x="277" y="576"/>
      <point x="415" y="576" type="curve" smooth="yes"/>
      <point x="470" y="576"/>
      <point x="502" y="548"/>
      <point x="531" y="505" type="curve"/>
      <point x="588" y="550" type="line"/>
      <point x="556" y="603"/>
      <point x="505" y="650"/>
      <point x="419" y="650" type="curve" smooth="yes"/>
      <point x="232" y="650"/>
      <point x="82" y="484"/>
      <point x="82" y="236" type="curve" smooth="yes"/>
      <point x="82" y="82"/>
      <point x="162" y="-12"/>
    </contour>
    <contour>
      <point x="137" y="-110" type="line"/>
      <point x="177" y="-110" type="line"/>
      <point x="450" y="748" type="line"/>
      <point x="411" y="748" type="line"/>
    </contour>
    <contour>
      <point x="232" y="-110" type="line"/>
      <point x="272" y="-110" type="line"/>
      <point x="545" y="748" type="line"/>
      <point x="505" y="748" type="line"/>
    </contour>
  </outline>
</glyph>
<glyph name="lira" format="1">
  <advance width="600"/>
  <unicode hex="20A4"/>
  <outline>
    <contour>
      <point x="25" y="0" type="line"/>
      <point x="462" y="0" type="line"/>
      <point x="477" y="78" type="line"/>
      <point x="176" y="78" type="line"/>
      <point x="177" y="82" type="line"/>
      <point x="246" y="132"/>
      <point x="279" y="190"/>
      <point x="279" y="279" type="curve" smooth="yes"/>
      <point x="278" y="325"/>
      <point x="268" y="383"/>
      <point x="268" y="426" type="curve" smooth="yes"/>
      <point x="268" y="531"/>
      <point x="322" y="575"/>
      <point x="395" y="575" type="curve" smooth="yes"/>
      <point x="442" y="575"/>
      <point x="478" y="550"/>
      <point x="503" y="512" type="curve"/>
      <point x="564" y="561" type="line"/>
      <point x="529" y="611"/>
      <point x="471" y="649"/>
      <point x="395" y="649" type="curve" smooth="yes"/>
      <point x="272" y="649"/>
      <point x="183" y="573"/>
      <point x="183" y="435" type="curve" smooth="yes"/>
      <point x="183" y="386"/>
      <point x="195" y="318"/>
      <point x="195" y="267" type="curve" smooth="yes"/>
      <point x="195" y="178"/>
      <point x="143" y="102"/>
      <point x="37" y="56" type="curve"/>
    </contour>
    <contour>
      <point x="91" y="344" type="line"/>
      <point x="458" y="344" type="line"/>
      <point x="468" y="394" type="line"/>
      <point x="188" y="394" type="line"/>
      <point x="101" y="390" type="line"/>
    </contour>
    <contour>
      <point x="69" y="235" type="line"/>
      <point x="436" y="235" type="line"/>
      <point x="446" y="285" type="line"/>
      <point x="166" y="285" type="line"/>
      <point x="79" y="280" type="line"/>
    </contour>
  </outline>
</glyph>
<glyph name="naira" format="1">
	<unicode hex="20A6"/>
	<advance width="600"/>
	<outline>
		<contour>
			<point x="61" y="0" type="line"/>
			<point x="131" y="0" type="line"/>
			<point x="183" y="262" type="line"/>
			<point x="226" y="559" type="line"/>
			<point x="231" y="559" type="line"/>
			<point x="266" y="363" type="line"/>
			<point x="327" y="0" type="line"/>
			<point x="418" y="0" type="line"/>
			<point x="545" y="638" type="line"/>
			<point x="475" y="638" type="line"/>
			<point x="423" y="375" type="line"/>
			<point x="379" y="73" type="line"/>
			<point x="374" y="74" type="line"/>
			<point x="340" y="275" type="line"/>
			<point x="279" y="638" type="line"/>
			<point x="188" y="638" type="line"/>
		</contour>
		<contour>
			<point x="53" y="351" type="line"/>
			<point x="564" y="351" type="line"/>
			<point x="573" y="393" type="line"/>
			<point x="136" y="393" type="line"/>
			<point x="61" y="388" type="line"/>
		</contour>
		<contour>
			<point x="33" y="245" type="line"/>
			<point x="543" y="245" type="line"/>
			<point x="552" y="287" type="line"/>
			<point x="116" y="287" type="line"/>
			<point x="41" y="282" type="line"/>
		</contour>
	</outline>
</glyph>
<glyph name="peseta" format="1">
  <advance width="600"/>
  <unicode hex="20A7"/>
  <outline>
    <contour>
      <point x="65" y="0" type="line"/>
      <point x="152" y="0" type="line"/>
      <point x="201" y="242" type="line"/>
      <point x="267" y="242" type="line" smooth="yes"/>
      <point x="415" y="242"/>
      <point x="539" y="320"/>
      <point x="539" y="484" type="curve" smooth="yes"/>
      <point x="539" y="595"/>
      <point x="462" y="638"/>
      <point x="345" y="638" type="curve" smooth="yes"/>
      <point x="193" y="638" type="line"/>
    </contour>
    <contour>
      <point x="213" y="304" type="line"/>
      <point x="267" y="577" type="line"/>
      <point x="322" y="577" type="line" smooth="yes"/>
      <point x="405" y="577"/>
      <point x="452" y="550"/>
      <point x="452" y="475" type="curve" smooth="yes"/>
      <point x="452" y="366"/>
      <point x="385" y="304"/>
      <point x="268" y="304" type="curve" smooth="yes"/>
    </contour>
    <contour>
      <point x="73" y="415" type="line"/>
      <point x="589" y="415" type="line"/>
      <point x="601" y="472" type="line"/>
      <point x="168" y="472" type="line"/>
      <point x="84" y="468" type="line"/>
    </contour>
  </outline>
</glyph>
<glyph name="dong" format="1">
  <advance width="600"/>
  <unicode hex="20AB"/>
  <outline>
    <contour>
      <point x="227" y="111" type="curve" smooth="yes"/>
      <point x="278" y="111"/>
      <point x="328" y="133"/>
      <point x="365" y="167" type="curve"/>
      <point x="369" y="167" type="line"/>
      <point x="367" y="121" type="line"/>
      <point x="426" y="121" type="line"/>
      <point x="535" y="663" type="line"/>
      <point x="458" y="663" type="line"/>
      <point x="428" y="514" type="line"/>
      <point x="416" y="432" type="line"/>
      <point x="391" y="459"/>
      <point x="359" y="479"/>
      <point x="304" y="479" type="curve" smooth="yes"/>
      <point x="197" y="479"/>
      <point x="93" y="396"/>
      <point x="93" y="254" type="curve" smooth="yes"/>
      <point x="93" y="162"/>
      <point x="144" y="111"/>
    </contour>
    <contour>
      <point x="257" y="175" type="curve" smooth="yes"/>
      <point x="203" y="175"/>
      <point x="176" y="207"/>
      <point x="176" y="264" type="curve" smooth="yes"/>
      <point x="176" y="356"/>
      <point x="239" y="414"/>
      <point x="308" y="414" type="curve" smooth="yes"/>
      <point x="349" y="414"/>
      <point x="373" y="403"/>
      <point x="400" y="376" type="curve"/>
      <point x="370" y="227" type="line"/>
      <point x="330" y="190"/>
      <point x="293" y="175"/>
    </contour>
    <contour>
      <point x="279" y="548" type="line"/>
      <point x="512" y="548" type="line"/>
      <point x="590" y="553" type="line"/>
      <point x="599" y="598" type="line"/>
      <point x="290" y="598" type="line"/>
    </contour>
    <contour>
      <point x="50" y="0" type="line"/>
      <point x="434" y="0" type="line"/>
      <point x="444" y="50" type="line"/>
      <point x="61" y="50" type="line"/>
    </contour>
  </outline>
</glyph>
<glyph name="Euro" format="1">
  <advance width="600"/>
  <unicode hex="20AC"/>
  <outline>
    <contour>
      <point x="306" y="-12" type="curve" smooth="yes"/>
      <point x="394" y="-12"/>
      <point x="466" y="24"/>
      <point x="526" y="83" type="curve"/>
      <point x="481" y="142" type="line"/>
      <point x="434" y="96"/>
      <point x="384" y="67"/>
      <point x="326" y="67" type="curve" smooth="yes"/>
      <point x="244" y="67"/>
      <point x="200" y="130"/>
      <point x="200" y="241" type="curve" smooth="yes"/>
      <point x="200" y="431"/>
      <point x="307" y="575"/>
      <point x="430" y="575" type="curve" smooth="yes"/>
      <point x="484" y="575"/>
      <point x="516" y="549"/>
      <point x="545" y="506" type="curve"/>
      <point x="605" y="554" type="line"/>
      <point x="569" y="608"/>
      <point x="520" y="649"/>
      <point x="440" y="649" type="curve" smooth="yes"/>
      <point x="256" y="649"/>
      <point x="106" y="490"/>
      <point x="106" y="235" type="curve" smooth="yes"/>
      <point x="106" y="80"/>
      <point x="184" y="-12"/>
    </contour>
    <contour>
      <point x="54" y="349" type="line"/>
      <point x="481" y="349" type="line"/>
      <point x="491" y="400" type="line"/>
      <point x="136" y="400" type="line"/>
      <point x="64" y="395" type="line"/>
    </contour>
    <contour>
      <point x="31" y="234" type="line"/>
      <point x="416" y="234" type="line"/>
      <point x="427" y="284" type="line"/>
      <point x="111" y="284" type="line"/>
      <point x="41" y="279" type="line"/>
    </contour>
  </outline>
</glyph>
<glyph name="trademark" format="1">
  <advance width="600"/>
  <unicode hex="2122"/>
  <outline>
    <contour>
      <point x="109" y="366" type="line"/>
      <point x="171" y="366" type="line"/>
      <point x="224" y="631" type="line"/>
      <point x="163" y="631" type="line"/>
    </contour>
    <contour>
      <point x="301" y="366" type="line"/>
      <point x="359" y="366" type="line"/>
      <point x="385" y="497" type="line"/>
      <point x="399" y="604" type="line"/>
      <point x="403" y="604" type="line"/>
      <point x="434" y="421" type="line"/>
      <point x="479" y="421" type="line"/>
      <point x="582" y="604" type="line"/>
      <point x="586" y="604" type="line"/>
      <point x="557" y="497" type="line"/>
      <point x="532" y="366" type="line"/>
      <point x="589" y="366" type="line"/>
      <point x="651" y="676" type="line"/>
      <point x="576" y="676" type="line"/>
      <point x="513" y="565" type="line"/>
      <point x="471" y="486" type="line"/>
      <point x="467" y="486" type="line"/>
      <point x="457" y="565" type="line"/>
      <point x="437" y="676" type="line"/>
      <point x="363" y="676" type="line"/>
    </contour>
    <contour>
      <point x="70" y="623" type="line"/>
      <point x="312" y="623" type="line"/>
      <point x="323" y="676" type="line"/>
      <point x="82" y="676" type="line"/>
    </contour>
  </outline>
</glyph>
<glyph name="arrowleft" format="1">
  <advance width="600"/>
  <unicode hex="2190"/>
  <outline>
    <contour>
      <point x="282" y="-16" type="line"/>
      <point x="327" y="35" type="line"/>
      <point x="139" y="215" type="line"/>
      <point x="567" y="215" type="line"/>
      <point x="567" y="288" type="line"/>
      <point x="140" y="288" type="line"/>
      <point x="327" y="468" type="line"/>
      <point x="282" y="519" type="line"/>
      <point x="14" y="254" type="line"/>
      <point x="14" y="249" type="line"/>
    </contour>
  </outline>
</glyph>
<glyph name="arrowup" format="1">
  <advance width="600"/>
  <unicode hex="2191"/>
  <outline>
    <contour>
      <point x="257" y="-25" type="line"/>
      <point x="332" y="-25" type="line"/>
      <point x="331" y="403" type="line"/>
      <point x="511" y="216" type="line"/>
      <point x="562" y="261" type="line"/>
      <point x="297" y="529" type="line"/>
      <point x="293" y="529" type="line"/>
      <point x="28" y="261" type="line"/>
      <point x="79" y="216" type="line"/>
      <point x="258" y="403" type="line"/>
    </contour>
  </outline>
</glyph>
<glyph name="arrowright" format="1">
  <advance width="600"/>
  <unicode hex="2192"/>
  <outline>
    <contour>
      <point x="308" y="-16" type="line"/>
      <point x="576" y="249" type="line"/>
      <point x="576" y="254" type="line"/>
      <point x="308" y="519" type="line"/>
      <point x="263" y="468" type="line"/>
      <point x="451" y="288" type="line"/>
      <point x="23" y="288" type="line"/>
      <point x="23" y="215" type="line"/>
      <point x="450" y="215" type="line"/>
      <point x="263" y="35" type="line"/>
    </contour>
  </outline>
</glyph>
<glyph name="arrowdown" format="1">
  <advance width="600"/>
  <unicode hex="2193"/>
  <outline>
    <contour>
      <point x="293" y="-27" type="line"/>
      <point x="297" y="-27" type="line"/>
      <point x="562" y="241" type="line"/>
      <point x="511" y="286" type="line"/>
      <point x="331" y="99" type="line"/>
      <point x="332" y="527" type="line"/>
      <point x="257" y="527" type="line"/>
      <point x="258" y="99" type="line"/>
      <point x="79" y="286" type="line"/>
      <point x="28" y="241" type="line"/>
    </contour>
  </outline>
</glyph>
<glyph name="arrowdblleft" format="1">
  <advance width="600"/>
  <unicode hex="21D0"/>
  <outline>
    <contour>
      <point x="285" y="-16" type="line"/>
      <point x="331" y="36" type="line"/>
      <point x="95" y="252" type="line"/>
      <point x="331" y="468" type="line"/>
      <point x="285" y="520" type="line"/>
      <point x="12" y="254" type="line"/>
      <point x="12" y="250" type="line"/>
    </contour>
    <contour>
      <point x="150" y="311" type="line"/>
      <point x="564" y="311" type="line"/>
      <point x="564" y="370" type="line"/>
      <point x="150" y="370" type="line"/>
    </contour>
    <contour>
      <point x="150" y="134" type="line"/>
      <point x="564" y="134" type="line"/>
      <point x="564" y="193" type="line"/>
      <point x="150" y="193" type="line"/>
    </contour>
  </outline>
</glyph>
<glyph name="arrowdblup" format="1">
  <advance width="600"/>
  <unicode hex="21D1"/>
  <outline>
    <contour>
      <point x="79" y="212" type="line"/>
      <point x="295" y="448" type="line"/>
      <point x="512" y="212" type="line"/>
      <point x="563" y="258" type="line"/>
      <point x="297" y="531" type="line"/>
      <point x="293" y="531" type="line"/>
      <point x="27" y="258" type="line"/>
    </contour>
    <contour>
      <point x="171" y="-21" type="line"/>
      <point x="233" y="-21" type="line"/>
      <point x="233" y="393" type="line"/>
      <point x="171" y="393" type="line"/>
    </contour>
    <contour>
      <point x="357" y="-21" type="line"/>
      <point x="420" y="-21" type="line"/>
      <point x="420" y="393" type="line"/>
      <point x="357" y="393" type="line"/>
    </contour>
  </outline>
</glyph>
<glyph name="arrowdblright" format="1">
  <advance width="600"/>
  <unicode hex="21D2"/>
  <outline>
    <contour>
      <point x="305" y="-16" type="line"/>
      <point x="578" y="250" type="line"/>
      <point x="578" y="254" type="line"/>
      <point x="305" y="520" type="line"/>
      <point x="259" y="468" type="line"/>
      <point x="496" y="252" type="line"/>
      <point x="259" y="36" type="line"/>
    </contour>
    <contour>
      <point x="26" y="311" type="line"/>
      <point x="440" y="311" type="line"/>
      <point x="440" y="370" type="line"/>
      <point x="26" y="370" type="line"/>
    </contour>
    <contour>
      <point x="26" y="134" type="line"/>
      <point x="440" y="134" type="line"/>
      <point x="440" y="193" type="line"/>
      <point x="26" y="193" type="line"/>
    </contour>
  </outline>
</glyph>
<glyph name="arrowdbldown" format="1">
  <advance width="600"/>
  <unicode hex="21D3"/>
  <outline>
    <contour>
      <point x="293" y="-24" type="line"/>
      <point x="297" y="-24" type="line"/>
      <point x="563" y="249" type="line"/>
      <point x="512" y="295" type="line"/>
      <point x="295" y="58" type="line"/>
      <point x="79" y="295" type="line"/>
      <point x="27" y="249" type="line"/>
    </contour>
    <contour>
      <point x="177" y="114" type="line"/>
      <point x="236" y="114" type="line"/>
      <point x="236" y="528" type="line"/>
      <point x="177" y="528" type="line"/>
    </contour>
    <contour>
      <point x="354" y="114" type="line"/>
      <point x="413" y="114" type="line"/>
      <point x="413" y="528" type="line"/>
      <point x="354" y="528" type="line"/>
    </contour>
  </outline>
</glyph>
<glyph name="partialdiff" format="1">
  <advance width="600"/>
  <unicode hex="2202"/>
  <outline>
    <contour>
      <point x="212" y="-12" type="curve" smooth="yes"/>
      <point x="401" y="-12"/>
      <point x="550" y="199"/>
      <point x="550" y="451" type="curve" smooth="yes"/>
      <point x="550" y="611"/>
      <point x="475" y="671"/>
      <point x="376" y="671" type="curve" smooth="yes"/>
      <point x="322" y="671"/>
      <point x="264" y="651"/>
      <point x="217" y="615" type="curve"/>
      <point x="251" y="556" type="line"/>
      <point x="283" y="581"/>
      <point x="316" y="596"/>
      <point x="360" y="596" type="curve" smooth="yes"/>
      <point x="418" y="596"/>
      <point x="462" y="555"/>
      <point x="462" y="451" type="curve" smooth="yes"/>
      <point x="462" y="257"/>
      <point x="358" y="64"/>
      <point x="225" y="64" type="curve" smooth="yes"/>
      <point x="167" y="64"/>
      <point x="135" y="104"/>
      <point x="135" y="167" type="curve" smooth="yes"/>
      <point x="135" y="259"/>
      <point x="199" y="335"/>
      <point x="304" y="335" type="curve" smooth="yes"/>
      <point x="365" y="335"/>
      <point x="406" y="297"/>
      <point x="437" y="241" type="curve"/>
      <point x="461" y="314" type="line"/>
      <point x="432" y="365"/>
      <point x="373" y="407"/>
      <point x="298" y="407" type="curve" smooth="yes"/>
      <point x="150" y="407"/>
      <point x="44" y="303"/>
      <point x="44" y="158" type="curve" smooth="yes"/>
      <point x="44" y="45"/>
      <point x="112" y="-12"/>
    </contour>
  </outline>
</glyph>
<glyph name="product" format="1">
  <advance width="600"/>
  <unicode hex="220F"/>
  <outline>
    <contour>
      <point x="40" y="-120" type="line"/>
      <point x="133" y="-120" type="line"/>
      <point x="133" y="556" type="line"/>
      <point x="450" y="556" type="line"/>
      <point x="450" y="-120" type="line"/>
      <point x="545" y="-120" type="line"/>
      <point x="545" y="637" type="line"/>
      <point x="40" y="637" type="line"/>
    </contour>
  </outline>
</glyph>
<glyph name="summation" format="1">
  <advance width="600"/>
  <unicode hex="2211"/>
  <outline>
    <contour>
      <point x="59" y="-120" type="line"/>
      <point x="541" y="-120" type="line"/>
      <point x="541" y="-42" type="line"/>
      <point x="175" y="-42" type="line"/>
      <point x="175" y="-38" type="line"/>
      <point x="390" y="260" type="line"/>
      <point x="184" y="555" type="line"/>
      <point x="183" y="559" type="line"/>
      <point x="514" y="559" type="line"/>
      <point x="514" y="637" type="line"/>
      <point x="70" y="637" type="line"/>
      <point x="70" y="579" type="line"/>
      <point x="294" y="258" type="line"/>
      <point x="59" y="-62" type="line"/>
    </contour>
  </outline>
</glyph>
<glyph name="minus" format="1">
  <advance width="600"/>
  <unicode hex="2212"/>
  <outline>
    <contour>
      <point x="91" y="297" type="line"/>
      <point x="516" y="297" type="line"/>
      <point x="516" y="364" type="line"/>
      <point x="91" y="364" type="line"/>
    </contour>
  </outline>
</glyph>
<glyph name="radical" format="1">
  <advance width="600"/>
  <unicode hex="221A"/>
  <outline>
    <contour>
      <point x="222" y="-93" type="line"/>
      <point x="289" y="-93" type="line"/>
      <point x="689" y="820" type="line"/>
      <point x="624" y="820" type="line"/>
      <point x="299" y="70" type="line" smooth="yes"/>
      <point x="290" y="48"/>
      <point x="282" y="26"/>
      <point x="273" y="4" type="curve"/>
      <point x="269" y="4" type="line"/>
      <point x="269" y="26"/>
      <point x="267" y="48"/>
      <point x="265" y="70" type="curve"/>
      <point x="219" y="409" type="line"/>
      <point x="69" y="349" type="line"/>
      <point x="79" y="301" type="line"/>
      <point x="157" y="332" type="line"/>
    </contour>
  </outline>
</glyph>
<glyph name="infinity" format="1">
  <advance width="600"/>
  <unicode hex="221E"/>
  <outline>
    <contour>
      <point x="453" y="146" type="curve" smooth="yes"/>
      <point x="545" y="146"/>
      <point x="611" y="221"/>
      <point x="611" y="336" type="curve" smooth="yes"/>
      <point x="611" y="438"/>
      <point x="545" y="510"/>
      <point x="456" y="510" type="curve" smooth="yes"/>
      <point x="384" y="510"/>
      <point x="333" y="465"/>
      <point x="291" y="395" type="curve"/>
      <point x="287" y="395" type="line"/>
      <point x="257" y="450"/>
      <point x="213" y="494"/>
      <point x="148" y="494" type="curve" smooth="yes"/>
      <point x="64" y="494"/>
      <point x="0" y="430"/>
      <point x="0" y="323" type="curve" smooth="yes"/>
      <point x="0" y="237"/>
      <point x="62" y="167"/>
      <point x="136" y="167" type="curve" smooth="yes"/>
      <point x="203" y="167"/>
      <point x="248" y="216"/>
      <point x="277" y="264" type="curve"/>
      <point x="281" y="264" type="line"/>
      <point x="333" y="182"/>
      <point x="381" y="146"/>
    </contour>
    <contour>
      <point x="148" y="235" type="curve" smooth="yes"/>
      <point x="105" y="235"/>
      <point x="71" y="274"/>
      <point x="71" y="326" type="curve" smooth="yes"/>
      <point x="71" y="377"/>
      <point x="101" y="408"/>
      <point x="145" y="408" type="curve" smooth="yes"/>
      <point x="184" y="408"/>
      <point x="216" y="382"/>
      <point x="249" y="319" type="curve"/>
      <point x="223" y="265"/>
      <point x="190" y="235"/>
    </contour>
    <contour>
      <point x="450" y="233" type="curve" smooth="yes"/>
      <point x="400" y="233"/>
      <point x="363" y="262"/>
      <point x="320" y="342" type="curve"/>
      <point x="358" y="411"/>
      <point x="398" y="441"/>
      <point x="442" y="441" type="curve" smooth="yes"/>
      <point x="504" y="441"/>
      <point x="541" y="396"/>
      <point x="541" y="333" type="curve" smooth="yes"/>
      <point x="541" y="278"/>
      <point x="507" y="233"/>
    </contour>
  </outline>
</glyph>
<glyph name="orthogonal" format="1">
	<unicode hex="221F"/>
	<advance width="600"/>
	<outline>
		<contour>
			<point x="83" y="102" type="line"/>
			<point x="517" y="102" type="line"/>
			<point x="517" y="171" type="line"/>
			<point x="155" y="171" type="line"/>
			<point x="155" y="558" type="line"/>
			<point x="83" y="558" type="line"/>
		</contour>
	</outline>
</glyph>
<glyph name="integral" format="1">
  <advance width="600"/>
  <unicode hex="222B"/>
  <outline>
    <contour>
      <point x="137" y="-158" type="curve" smooth="yes"/>
      <point x="258" y="-158"/>
      <point x="302" y="-59"/>
      <point x="328" y="73" type="curve" smooth="yes"/>
      <point x="358" y="223"/>
      <point x="356" y="415"/>
      <point x="385" y="561" type="curve" smooth="yes"/>
      <point x="406" y="663"/>
      <point x="428" y="719"/>
      <point x="482" y="719" type="curve" smooth="yes"/>
      <point x="496" y="719"/>
      <point x="508" y="717"/>
      <point x="516" y="715" type="curve"/>
      <point x="540" y="783" type="line"/>
      <point x="532" y="786"/>
      <point x="513" y="790"/>
      <point x="494" y="790" type="curve" smooth="yes"/>
      <point x="373" y="790"/>
      <point x="328" y="689"/>
      <point x="302" y="559" type="curve" smooth="yes"/>
      <point x="272" y="408"/>
      <point x="275" y="216"/>
      <point x="246" y="69" type="curve" smooth="yes"/>
      <point x="225" y="-33"/>
      <point x="204" y="-87"/>
      <point x="148" y="-87" type="curve" smooth="yes"/>
      <point x="134" y="-87"/>
      <point x="122" y="-86"/>
      <point x="114" y="-83" type="curve"/>
      <point x="90" y="-151" type="line"/>
      <point x="99" y="-155"/>
      <point x="117" y="-158"/>
    </contour>
  </outline>
</glyph>
<glyph name="notequal" format="1">
  <advance width="600"/>
  <unicode hex="2260"/>
  <outline>
    <contour>
      <point x="118" y="65" type="line"/>
      <point x="178" y="59" type="line"/>
      <point x="257" y="187" type="line"/>
      <point x="514" y="187" type="line"/>
      <point x="514" y="255" type="line"/>
      <point x="291" y="255" type="line"/>
      <point x="382" y="406" type="line"/>
      <point x="514" y="406" type="line"/>
      <point x="514" y="474" type="line"/>
      <point x="416" y="474" type="line"/>
      <point x="491" y="595" type="line"/>
      <point x="431" y="601" type="line"/>
      <point x="352" y="474" type="line"/>
      <point x="95" y="474" type="line"/>
      <point x="95" y="406" type="line"/>
      <point x="318" y="406" type="line"/>
      <point x="227" y="255" type="line"/>
      <point x="95" y="255" type="line"/>
      <point x="95" y="187" type="line"/>
      <point x="193" y="187" type="line"/>
    </contour>
  </outline>
</glyph>
<glyph name="lessequal" format="1">
  <advance width="600"/>
  <unicode hex="2264"/>
  <outline>
    <contour>
      <point x="57" y="0" type="line"/>
      <point x="488" y="0" type="line"/>
      <point x="488" y="67" type="line"/>
      <point x="57" y="67" type="line"/>
    </contour>
    <contour>
      <point x="488" y="153" type="line"/>
      <point x="488" y="231" type="line"/>
      <point x="283" y="300" type="line"/>
      <point x="147" y="343" type="line"/>
      <point x="147" y="347" type="line"/>
      <point x="283" y="389" type="line"/>
      <point x="488" y="459" type="line"/>
      <point x="488" y="537" type="line"/>
      <point x="57" y="385" type="line"/>
      <point x="57" y="304" type="line"/>
    </contour>
  </outline>
</glyph>
<glyph name="greaterequal" format="1">
  <advance width="600"/>
  <unicode hex="2265"/>
  <outline>
    <contour>
      <point x="55" y="0" type="line"/>
      <point x="488" y="0" type="line"/>
      <point x="488" y="67" type="line"/>
      <point x="55" y="67" type="line"/>
    </contour>
    <contour>
      <point x="55" y="153" type="line"/>
      <point x="488" y="304" type="line"/>
      <point x="488" y="385" type="line"/>
      <point x="55" y="537" type="line"/>
      <point x="55" y="459" type="line"/>
      <point x="260" y="389" type="line"/>
      <point x="395" y="347" type="line"/>
      <point x="395" y="343" type="line"/>
      <point x="260" y="300" type="line"/>
      <point x="55" y="231" type="line"/>
    </contour>
  </outline>
</glyph>
<glyph name="revlogicalnot" format="1">
  <advance width="600"/>
  <unicode hex="2310"/>
  <outline>
    <contour>
      <point x="83" y="102" type="line"/>
      <point x="155" y="102" type="line"/>
      <point x="155" y="296" type="line"/>
      <point x="517" y="296" type="line"/>
      <point x="517" y="364" type="line"/>
      <point x="83" y="364" type="line"/>
    </contour>
  </outline>
</glyph>
<glyph name="floorleft" format="1">
  <advance width="600"/>
  <unicode hex="231E"/>
  <outline>
    <contour>
      <point x="142" y="-53" type="line"/>
      <point x="419" y="-53" type="line"/>
      <point x="429" y="-1" type="line"/>
      <point x="223" y="-1" type="line"/>
      <point x="352" y="637" type="line"/>
      <point x="281" y="637" type="line"/>
    </contour>
  </outline>
</glyph>
<glyph name="heavyhorzbxd" format="1">
  <advance width="600"/>
  <unicode hex="2501"/>
  <outline>
    <contour>
      <point x="-47" y="207" type="line"/>
      <point x="647" y="207" type="line"/>
      <point x="647" y="393" type="line"/>
      <point x="-47" y="393" type="line"/>
    </contour>
  </outline>
</glyph>
<glyph name="heavytrpldashhorzbxd" format="1">
  <advance width="600"/>
  <unicode hex="2505"/>
  <outline>
    <contour>
      <point x="33" y="207" type="line"/>
      <point x="167" y="207" type="line"/>
      <point x="167" y="393" type="line"/>
      <point x="33" y="393" type="line"/>
    </contour>
    <contour>
      <point x="233" y="207" type="line"/>
      <point x="367" y="207" type="line"/>
      <point x="367" y="393" type="line"/>
      <point x="233" y="393" type="line"/>
    </contour>
    <contour>
      <point x="433" y="207" type="line"/>
      <point x="567" y="207" type="line"/>
      <point x="567" y="393" type="line"/>
      <point x="433" y="393" type="line"/>
    </contour>
  </outline>
</glyph>
<glyph name="lightquaddashhorzbxd" format="1">
	<unicode hex="2508"/>
	<advance width="600"/>
	<outline>
		<contour>
			<point x="18" y="253" type="line"/>
			<point x="131" y="253" type="line"/>
			<point x="131" y="347" type="line"/>
			<point x="18" y="347" type="line"/>
		</contour>
		<contour>
			<point x="168" y="253" type="line"/>
			<point x="281" y="253" type="line"/>
			<point x="281" y="347" type="line"/>
			<point x="168" y="347" type="line"/>
		</contour>
		<contour>
			<point x="318" y="253" type="line"/>
			<point x="431" y="253" type="line"/>
			<point x="431" y="347" type="line"/>
			<point x="318" y="347" type="line"/>
		</contour>
		<contour>
			<point x="468" y="253" type="line"/>
			<point x="581" y="253" type="line"/>
			<point x="581" y="347" type="line"/>
			<point x="468" y="347" type="line"/>
		</contour>
	</outline>
</glyph>
<glyph name="lightquaddashvertbxd" format="1">
	<unicode hex="250A"/>
	<advance width="600"/>
	<outline>
		<contour>
			<point x="253" y="-169" type="line"/>
			<point x="347" y="-169" type="line"/>
			<point x="347" y="19" type="line"/>
			<point x="253" y="19" type="line"/>
		</contour>
		<contour>
			<point x="253" y="81" type="line"/>
			<point x="347" y="81" type="line"/>
			<point x="347" y="269" type="line"/>
			<point x="253" y="269" type="line"/>
		</contour>
		<contour>
			<point x="253" y="331" type="line"/>
			<point x="347" y="331" type="line"/>
			<point x="347" y="519" type="line"/>
			<point x="253" y="519" type="line"/>
		</contour>
		<contour>
			<point x="253" y="581" type="line"/>
			<point x="347" y="581" type="line"/>
			<point x="347" y="769" type="line"/>
			<point x="253" y="769" type="line"/>
		</contour>
	</outline>
</glyph>
